G04 Layer: BottomLayer*
G04 EasyEDA v6.4.5, 2020-09-13T21:27:01+03:00*
G04 63316e0368094ceea4197b1f53c500b6,10*
G04 Gerber Generator version 0.2*
G04 Scale: 100 percent, Rotated: No, Reflected: No *
G04 Dimensions in millimeters *
G04 leading zeros omitted , absolute positions ,3 integer and 3 decimal *
%FSLAX33Y33*%
%MOMM*%
G90*
G71D02*

%ADD10C,0.254000*%
%ADD11C,0.499999*%
%ADD12C,0.203200*%
%ADD13C,0.609600*%
%ADD14C,2.540000*%
%ADD15C,1.879600*%
%ADD16R,1.574800X1.574800*%
%ADD17C,1.574800*%
%ADD18R,1.599997X0.899998*%
%ADD19C,1.799996*%
%ADD20C,0.899998*%

%LPD*%
G54D10*
G01X211785Y114427D02*
G01X214757Y117398D01*
G01X214757Y117602D01*
G01X229222Y117602D01*
G01X232397Y114427D01*
G01X208534Y109474D02*
G01X211785Y112725D01*
G01X211785Y114427D01*
G01X142367Y104902D02*
G01X147206Y104902D01*
G01X75500Y114427D02*
G01X86995Y114427D01*
G01X75500Y114427D02*
G01X68389Y107315D01*
G01X48641Y107315D01*
G01X44577Y103251D01*
G01X24511Y103251D01*
G01X22987Y101727D01*
G01X22987Y93980D01*
G01X28321Y88646D01*
G01X28321Y84709D01*
G01X30861Y82169D01*
G01X31242Y44323D01*
G01X29481Y42291D01*
G01X9652Y42291D01*
G01X7239Y39878D01*
G01X7239Y24511D01*
G01X11938Y19812D01*
G01X17780Y19812D01*
G01X57245Y37338D02*
G01X52578Y37338D01*
G01X45466Y44450D01*
G01X35306Y44450D01*
G01X30480Y39624D01*
G01X28321Y39624D01*
G01X26035Y37338D01*
G01X12954Y37338D01*
G01X171577Y111125D02*
G01X171577Y106680D01*
G01X17145Y80899D02*
G01X17145Y96012D01*
G01X10922Y102235D01*
G01X10922Y106553D01*
G01X14351Y106553D01*
G01X26797Y118999D01*
G01X116332Y118999D01*
G01X117856Y118237D01*
G54D11*
G01X121843Y111379D02*
G01X119773Y111379D01*
G01X116725Y114427D01*
G01X108725Y114427D02*
G01X106299Y112000D01*
G01X106299Y111887D01*
G01X101092Y111887D01*
G54D10*
G01X235077Y17272D02*
G01X223266Y5461D01*
G01X210947Y5334D01*
G01X208534Y7747D01*
G01X208534Y34798D01*
G01X200533Y41783D01*
G01X200406Y41656D01*
G01X198120Y41656D01*
G01X195326Y38862D01*
G01X195453Y9525D01*
G01X203327Y1651D01*
G01X248666Y1651D01*
G01X252222Y5461D01*
G01X252095Y113919D01*
G01X247269Y118745D01*
G01X213614Y118745D01*
G01X206629Y111760D01*
G01X206629Y111506D01*
G01X206502Y111379D01*
G01X204749Y111379D01*
G01X199263Y37338D02*
G01X199390Y8636D01*
G01X204089Y3937D01*
G01X248285Y3556D01*
G01X250825Y6096D01*
G01X251079Y112903D01*
G01X246634Y117348D01*
G01X240030Y117348D01*
G01X234061Y111379D01*
G01X225475Y111379D01*
G01X205613Y39878D02*
G01X202184Y43307D01*
G01X197612Y43307D01*
G01X194183Y39878D01*
G01X194056Y12827D01*
G01X184277Y1905D01*
G01X50165Y2032D01*
G01X45212Y6985D01*
G01X45212Y14478D01*
G01X40513Y17780D01*
G01X37211Y18542D01*
G01X34798Y17272D01*
G01X192773Y39865D02*
G01X192773Y13589D01*
G01X185293Y4953D01*
G01X156845Y4953D01*
G01X140899Y58166D02*
G01X140899Y43490D01*
G01X136017Y38608D01*
G01X136017Y27813D01*
G01X145415Y18161D01*
G01X145288Y12065D01*
G01X154305Y4953D01*
G01X137838Y78359D02*
G01X137922Y46736D01*
G01X132842Y40005D01*
G01X132842Y28448D01*
G01X143764Y17145D01*
G01X143764Y11430D01*
G01X151765Y4953D01*
G01X131140Y98679D02*
G01X131140Y81584D01*
G01X135636Y77089D01*
G01X135763Y45974D01*
G01X131445Y40259D01*
G01X131445Y27940D01*
G01X142367Y16764D01*
G01X142494Y10668D01*
G01X149225Y4953D01*
G01X110617Y98679D02*
G01X124968Y98679D01*
G01X129540Y94107D01*
G01X129540Y81534D01*
G01X134747Y76327D01*
G01X134620Y46609D01*
G01X130175Y40767D01*
G01X130175Y27178D01*
G01X140970Y16129D01*
G01X140970Y10287D01*
G01X146685Y4953D01*
G01X34874Y107170D02*
G01X36195Y108491D01*
G01X36195Y110363D01*
G01X121843Y110109D02*
G01X124714Y107238D01*
G01X124714Y102489D01*
G01X110236Y26035D02*
G01X104013Y19812D01*
G01X41148Y19812D01*
G01X113538Y108585D02*
G01X106553Y101600D01*
G01X106553Y100711D01*
G01X157949Y114427D02*
G01X155829Y116547D01*
G01X155829Y118491D01*
G01X155702Y118364D01*
G01X122936Y117983D01*
G01X163296Y111379D02*
G01X167132Y111379D01*
G01X167259Y111506D01*
G01X167259Y114427D01*
G01X158358Y114427D01*
G01X158496Y119380D02*
G01X159698Y118177D01*
G01X159698Y116078D01*
G01X48514Y110363D02*
G01X52324Y114173D01*
G01X52324Y117983D01*
G01X117305Y78359D02*
G01X124841Y78359D01*
G01X128651Y74549D01*
G01X128651Y26416D01*
G01X139192Y15875D01*
G01X139192Y9906D01*
G01X144145Y4953D01*
G01X129337Y114427D02*
G01X126924Y116840D01*
G01X94107Y116840D01*
G01X88646Y111379D01*
G01X80391Y111379D01*
G01X80391Y110109D02*
G01X80264Y109982D01*
G01X80264Y106680D01*
G01X219785Y114427D02*
G01X221182Y115824D01*
G01X227584Y115824D01*
G01X228092Y115316D01*
G01X228092Y111887D01*
G01X227583Y111378D01*
G01X225475Y111378D01*
G01X191173Y114427D02*
G01X198920Y106680D01*
G01X205232Y106680D01*
G01X199173Y114427D02*
G01X200787Y112813D01*
G01X200787Y111760D01*
G01X201168Y111378D01*
G01X204749Y111378D01*
G01X170561Y114427D02*
G01X175895Y109093D01*
G01X175895Y105283D01*
G01X176784Y104394D01*
G01X177673Y104394D01*
G01X179324Y106045D01*
G01X179324Y109855D01*
G01X175895Y113284D01*
G01X176022Y113411D01*
G01X176022Y115697D01*
G01X176149Y115824D01*
G01X189865Y115824D01*
G01X191173Y114515D01*
G01X191173Y114427D01*
G01X149949Y114427D02*
G01X151854Y116332D01*
G01X153543Y117729D01*
G01X170561Y114427D02*
G01X168910Y117856D01*
G01X160528Y117856D01*
G01X178561Y114427D02*
G01X178688Y114554D01*
G01X186690Y114554D01*
G01X187071Y114173D01*
G01X187071Y111633D01*
G01X186816Y111378D01*
G01X184023Y111378D01*
G01X11430Y17272D02*
G01X34798Y17272D01*
G01X219964Y19812D02*
G01X241427Y19812D01*
G01X205943Y39547D02*
G01X213614Y31877D01*
G01X213614Y20701D01*
G01X214503Y19812D01*
G01X219964Y19812D01*
G01X205613Y39878D02*
G01X214630Y30861D01*
G01X245872Y30861D01*
G01X249047Y34036D01*
G01X249047Y97409D01*
G01X245237Y101219D01*
G01X241681Y101219D01*
G01X219456Y22860D02*
G01X220853Y22860D01*
G01X222758Y24765D01*
G01X177546Y109093D02*
G01X174498Y112141D01*
G01X174498Y116205D01*
G01X175006Y116713D01*
G01X201422Y116713D01*
G01X204749Y113385D01*
G01X204749Y112648D01*
G01X177546Y106426D02*
G01X177546Y109093D01*
G01X246202Y112648D02*
G01X247777Y112648D01*
G01X249936Y110490D01*
G01X249936Y108077D01*
G01X247650Y105791D01*
G01X224409Y105791D01*
G01X219837Y101219D01*
G01X219583Y101219D01*
G01X225475Y110108D02*
G01X214045Y98679D01*
G01X213233Y98679D01*
G01X225475Y110108D02*
G01X246202Y110108D01*
G01X204749Y110108D02*
G01X213233Y101625D01*
G01X213233Y98679D01*
G01X184023Y110108D02*
G01X192709Y101422D01*
G01X192709Y98679D01*
G01X163296Y110108D02*
G01X166598Y106807D01*
G01X168529Y106807D01*
G01X172186Y103149D01*
G01X172186Y98679D01*
G01X142570Y112648D02*
G01X144399Y112648D01*
G01X147193Y109855D01*
G01X145542Y108204D01*
G01X139446Y108204D01*
G01X137490Y106248D01*
G01X137490Y101219D01*
G01X121843Y112649D02*
G01X118287Y116205D01*
G01X114808Y116205D01*
G01X104648Y106045D01*
G01X80772Y106045D01*
G01X75920Y101219D01*
G01X149949Y114427D02*
G01X147282Y117094D01*
G01X131572Y117094D01*
G01X129337Y114859D01*
G01X129337Y114427D01*
G01X142570Y112648D02*
G01X163296Y112648D01*
G01X137337Y114427D02*
G01X138049Y113715D01*
G01X138049Y111633D01*
G01X138303Y111378D01*
G01X142570Y111378D01*
G01X110617Y98679D02*
G01X110744Y98805D01*
G01X110744Y101981D01*
G01X113411Y104648D01*
G01X119507Y104648D01*
G01X123063Y101092D01*
G01X126365Y101092D01*
G01X135381Y110108D01*
G01X142570Y110108D01*
G01X10795Y78359D02*
G01X10795Y60325D01*
G01X12954Y58166D01*
G01X8001Y98679D02*
G01X8001Y81153D01*
G01X10795Y78359D01*
G01X12954Y58166D02*
G01X5588Y50800D01*
G01X5588Y23114D01*
G01X11140Y17561D01*
G01X36957Y37338D02*
G01X34798Y35179D01*
G01X34798Y17680D01*
G01X54888Y114427D02*
G01X57936Y111378D01*
G01X59664Y111378D01*
G01X49047Y98679D02*
G01X49047Y99161D01*
G01X45212Y102997D01*
G01X38938Y110108D02*
G01X38938Y109524D01*
G01X43307Y105156D01*
G01X34276Y114427D02*
G01X37324Y111378D01*
G01X38938Y111378D01*
G01X28002Y108966D02*
G01X28002Y112700D01*
G01X26276Y114427D01*
G01X8001Y98679D02*
G01X8001Y112838D01*
G01X8065Y112903D01*
G01X14351Y101219D02*
G01X18796Y105664D01*
G01X29972Y105664D01*
G01X29972Y110122D01*
G01X34276Y114427D01*
G01X19304Y60706D02*
G01X19431Y60706D01*
G01X26797Y68072D01*
G01X26797Y87376D01*
G01X22098Y92075D01*
G01X22098Y103886D01*
G01X44347Y103886D01*
G01X54888Y114427D01*
G01X120466Y58166D02*
G01X120466Y46919D01*
G01X127000Y40386D01*
G01X127000Y25781D01*
G01X138176Y14605D01*
G01X138176Y8382D01*
G01X141605Y4953D01*
G01X118110Y37338D02*
G01X123698Y37338D01*
G01X126492Y34544D01*
G01X126492Y24638D01*
G01X137414Y13716D01*
G01X137414Y6604D01*
G01X139065Y4953D01*
G01X118364Y17272D02*
G01X118364Y5969D01*
G01X121539Y2794D01*
G01X154686Y2794D01*
G01X156845Y4953D01*
G01X77533Y37338D02*
G01X57245Y37338D01*
G01X97821Y37338D02*
G01X77533Y37338D01*
G01X118110Y37338D02*
G01X97821Y37338D01*
G01X178974Y37338D02*
G01X190246Y37338D01*
G01X197866Y44958D01*
G01X217678Y44958D01*
G01X225298Y37338D01*
G01X158686Y37338D02*
G01X178974Y37338D01*
G01X138398Y37338D02*
G01X158686Y37338D01*
G01X202198Y58166D02*
G01X231139Y58166D01*
G01X181765Y58166D02*
G01X202198Y58166D01*
G01X161332Y58166D02*
G01X181765Y58166D01*
G01X140899Y58166D02*
G01X161332Y58166D01*
G01X100033Y58166D02*
G01X120466Y58166D01*
G01X79600Y58166D02*
G01X100033Y58166D01*
G01X59167Y58166D02*
G01X79600Y58166D01*
G01X38735Y58166D02*
G01X59167Y58166D01*
G01X49047Y98679D02*
G01X28524Y98679D01*
G01X69570Y98679D02*
G01X49047Y98679D01*
G01X90093Y98679D02*
G01X69570Y98679D01*
G01X110617Y98679D02*
G01X90093Y98679D01*
G01X192709Y98679D02*
G01X213233Y98679D01*
G01X172186Y98679D02*
G01X192709Y98679D01*
G01X151663Y98679D02*
G01X172186Y98679D01*
G01X131140Y98679D02*
G01X151663Y98679D01*
G01X199432Y78359D02*
G01X219964Y78359D01*
G01X178816Y78359D02*
G01X199432Y78359D01*
G01X158241Y78359D02*
G01X178816Y78359D01*
G01X137837Y78359D02*
G01X158241Y78359D01*
G01X96774Y78359D02*
G01X117305Y78359D01*
G01X76242Y78359D02*
G01X96774Y78359D01*
G01X55710Y78359D02*
G01X76242Y78359D01*
G01X35179Y78359D02*
G01X55710Y78359D01*
G54D12*
G01X90297Y13734D02*
G01X90297Y11794D01*
G01X89003Y13734D02*
G01X89003Y11794D01*
G01X90297Y12810D02*
G01X89003Y12810D01*
G01X87008Y13272D02*
G01X87101Y13457D01*
G01X87285Y13642D01*
G01X87470Y13734D01*
G01X87840Y13734D01*
G01X88024Y13642D01*
G01X88209Y13457D01*
G01X88301Y13272D01*
G01X88394Y12995D01*
G01X88394Y12533D01*
G01X88301Y12256D01*
G01X88209Y12071D01*
G01X88024Y11887D01*
G01X87840Y11794D01*
G01X87470Y11794D01*
G01X87285Y11887D01*
G01X87101Y12071D01*
G01X87008Y12256D01*
G01X85198Y13087D02*
G01X85290Y12810D01*
G01X85475Y12626D01*
G01X85752Y12533D01*
G01X85845Y12533D01*
G01X86122Y12626D01*
G01X86306Y12810D01*
G01X86399Y13087D01*
G01X86399Y13180D01*
G01X86306Y13457D01*
G01X86122Y13642D01*
G01X85845Y13734D01*
G01X85752Y13734D01*
G01X85475Y13642D01*
G01X85290Y13457D01*
G01X85198Y13087D01*
G01X85198Y12626D01*
G01X85290Y12164D01*
G01X85475Y11887D01*
G01X85752Y11794D01*
G01X85937Y11794D01*
G01X86214Y11887D01*
G01X86306Y12071D01*
G01X84588Y13365D02*
G01X84404Y13457D01*
G01X84127Y13734D01*
G01X84127Y11794D01*
G01X81854Y14103D02*
G01X83517Y11148D01*
G01X81153Y13272D02*
G01X81153Y13365D01*
G01X81060Y13549D01*
G01X80968Y13642D01*
G01X80783Y13734D01*
G01X80414Y13734D01*
G01X80229Y13642D01*
G01X80137Y13549D01*
G01X80044Y13365D01*
G01X80044Y13180D01*
G01X80137Y12995D01*
G01X80321Y12718D01*
G01X81245Y11794D01*
G01X79952Y11794D01*
G01X78788Y13734D02*
G01X79065Y13642D01*
G01X79250Y13365D01*
G01X79342Y12903D01*
G01X79342Y12626D01*
G01X79250Y12164D01*
G01X79065Y11887D01*
G01X78788Y11794D01*
G01X78603Y11794D01*
G01X78326Y11887D01*
G01X78141Y12164D01*
G01X78049Y12626D01*
G01X78049Y12903D01*
G01X78141Y13365D01*
G01X78326Y13642D01*
G01X78603Y13734D01*
G01X78788Y13734D01*
G01X76885Y13734D02*
G01X77162Y13642D01*
G01X77347Y13365D01*
G01X77439Y12903D01*
G01X77439Y12626D01*
G01X77347Y12164D01*
G01X77162Y11887D01*
G01X76885Y11794D01*
G01X76701Y11794D01*
G01X76423Y11887D01*
G01X76239Y12164D01*
G01X76146Y12626D01*
G01X76146Y12903D01*
G01X76239Y13365D01*
G01X76423Y13642D01*
G01X76701Y13734D01*
G01X76885Y13734D01*
G01X74983Y13734D02*
G01X75260Y13642D01*
G01X75444Y13365D01*
G01X75537Y12903D01*
G01X75537Y12626D01*
G01X75444Y12164D01*
G01X75260Y11887D01*
G01X74983Y11794D01*
G01X74798Y11794D01*
G01X74521Y11887D01*
G01X74336Y12164D01*
G01X74244Y12626D01*
G01X74244Y12903D01*
G01X74336Y13365D01*
G01X74521Y13642D01*
G01X74798Y13734D01*
G01X74983Y13734D01*
G01X72212Y12626D02*
G01X70549Y12626D01*
G01X68517Y13734D02*
G01X68517Y11794D01*
G01X68517Y13734D02*
G01X67871Y13734D01*
G01X67594Y13642D01*
G01X67409Y13457D01*
G01X67316Y13272D01*
G01X67224Y12995D01*
G01X67224Y12533D01*
G01X67316Y12256D01*
G01X67409Y12071D01*
G01X67594Y11887D01*
G01X67871Y11794D01*
G01X68517Y11794D01*
G01X66614Y13734D02*
G01X66522Y13642D01*
G01X66430Y13734D01*
G01X66522Y13826D01*
G01X66614Y13734D01*
G01X66522Y13087D02*
G01X66522Y11794D01*
G01X64712Y13087D02*
G01X64712Y11610D01*
G01X64804Y11333D01*
G01X64897Y11240D01*
G01X65081Y11148D01*
G01X65358Y11148D01*
G01X65543Y11240D01*
G01X64712Y12810D02*
G01X64897Y12995D01*
G01X65081Y13087D01*
G01X65358Y13087D01*
G01X65543Y12995D01*
G01X65728Y12810D01*
G01X65820Y12533D01*
G01X65820Y12349D01*
G01X65728Y12071D01*
G01X65543Y11887D01*
G01X65358Y11794D01*
G01X65081Y11794D01*
G01X64897Y11887D01*
G01X64712Y12071D01*
G01X64102Y13734D02*
G01X64010Y13642D01*
G01X63917Y13734D01*
G01X64010Y13826D01*
G01X64102Y13734D01*
G01X64010Y13087D02*
G01X64010Y11794D01*
G01X63031Y13734D02*
G01X63031Y12164D01*
G01X62938Y11887D01*
G01X62754Y11794D01*
G01X62569Y11794D01*
G01X63308Y13087D02*
G01X62661Y13087D01*
G01X60851Y13087D02*
G01X60851Y11794D01*
G01X60851Y12810D02*
G01X61036Y12995D01*
G01X61220Y13087D01*
G01X61498Y13087D01*
G01X61682Y12995D01*
G01X61867Y12810D01*
G01X61959Y12533D01*
G01X61959Y12349D01*
G01X61867Y12071D01*
G01X61682Y11887D01*
G01X61498Y11794D01*
G01X61220Y11794D01*
G01X61036Y11887D01*
G01X60851Y12071D01*
G01X60241Y13734D02*
G01X60241Y11794D01*
G01X58339Y13457D02*
G01X58523Y13642D01*
G01X58801Y13734D01*
G01X59170Y13734D01*
G01X59447Y13642D01*
G01X59632Y13457D01*
G01X59632Y13272D01*
G01X59539Y13087D01*
G01X59447Y12995D01*
G01X59262Y12903D01*
G01X58708Y12718D01*
G01X58523Y12626D01*
G01X58431Y12533D01*
G01X58339Y12349D01*
G01X58339Y12071D01*
G01X58523Y11887D01*
G01X58801Y11794D01*
G01X59170Y11794D01*
G01X59447Y11887D01*
G01X59632Y12071D01*
G01X56621Y12810D02*
G01X56805Y12995D01*
G01X56990Y13087D01*
G01X57267Y13087D01*
G01X57452Y12995D01*
G01X57637Y12810D01*
G01X57729Y12533D01*
G01X57729Y12349D01*
G01X57637Y12071D01*
G01X57452Y11887D01*
G01X57267Y11794D01*
G01X56990Y11794D01*
G01X56805Y11887D01*
G01X56621Y12071D01*
G01X56011Y13087D02*
G01X56011Y11794D01*
G01X56011Y12533D02*
G01X55919Y12810D01*
G01X55734Y12995D01*
G01X55549Y13087D01*
G01X55272Y13087D01*
G01X54663Y13734D02*
G01X54570Y13642D01*
G01X54478Y13734D01*
G01X54570Y13826D01*
G01X54663Y13734D01*
G01X54570Y13087D02*
G01X54570Y11794D01*
G01X53868Y13734D02*
G01X53868Y11794D01*
G01X53868Y12810D02*
G01X53684Y12995D01*
G01X53499Y13087D01*
G01X53222Y13087D01*
G01X53037Y12995D01*
G01X52852Y12810D01*
G01X52760Y12533D01*
G01X52760Y12349D01*
G01X52852Y12071D01*
G01X53037Y11887D01*
G01X53222Y11794D01*
G01X53499Y11794D01*
G01X53684Y11887D01*
G01X53868Y12071D01*
G01X52150Y12533D02*
G01X51042Y12533D01*
G01X51042Y12718D01*
G01X51134Y12903D01*
G01X51227Y12995D01*
G01X51411Y13087D01*
G01X51689Y13087D01*
G01X51873Y12995D01*
G01X52058Y12810D01*
G01X52150Y12533D01*
G01X52150Y12349D01*
G01X52058Y12071D01*
G01X51873Y11887D01*
G01X51689Y11794D01*
G01X51411Y11794D01*
G01X51227Y11887D01*
G01X51042Y12071D01*
G01X188341Y18051D02*
G01X188341Y16113D01*
G01X188341Y18051D02*
G01X187510Y18051D01*
G01X187233Y17960D01*
G01X187139Y17868D01*
G01X187048Y17683D01*
G01X187048Y17498D01*
G01X187139Y17312D01*
G01X187233Y17221D01*
G01X187510Y17129D01*
G01X188341Y17129D02*
G01X187510Y17129D01*
G01X187233Y17035D01*
G01X187139Y16944D01*
G01X187048Y16758D01*
G01X187048Y16482D01*
G01X187139Y16296D01*
G01X187233Y16205D01*
G01X187510Y16113D01*
G01X188341Y16113D01*
G01X185699Y18051D02*
G01X186438Y16113D01*
G01X185699Y18051D02*
G01X184960Y16113D01*
G01X186161Y16758D02*
G01X185237Y16758D01*
G01X183057Y17774D02*
G01X183243Y17960D01*
G01X183520Y18051D01*
G01X183888Y18051D01*
G01X184165Y17960D01*
G01X184350Y17774D01*
G01X184350Y17589D01*
G01X184259Y17406D01*
G01X184165Y17312D01*
G01X183982Y17221D01*
G01X183426Y17035D01*
G01X183243Y16944D01*
G01X183149Y16852D01*
G01X183057Y16667D01*
G01X183057Y16390D01*
G01X183243Y16205D01*
G01X183520Y16113D01*
G01X183888Y16113D01*
G01X184165Y16205D01*
G01X184350Y16390D01*
G01X182448Y18051D02*
G01X182448Y16113D01*
G01X180454Y17589D02*
G01X180545Y17774D01*
G01X180731Y17960D01*
G01X180914Y18051D01*
G01X181284Y18051D01*
G01X181470Y17960D01*
G01X181653Y17774D01*
G01X181747Y17589D01*
G01X181838Y17312D01*
G01X181838Y16852D01*
G01X181747Y16573D01*
G01X181653Y16390D01*
G01X181470Y16205D01*
G01X181284Y16113D01*
G01X180914Y16113D01*
G01X180731Y16205D01*
G01X180545Y16390D01*
G01X180454Y16573D01*
G01X186956Y14541D02*
G01X187048Y14726D01*
G01X187233Y14912D01*
G01X187416Y15003D01*
G01X187787Y15003D01*
G01X187972Y14912D01*
G01X188155Y14726D01*
G01X188249Y14541D01*
G01X188341Y14264D01*
G01X188341Y13804D01*
G01X188249Y13525D01*
G01X188155Y13342D01*
G01X187972Y13157D01*
G01X187787Y13065D01*
G01X187416Y13065D01*
G01X187233Y13157D01*
G01X187048Y13342D01*
G01X186956Y13525D01*
G01X186347Y15003D02*
G01X186347Y13065D01*
G01X186347Y15003D02*
G01X185513Y15003D01*
G01X185237Y14912D01*
G01X185145Y14820D01*
G01X185051Y14635D01*
G01X185051Y14358D01*
G01X185145Y14173D01*
G01X185237Y14081D01*
G01X185513Y13987D01*
G01X186347Y13987D01*
G01X182780Y15374D02*
G01X184442Y12418D01*
G01X182171Y15003D02*
G01X182171Y13065D01*
G01X182171Y15003D02*
G01X181432Y13065D01*
G01X180693Y15003D02*
G01X181432Y13065D01*
G01X180693Y15003D02*
G01X180693Y13065D01*
G01X178569Y14541D02*
G01X178569Y14635D01*
G01X178475Y14820D01*
G01X178384Y14912D01*
G01X178198Y15003D01*
G01X177830Y15003D01*
G01X177645Y14912D01*
G01X177553Y14820D01*
G01X177459Y14635D01*
G01X177459Y14450D01*
G01X177553Y14264D01*
G01X177736Y13987D01*
G01X178661Y13065D01*
G01X177368Y13065D01*
G01X176667Y13525D02*
G01X176758Y13434D01*
G01X176667Y13342D01*
G01X176573Y13434D01*
G01X176667Y13525D01*
G01X175872Y14541D02*
G01X175872Y14635D01*
G01X175780Y14820D01*
G01X175686Y14912D01*
G01X175501Y15003D01*
G01X175133Y15003D01*
G01X174947Y14912D01*
G01X174856Y14820D01*
G01X174764Y14635D01*
G01X174764Y14450D01*
G01X174856Y14264D01*
G01X175041Y13987D01*
G01X175963Y13065D01*
G01X174670Y13065D01*
G01X171531Y15003D02*
G01X172453Y15003D01*
G01X172547Y14173D01*
G01X172453Y14264D01*
G01X172176Y14358D01*
G01X171899Y14358D01*
G01X171622Y14264D01*
G01X171437Y14081D01*
G01X171345Y13804D01*
G01X171345Y13619D01*
G01X171437Y13342D01*
G01X171622Y13157D01*
G01X171899Y13065D01*
G01X172176Y13065D01*
G01X172453Y13157D01*
G01X172547Y13248D01*
G01X172638Y13434D01*
G01X169628Y14726D02*
G01X169720Y14912D01*
G01X169997Y15003D01*
G01X170182Y15003D01*
G01X170459Y14912D01*
G01X170644Y14635D01*
G01X170736Y14173D01*
G01X170736Y13710D01*
G01X170644Y13342D01*
G01X170459Y13157D01*
G01X170182Y13065D01*
G01X170091Y13065D01*
G01X169811Y13157D01*
G01X169628Y13342D01*
G01X169534Y13619D01*
G01X169534Y13710D01*
G01X169628Y13987D01*
G01X169811Y14173D01*
G01X170091Y14264D01*
G01X170182Y14264D01*
G01X170459Y14173D01*
G01X170644Y13987D01*
G01X170736Y13710D01*
G01X168925Y15003D02*
G01X168925Y13065D01*
G01X167632Y15003D02*
G01X168925Y13710D01*
G01X168465Y14173D02*
G01X167632Y13065D01*
G01X164492Y14081D02*
G01X164678Y14264D01*
G01X164861Y14358D01*
G01X165138Y14358D01*
G01X165323Y14264D01*
G01X165508Y14081D01*
G01X165600Y13804D01*
G01X165600Y13619D01*
G01X165508Y13342D01*
G01X165323Y13157D01*
G01X165138Y13065D01*
G01X164861Y13065D01*
G01X164678Y13157D01*
G01X164492Y13342D01*
G01X163421Y14358D02*
G01X163606Y14264D01*
G01X163791Y14081D01*
G01X163883Y13804D01*
G01X163883Y13619D01*
G01X163791Y13342D01*
G01X163606Y13157D01*
G01X163421Y13065D01*
G01X163144Y13065D01*
G01X162958Y13157D01*
G01X162775Y13342D01*
G01X162681Y13619D01*
G01X162681Y13804D01*
G01X162775Y14081D01*
G01X162958Y14264D01*
G01X163144Y14358D01*
G01X163421Y14358D01*
G01X162072Y14358D02*
G01X162072Y13065D01*
G01X162072Y13987D02*
G01X161795Y14264D01*
G01X161610Y14358D01*
G01X161333Y14358D01*
G01X161150Y14264D01*
G01X161056Y13987D01*
G01X161056Y13065D01*
G01X161056Y13987D02*
G01X160779Y14264D01*
G01X160594Y14358D01*
G01X160317Y14358D01*
G01X160134Y14264D01*
G01X160040Y13987D01*
G01X160040Y13065D01*
G01X159430Y14358D02*
G01X159430Y12418D01*
G01X159430Y14081D02*
G01X159245Y14264D01*
G01X159062Y14358D01*
G01X158785Y14358D01*
G01X158600Y14264D01*
G01X158414Y14081D01*
G01X158323Y13804D01*
G01X158323Y13619D01*
G01X158414Y13342D01*
G01X158600Y13157D01*
G01X158785Y13065D01*
G01X159062Y13065D01*
G01X159245Y13157D01*
G01X159430Y13342D01*
G01X156603Y14358D02*
G01X156603Y13065D01*
G01X156603Y14081D02*
G01X156789Y14264D01*
G01X156974Y14358D01*
G01X157251Y14358D01*
G01X157436Y14264D01*
G01X157619Y14081D01*
G01X157713Y13804D01*
G01X157713Y13619D01*
G01X157619Y13342D01*
G01X157436Y13157D01*
G01X157251Y13065D01*
G01X156974Y13065D01*
G01X156789Y13157D01*
G01X156603Y13342D01*
G01X155717Y15003D02*
G01X155717Y13434D01*
G01X155625Y13157D01*
G01X155440Y13065D01*
G01X155257Y13065D01*
G01X155994Y14358D02*
G01X155348Y14358D01*
G01X154647Y15003D02*
G01X154553Y14912D01*
G01X154462Y15003D01*
G01X154553Y15097D01*
G01X154647Y15003D01*
G01X154553Y14358D02*
G01X154553Y13065D01*
G01X153852Y15003D02*
G01X153852Y13065D01*
G01X153852Y14081D02*
G01X153667Y14264D01*
G01X153482Y14358D01*
G01X153205Y14358D01*
G01X153022Y14264D01*
G01X152836Y14081D01*
G01X152742Y13804D01*
G01X152742Y13619D01*
G01X152836Y13342D01*
G01X153022Y13157D01*
G01X153205Y13065D01*
G01X153482Y13065D01*
G01X153667Y13157D01*
G01X153852Y13342D01*
G01X152133Y15003D02*
G01X152133Y13065D01*
G01X151523Y13804D02*
G01X150416Y13804D01*
G01X150416Y13987D01*
G01X150507Y14173D01*
G01X150601Y14264D01*
G01X150787Y14358D01*
G01X151063Y14358D01*
G01X151246Y14264D01*
G01X151432Y14081D01*
G01X151523Y13804D01*
G01X151523Y13619D01*
G01X151432Y13342D01*
G01X151246Y13157D01*
G01X151063Y13065D01*
G01X150787Y13065D01*
G01X150601Y13157D01*
G01X150416Y13342D01*
G54D14*
G01X28524Y98679D03*
G01X34874Y101219D03*
G01X49047Y98679D03*
G01X55397Y101219D03*
G01X69570Y98679D03*
G01X75920Y101219D03*
G01X90093Y98679D03*
G01X96443Y101219D03*
G01X110617Y98679D03*
G01X116967Y101219D03*
G01X131140Y98679D03*
G01X137490Y101219D03*
G01X151663Y98679D03*
G01X158013Y101219D03*
G01X172186Y98679D03*
G01X178536Y101219D03*
G01X192709Y98679D03*
G01X199059Y101219D03*
G54D15*
G01X139065Y4953D03*
G01X141605Y4953D03*
G01X144145Y4953D03*
G01X146685Y4953D03*
G01X149225Y4953D03*
G01X151765Y4953D03*
G01X154305Y4953D03*
G01X156845Y4953D03*
G01X98933Y5207D03*
G01X101473Y5207D03*
G01X104013Y5207D03*
G01X106553Y5207D03*
G01X109093Y5207D03*
G54D14*
G01X35179Y78359D03*
G01X41529Y80899D03*
G01X38735Y58166D03*
G01X45085Y60706D03*
G01X12954Y37338D03*
G01X19304Y39878D03*
G01X57245Y37338D03*
G01X63595Y39878D03*
G01X59167Y58166D03*
G01X65517Y60706D03*
G01X55710Y78359D03*
G01X62060Y80899D03*
G01X77533Y37338D03*
G01X83883Y39878D03*
G01X79600Y58166D03*
G01X85950Y60706D03*
G01X76242Y78359D03*
G01X82592Y80899D03*
G01X97821Y37338D03*
G01X104171Y39878D03*
G01X100033Y58166D03*
G01X106383Y60706D03*
G01X96774Y78359D03*
G01X103124Y80899D03*
G01X118110Y37338D03*
G01X124460Y39878D03*
G01X120466Y58166D03*
G01X126816Y60706D03*
G01X117305Y78359D03*
G01X123655Y80899D03*
G01X138398Y37338D03*
G01X144748Y39878D03*
G01X140899Y58166D03*
G01X147249Y60706D03*
G01X137837Y78359D03*
G01X144187Y80899D03*
G01X158686Y37338D03*
G01X165036Y39878D03*
G01X161332Y58166D03*
G01X167682Y60706D03*
G01X158241Y78359D03*
G01X164591Y80899D03*
G01X178974Y37338D03*
G01X185324Y39878D03*
G01X181765Y58166D03*
G01X188115Y60706D03*
G01X178816Y78359D03*
G01X185166Y80899D03*
G01X225298Y37338D03*
G01X231648Y39878D03*
G01X202198Y58166D03*
G01X208548Y60706D03*
G01X199432Y78359D03*
G01X205782Y80899D03*
G01X118364Y17272D03*
G01X124714Y19812D03*
G01X231139Y58166D03*
G01X237489Y60706D03*
G01X219964Y78359D03*
G01X226314Y80899D03*
G54D16*
G01X28194Y4826D03*
G54D17*
G01X25654Y4826D03*
G54D14*
G01X8001Y98679D03*
G01X14351Y101219D03*
G01X10795Y78359D03*
G01X17145Y80899D03*
G01X12954Y58166D03*
G01X19304Y60706D03*
G01X36957Y37338D03*
G01X43307Y39878D03*
G01X34798Y17272D03*
G01X41148Y19812D03*
G01X11430Y17272D03*
G01X17780Y19812D03*
G01X235077Y17272D03*
G01X241427Y19812D03*
G01X213614Y17272D03*
G01X219964Y19812D03*
G01X199263Y37338D03*
G01X205613Y39878D03*
G01X213233Y98679D03*
G01X219583Y101219D03*
G01X235331Y98679D03*
G01X241681Y101219D03*
G54D18*
G01X204749Y112648D03*
G01X101092Y113157D03*
G01X80391Y112649D03*
G01X246202Y112648D03*
G01X225475Y112648D03*
G01X121843Y112649D03*
G01X184023Y112648D03*
G01X163296Y112648D03*
G01X142570Y112648D03*
G01X59664Y112648D03*
G01X38938Y112648D03*
G54D19*
G01X116725Y114427D03*
G01X108725Y114427D03*
G01X34276Y114427D03*
G01X26276Y114427D03*
G01X240397Y114427D03*
G01X232397Y114427D03*
G01X219785Y114427D03*
G01X211785Y114427D03*
G01X75500Y114427D03*
G01X67501Y114427D03*
G01X54888Y114427D03*
G01X46888Y114427D03*
G01X137337Y114427D03*
G01X129337Y114427D03*
G01X157949Y114427D03*
G01X149949Y114427D03*
G01X178561Y114427D03*
G01X170561Y114427D03*
G01X199173Y114427D03*
G01X191173Y114427D03*
G01X16064Y112903D03*
G01X8065Y112903D03*
G01X28002Y108966D03*
G01X20003Y108966D03*
G54D13*
G01X36195Y110363D03*
G01X34874Y107170D03*
G01X124714Y102723D03*
G01X110236Y26035D03*
G01X106553Y100711D03*
G01X113538Y108585D03*
G01X122936Y117983D03*
G01X159698Y116078D03*
G01X158496Y119380D03*
G01X52324Y117983D03*
G01X48514Y110363D03*
G01X80264Y106680D03*
G01X205232Y106680D03*
G01X160528Y117856D03*
G01X153543Y117729D03*
G01X219456Y22860D03*
G01X222758Y24765D03*
G01X177546Y106426D03*
G01X177546Y109093D03*
G01X45212Y102997D03*
G01X43307Y105156D03*
G01X117856Y118237D03*
G01X171577Y111125D03*
G01X171577Y106680D03*
G01X86995Y114427D03*
G01X142367Y104902D03*
G01X147206Y104902D03*
G01X208534Y109474D03*
G54D20*
G01X205099Y111378D02*
G01X204399Y111378D01*
G01X205099Y110108D02*
G01X204399Y110108D01*
G01X101441Y111887D02*
G01X100741Y111887D01*
G01X101441Y110617D02*
G01X100741Y110617D01*
G01X80740Y111379D02*
G01X80040Y111379D01*
G01X80740Y110109D02*
G01X80040Y110109D01*
G01X246552Y111378D02*
G01X245852Y111378D01*
G01X246552Y110108D02*
G01X245852Y110108D01*
G01X225825Y111378D02*
G01X225125Y111378D01*
G01X225825Y110108D02*
G01X225125Y110108D01*
G01X122193Y111379D02*
G01X121493Y111379D01*
G01X122193Y110109D02*
G01X121493Y110109D01*
G01X184372Y111378D02*
G01X183672Y111378D01*
G01X184372Y110108D02*
G01X183672Y110108D01*
G01X163646Y111378D02*
G01X162946Y111378D01*
G01X163646Y110108D02*
G01X162946Y110108D01*
G01X142920Y111378D02*
G01X142220Y111378D01*
G01X142920Y110108D02*
G01X142220Y110108D01*
G01X60014Y111378D02*
G01X59314Y111378D01*
G01X60014Y110108D02*
G01X59314Y110108D01*
G01X39288Y111378D02*
G01X38588Y111378D01*
G01X39288Y110108D02*
G01X38588Y110108D01*
M00*
M02*
