G04 Layer: TopSolderMaskLayer*
G04 EasyEDA v6.4.5, 2020-09-13T21:27:01+03:00*
G04 63316e0368094ceea4197b1f53c500b6,10*
G04 Gerber Generator version 0.2*
G04 Scale: 100 percent, Rotated: No, Reflected: No *
G04 Dimensions in millimeters *
G04 leading zeros omitted , absolute positions ,3 integer and 3 decimal *
%FSLAX33Y33*%
%MOMM*%
G90*
G71D02*

%ADD22C,1.103198*%
%ADD23C,2.743200*%
%ADD24C,2.082800*%
%ADD25R,1.778000X1.778000*%
%ADD26C,1.778000*%
%ADD28C,2.003196*%

%LPD*%
G54D22*
G01X205099Y111378D02*
G01X204399Y111378D01*
G01X205099Y110108D02*
G01X204399Y110108D01*
G01X101441Y111887D02*
G01X100741Y111887D01*
G01X101441Y110617D02*
G01X100741Y110617D01*
G01X80740Y111379D02*
G01X80040Y111379D01*
G01X80740Y110109D02*
G01X80040Y110109D01*
G01X246552Y111378D02*
G01X245852Y111378D01*
G01X246552Y110108D02*
G01X245852Y110108D01*
G01X225825Y111378D02*
G01X225125Y111378D01*
G01X225825Y110108D02*
G01X225125Y110108D01*
G01X122193Y111379D02*
G01X121493Y111379D01*
G01X122193Y110109D02*
G01X121493Y110109D01*
G01X184372Y111378D02*
G01X183672Y111378D01*
G01X184372Y110108D02*
G01X183672Y110108D01*
G01X163646Y111378D02*
G01X162946Y111378D01*
G01X163646Y110108D02*
G01X162946Y110108D01*
G01X142920Y111378D02*
G01X142220Y111378D01*
G01X142920Y110108D02*
G01X142220Y110108D01*
G01X60014Y111378D02*
G01X59314Y111378D01*
G01X60014Y110108D02*
G01X59314Y110108D01*
G01X39288Y111378D02*
G01X38588Y111378D01*
G01X39288Y110108D02*
G01X38588Y110108D01*
G54D23*
G01X28524Y98679D03*
G01X34874Y101219D03*
G01X49047Y98679D03*
G01X55397Y101219D03*
G01X69570Y98679D03*
G01X75920Y101219D03*
G01X90093Y98679D03*
G01X96443Y101219D03*
G01X110617Y98679D03*
G01X116967Y101219D03*
G01X131140Y98679D03*
G01X137490Y101219D03*
G01X151663Y98679D03*
G01X158013Y101219D03*
G01X172186Y98679D03*
G01X178536Y101219D03*
G01X192709Y98679D03*
G01X199059Y101219D03*
G54D24*
G01X139065Y4953D03*
G01X141605Y4953D03*
G01X144145Y4953D03*
G01X146685Y4953D03*
G01X149225Y4953D03*
G01X151765Y4953D03*
G01X154305Y4953D03*
G01X156845Y4953D03*
G01X98933Y5207D03*
G01X101473Y5207D03*
G01X104013Y5207D03*
G01X106553Y5207D03*
G01X109093Y5207D03*
G54D23*
G01X35179Y78359D03*
G01X41529Y80899D03*
G01X38735Y58166D03*
G01X45085Y60706D03*
G01X12954Y37338D03*
G01X19304Y39878D03*
G01X57245Y37338D03*
G01X63595Y39878D03*
G01X59167Y58166D03*
G01X65517Y60706D03*
G01X55710Y78359D03*
G01X62060Y80899D03*
G01X77533Y37338D03*
G01X83883Y39878D03*
G01X79600Y58166D03*
G01X85950Y60706D03*
G01X76242Y78359D03*
G01X82592Y80899D03*
G01X97821Y37338D03*
G01X104171Y39878D03*
G01X100033Y58166D03*
G01X106383Y60706D03*
G01X96774Y78359D03*
G01X103124Y80899D03*
G01X118110Y37338D03*
G01X124460Y39878D03*
G01X120466Y58166D03*
G01X126816Y60706D03*
G01X117305Y78359D03*
G01X123655Y80899D03*
G01X138398Y37338D03*
G01X144748Y39878D03*
G01X140899Y58166D03*
G01X147249Y60706D03*
G01X137837Y78359D03*
G01X144187Y80899D03*
G01X158686Y37338D03*
G01X165036Y39878D03*
G01X161332Y58166D03*
G01X167682Y60706D03*
G01X158241Y78359D03*
G01X164591Y80899D03*
G01X178974Y37338D03*
G01X185324Y39878D03*
G01X181765Y58166D03*
G01X188115Y60706D03*
G01X178816Y78359D03*
G01X185166Y80899D03*
G01X225298Y37338D03*
G01X231648Y39878D03*
G01X202198Y58166D03*
G01X208548Y60706D03*
G01X199432Y78359D03*
G01X205782Y80899D03*
G01X118364Y17272D03*
G01X124714Y19812D03*
G01X231139Y58166D03*
G01X237489Y60706D03*
G01X219964Y78359D03*
G01X226314Y80899D03*
G54D25*
G01X28194Y4826D03*
G54D26*
G01X25654Y4826D03*
G54D23*
G01X8001Y98679D03*
G01X14351Y101219D03*
G01X10795Y78359D03*
G01X17145Y80899D03*
G01X12954Y58166D03*
G01X19304Y60706D03*
G01X36957Y37338D03*
G01X43307Y39878D03*
G01X34798Y17272D03*
G01X41148Y19812D03*
G01X11430Y17272D03*
G01X17780Y19812D03*
G01X235077Y17272D03*
G01X241427Y19812D03*
G01X213614Y17272D03*
G01X219964Y19812D03*
G01X199263Y37338D03*
G01X205613Y39878D03*
G01X213233Y98679D03*
G01X219583Y101219D03*
G01X235331Y98679D03*
G01X241681Y101219D03*
G36*
G01X203847Y112097D02*
G01X203847Y113200D01*
G01X205651Y113200D01*
G01X205651Y112097D01*
G01X203847Y112097D01*
G37*
G36*
G01X100190Y112605D02*
G01X100190Y113708D01*
G01X101993Y113708D01*
G01X101993Y112605D01*
G01X100190Y112605D01*
G37*
G36*
G01X79489Y112097D02*
G01X79489Y113200D01*
G01X81292Y113200D01*
G01X81292Y112097D01*
G01X79489Y112097D01*
G37*
G36*
G01X245300Y112097D02*
G01X245300Y113200D01*
G01X247103Y113200D01*
G01X247103Y112097D01*
G01X245300Y112097D01*
G37*
G36*
G01X224574Y112097D02*
G01X224574Y113200D01*
G01X226377Y113200D01*
G01X226377Y112097D01*
G01X224574Y112097D01*
G37*
G36*
G01X120942Y112097D02*
G01X120942Y113200D01*
G01X122745Y113200D01*
G01X122745Y112097D01*
G01X120942Y112097D01*
G37*
G36*
G01X183121Y112097D02*
G01X183121Y113200D01*
G01X184924Y113200D01*
G01X184924Y112097D01*
G01X183121Y112097D01*
G37*
G36*
G01X162394Y112097D02*
G01X162394Y113200D01*
G01X164198Y113200D01*
G01X164198Y112097D01*
G01X162394Y112097D01*
G37*
G36*
G01X141668Y112097D02*
G01X141668Y113200D01*
G01X143471Y113200D01*
G01X143471Y112097D01*
G01X141668Y112097D01*
G37*
G36*
G01X58762Y112097D02*
G01X58762Y113200D01*
G01X60566Y113200D01*
G01X60566Y112097D01*
G01X58762Y112097D01*
G37*
G36*
G01X38036Y112097D02*
G01X38036Y113200D01*
G01X39839Y113200D01*
G01X39839Y112097D01*
G01X38036Y112097D01*
G37*
G54D28*
G01X116725Y114427D03*
G01X108725Y114427D03*
G01X34276Y114427D03*
G01X26276Y114427D03*
G01X240397Y114427D03*
G01X232397Y114427D03*
G01X219785Y114427D03*
G01X211785Y114427D03*
G01X75500Y114427D03*
G01X67501Y114427D03*
G01X54888Y114427D03*
G01X46888Y114427D03*
G01X137337Y114427D03*
G01X129337Y114427D03*
G01X157949Y114427D03*
G01X149949Y114427D03*
G01X178561Y114427D03*
G01X170561Y114427D03*
G01X199173Y114427D03*
G01X191173Y114427D03*
G01X16064Y112903D03*
G01X8065Y112903D03*
G01X28002Y108966D03*
G01X20003Y108966D03*
M00*
M02*
