G04 Layer: TopSilkLayer*
G04 EasyEDA v6.4.5, 2020-09-13T21:27:01+03:00*
G04 63316e0368094ceea4197b1f53c500b6,10*
G04 Gerber Generator version 0.2*
G04 Scale: 100 percent, Rotated: No, Reflected: No *
G04 Dimensions in millimeters *
G04 leading zeros omitted , absolute positions ,3 integer and 3 decimal *
%FSLAX33Y33*%
%MOMM*%
G90*
G71D02*

%ADD10C,0.254000*%
%ADD12C,0.203200*%
%ADD21C,0.152400*%

%LPD*%
G54D10*
G01X29534Y103338D02*
G01X31334Y103338D01*
G01X31334Y104338D01*
G01X33334Y104338D01*
G01X33334Y103338D01*
G01X35134Y103338D01*
G01X35134Y103939D01*
G01X38934Y103939D01*
G01X25734Y103939D02*
G01X29534Y103939D01*
G01X29534Y103338D01*
G01X25734Y103338D01*
G01X40134Y102738D02*
G01X40134Y102138D01*
G01X39534Y102138D01*
G01X39534Y102738D01*
G01X39534Y102138D02*
G01X39534Y90139D01*
G01X40134Y90139D01*
G01X40134Y89539D01*
G01X38934Y88338D02*
G01X35134Y88338D01*
G01X35134Y88939D01*
G01X38934Y88939D01*
G01X35134Y88939D02*
G01X33334Y88939D01*
G01X33334Y87939D01*
G01X31334Y87939D01*
G01X31334Y88939D01*
G01X29534Y88939D01*
G01X29534Y88338D01*
G01X25734Y88338D01*
G01X24534Y89539D02*
G01X24534Y90139D01*
G01X25134Y90139D01*
G01X25134Y89539D01*
G01X25134Y90139D02*
G01X25134Y102138D01*
G01X24534Y102138D01*
G01X24534Y102738D01*
G01X31334Y103338D02*
G01X33334Y103338D01*
G01X35134Y103338D02*
G01X38934Y103338D01*
G01X39534Y90139D02*
G01X39534Y89539D01*
G01X33334Y88939D02*
G01X31334Y88939D01*
G01X29534Y88939D02*
G01X25734Y88939D01*
G01X25134Y102138D02*
G01X25134Y102738D01*
G01X50057Y103338D02*
G01X51857Y103338D01*
G01X51857Y104338D01*
G01X53857Y104338D01*
G01X53857Y103338D01*
G01X55657Y103338D01*
G01X55657Y103939D01*
G01X59457Y103939D01*
G01X46257Y103939D02*
G01X50057Y103939D01*
G01X50057Y103338D01*
G01X46257Y103338D01*
G01X60657Y102738D02*
G01X60657Y102138D01*
G01X60057Y102138D01*
G01X60057Y102738D01*
G01X60057Y102138D02*
G01X60057Y90139D01*
G01X60657Y90139D01*
G01X60657Y89539D01*
G01X59457Y88338D02*
G01X55657Y88338D01*
G01X55657Y88939D01*
G01X59457Y88939D01*
G01X55657Y88939D02*
G01X53857Y88939D01*
G01X53857Y87939D01*
G01X51857Y87939D01*
G01X51857Y88939D01*
G01X50057Y88939D01*
G01X50057Y88338D01*
G01X46257Y88338D01*
G01X45057Y89539D02*
G01X45057Y90139D01*
G01X45657Y90139D01*
G01X45657Y89539D01*
G01X45657Y90139D02*
G01X45657Y102138D01*
G01X45057Y102138D01*
G01X45057Y102738D01*
G01X51857Y103338D02*
G01X53857Y103338D01*
G01X55657Y103338D02*
G01X59457Y103338D01*
G01X60057Y90139D02*
G01X60057Y89539D01*
G01X53857Y88939D02*
G01X51857Y88939D01*
G01X50057Y88939D02*
G01X46257Y88939D01*
G01X45657Y102138D02*
G01X45657Y102738D01*
G01X70580Y103338D02*
G01X72380Y103338D01*
G01X72380Y104338D01*
G01X74380Y104338D01*
G01X74380Y103338D01*
G01X76180Y103338D01*
G01X76180Y103939D01*
G01X79980Y103939D01*
G01X66780Y103939D02*
G01X70580Y103939D01*
G01X70580Y103338D01*
G01X66780Y103338D01*
G01X81180Y102738D02*
G01X81180Y102138D01*
G01X80580Y102138D01*
G01X80580Y102738D01*
G01X80580Y102138D02*
G01X80580Y90139D01*
G01X81180Y90139D01*
G01X81180Y89539D01*
G01X79980Y88338D02*
G01X76180Y88338D01*
G01X76180Y88939D01*
G01X79980Y88939D01*
G01X76180Y88939D02*
G01X74380Y88939D01*
G01X74380Y87939D01*
G01X72380Y87939D01*
G01X72380Y88939D01*
G01X70580Y88939D01*
G01X70580Y88338D01*
G01X66780Y88338D01*
G01X65580Y89539D02*
G01X65580Y90139D01*
G01X66180Y90139D01*
G01X66180Y89539D01*
G01X66180Y90139D02*
G01X66180Y102138D01*
G01X65580Y102138D01*
G01X65580Y102738D01*
G01X72380Y103338D02*
G01X74380Y103338D01*
G01X76180Y103338D02*
G01X79980Y103338D01*
G01X80580Y90139D02*
G01X80580Y89539D01*
G01X74380Y88939D02*
G01X72380Y88939D01*
G01X70580Y88939D02*
G01X66780Y88939D01*
G01X66180Y102138D02*
G01X66180Y102738D01*
G01X91103Y103338D02*
G01X92903Y103338D01*
G01X92903Y104338D01*
G01X94903Y104338D01*
G01X94903Y103338D01*
G01X96703Y103338D01*
G01X96703Y103939D01*
G01X100503Y103939D01*
G01X87303Y103939D02*
G01X91103Y103939D01*
G01X91103Y103338D01*
G01X87303Y103338D01*
G01X101703Y102738D02*
G01X101703Y102138D01*
G01X101103Y102138D01*
G01X101103Y102738D01*
G01X101103Y102138D02*
G01X101103Y90139D01*
G01X101703Y90139D01*
G01X101703Y89539D01*
G01X100503Y88338D02*
G01X96703Y88338D01*
G01X96703Y88939D01*
G01X100503Y88939D01*
G01X96703Y88939D02*
G01X94903Y88939D01*
G01X94903Y87939D01*
G01X92903Y87939D01*
G01X92903Y88939D01*
G01X91103Y88939D01*
G01X91103Y88338D01*
G01X87303Y88338D01*
G01X86103Y89539D02*
G01X86103Y90139D01*
G01X86703Y90139D01*
G01X86703Y89539D01*
G01X86703Y90139D02*
G01X86703Y102138D01*
G01X86103Y102138D01*
G01X86103Y102738D01*
G01X92903Y103338D02*
G01X94903Y103338D01*
G01X96703Y103338D02*
G01X100503Y103338D01*
G01X101103Y90139D02*
G01X101103Y89539D01*
G01X94903Y88939D02*
G01X92903Y88939D01*
G01X91103Y88939D02*
G01X87303Y88939D01*
G01X86703Y102138D02*
G01X86703Y102738D01*
G01X111626Y103338D02*
G01X113426Y103338D01*
G01X113426Y104338D01*
G01X115426Y104338D01*
G01X115426Y103338D01*
G01X117227Y103338D01*
G01X117227Y103939D01*
G01X121026Y103939D01*
G01X107827Y103939D02*
G01X111626Y103939D01*
G01X111626Y103338D01*
G01X107827Y103338D01*
G01X122227Y102738D02*
G01X122227Y102138D01*
G01X121626Y102138D01*
G01X121626Y102738D01*
G01X121626Y102138D02*
G01X121626Y90139D01*
G01X122227Y90139D01*
G01X122227Y89539D01*
G01X121026Y88338D02*
G01X117227Y88338D01*
G01X117227Y88939D01*
G01X121026Y88939D01*
G01X117227Y88939D02*
G01X115426Y88939D01*
G01X115426Y87939D01*
G01X113426Y87939D01*
G01X113426Y88939D01*
G01X111626Y88939D01*
G01X111626Y88338D01*
G01X107827Y88338D01*
G01X106626Y89539D02*
G01X106626Y90139D01*
G01X107227Y90139D01*
G01X107227Y89539D01*
G01X107227Y90139D02*
G01X107227Y102138D01*
G01X106626Y102138D01*
G01X106626Y102738D01*
G01X113426Y103338D02*
G01X115426Y103338D01*
G01X117227Y103338D02*
G01X121026Y103338D01*
G01X121626Y90139D02*
G01X121626Y89539D01*
G01X115426Y88939D02*
G01X113426Y88939D01*
G01X111626Y88939D02*
G01X107827Y88939D01*
G01X107227Y102138D02*
G01X107227Y102738D01*
G01X132150Y103338D02*
G01X133950Y103338D01*
G01X133950Y104338D01*
G01X135950Y104338D01*
G01X135950Y103338D01*
G01X137750Y103338D01*
G01X137750Y103939D01*
G01X141550Y103939D01*
G01X128350Y103939D02*
G01X132150Y103939D01*
G01X132150Y103338D01*
G01X128350Y103338D01*
G01X142750Y102738D02*
G01X142750Y102138D01*
G01X142150Y102138D01*
G01X142150Y102738D01*
G01X142150Y102138D02*
G01X142150Y90139D01*
G01X142750Y90139D01*
G01X142750Y89539D01*
G01X141550Y88338D02*
G01X137750Y88338D01*
G01X137750Y88939D01*
G01X141550Y88939D01*
G01X137750Y88939D02*
G01X135950Y88939D01*
G01X135950Y87939D01*
G01X133950Y87939D01*
G01X133950Y88939D01*
G01X132150Y88939D01*
G01X132150Y88338D01*
G01X128350Y88338D01*
G01X127150Y89539D02*
G01X127150Y90139D01*
G01X127750Y90139D01*
G01X127750Y89539D01*
G01X127750Y90139D02*
G01X127750Y102138D01*
G01X127150Y102138D01*
G01X127150Y102738D01*
G01X133950Y103338D02*
G01X135950Y103338D01*
G01X137750Y103338D02*
G01X141550Y103338D01*
G01X142150Y90139D02*
G01X142150Y89539D01*
G01X135950Y88939D02*
G01X133950Y88939D01*
G01X132150Y88939D02*
G01X128350Y88939D01*
G01X127750Y102138D02*
G01X127750Y102738D01*
G01X152673Y103338D02*
G01X154473Y103338D01*
G01X154473Y104338D01*
G01X156473Y104338D01*
G01X156473Y103338D01*
G01X158273Y103338D01*
G01X158273Y103939D01*
G01X162073Y103939D01*
G01X148873Y103939D02*
G01X152673Y103939D01*
G01X152673Y103338D01*
G01X148873Y103338D01*
G01X163273Y102738D02*
G01X163273Y102138D01*
G01X162673Y102138D01*
G01X162673Y102738D01*
G01X162673Y102138D02*
G01X162673Y90139D01*
G01X163273Y90139D01*
G01X163273Y89539D01*
G01X162073Y88338D02*
G01X158273Y88338D01*
G01X158273Y88939D01*
G01X162073Y88939D01*
G01X158273Y88939D02*
G01X156473Y88939D01*
G01X156473Y87939D01*
G01X154473Y87939D01*
G01X154473Y88939D01*
G01X152673Y88939D01*
G01X152673Y88338D01*
G01X148873Y88338D01*
G01X147673Y89539D02*
G01X147673Y90139D01*
G01X148273Y90139D01*
G01X148273Y89539D01*
G01X148273Y90139D02*
G01X148273Y102138D01*
G01X147673Y102138D01*
G01X147673Y102738D01*
G01X154473Y103338D02*
G01X156473Y103338D01*
G01X158273Y103338D02*
G01X162073Y103338D01*
G01X162673Y90139D02*
G01X162673Y89539D01*
G01X156473Y88939D02*
G01X154473Y88939D01*
G01X152673Y88939D02*
G01X148873Y88939D01*
G01X148273Y102138D02*
G01X148273Y102738D01*
G01X173196Y103338D02*
G01X174996Y103338D01*
G01X174996Y104338D01*
G01X176996Y104338D01*
G01X176996Y103338D01*
G01X178796Y103338D01*
G01X178796Y103939D01*
G01X182596Y103939D01*
G01X169396Y103939D02*
G01X173196Y103939D01*
G01X173196Y103338D01*
G01X169396Y103338D01*
G01X183796Y102738D02*
G01X183796Y102138D01*
G01X183196Y102138D01*
G01X183196Y102738D01*
G01X183196Y102138D02*
G01X183196Y90139D01*
G01X183796Y90139D01*
G01X183796Y89539D01*
G01X182596Y88338D02*
G01X178796Y88338D01*
G01X178796Y88939D01*
G01X182596Y88939D01*
G01X178796Y88939D02*
G01X176996Y88939D01*
G01X176996Y87939D01*
G01X174996Y87939D01*
G01X174996Y88939D01*
G01X173196Y88939D01*
G01X173196Y88338D01*
G01X169396Y88338D01*
G01X168196Y89539D02*
G01X168196Y90139D01*
G01X168796Y90139D01*
G01X168796Y89539D01*
G01X168796Y90139D02*
G01X168796Y102138D01*
G01X168196Y102138D01*
G01X168196Y102738D01*
G01X174996Y103338D02*
G01X176996Y103338D01*
G01X178796Y103338D02*
G01X182596Y103338D01*
G01X183196Y90139D02*
G01X183196Y89539D01*
G01X176996Y88939D02*
G01X174996Y88939D01*
G01X173196Y88939D02*
G01X169396Y88939D01*
G01X168796Y102138D02*
G01X168796Y102738D01*
G01X193719Y103338D02*
G01X195519Y103338D01*
G01X195519Y104338D01*
G01X197519Y104338D01*
G01X197519Y103338D01*
G01X199319Y103338D01*
G01X199319Y103939D01*
G01X203119Y103939D01*
G01X189919Y103939D02*
G01X193719Y103939D01*
G01X193719Y103338D01*
G01X189919Y103338D01*
G01X204319Y102738D02*
G01X204319Y102138D01*
G01X203719Y102138D01*
G01X203719Y102738D01*
G01X203719Y102138D02*
G01X203719Y90139D01*
G01X204319Y90139D01*
G01X204319Y89539D01*
G01X203119Y88338D02*
G01X199319Y88338D01*
G01X199319Y88939D01*
G01X203119Y88939D01*
G01X199319Y88939D02*
G01X197519Y88939D01*
G01X197519Y87939D01*
G01X195519Y87939D01*
G01X195519Y88939D01*
G01X193719Y88939D01*
G01X193719Y88338D01*
G01X189919Y88338D01*
G01X188719Y89539D02*
G01X188719Y90139D01*
G01X189319Y90139D01*
G01X189319Y89539D01*
G01X189319Y90139D02*
G01X189319Y102138D01*
G01X188719Y102138D01*
G01X188719Y102738D01*
G01X195519Y103338D02*
G01X197519Y103338D01*
G01X199319Y103338D02*
G01X203119Y103338D01*
G01X203719Y90139D02*
G01X203719Y89539D01*
G01X197519Y88939D02*
G01X195519Y88939D01*
G01X193719Y88939D02*
G01X189919Y88939D01*
G01X189319Y102138D02*
G01X189319Y102738D01*
G01X140970Y6223D02*
G01X142240Y6223D01*
G01X142875Y5588D01*
G01X143510Y6223D01*
G01X144780Y6223D01*
G01X145415Y5588D01*
G01X146050Y6223D01*
G01X147320Y6223D01*
G01X147955Y5588D01*
G01X148590Y6223D01*
G01X149860Y6223D01*
G01X150495Y5588D01*
G01X151130Y6223D01*
G01X152400Y6223D01*
G01X153035Y5588D01*
G01X153670Y6223D01*
G01X154940Y6223D01*
G01X155575Y5588D01*
G01X156210Y6223D01*
G01X157480Y6223D01*
G01X158115Y5588D01*
G01X158115Y4318D01*
G01X157480Y3683D01*
G01X156210Y3683D01*
G01X155575Y4318D01*
G01X154940Y3683D01*
G01X153670Y3683D01*
G01X153035Y4318D01*
G01X152400Y3683D01*
G01X151130Y3683D01*
G01X150495Y4318D01*
G01X149860Y3683D01*
G01X148590Y3683D01*
G01X147955Y4318D01*
G01X147320Y3683D01*
G01X146050Y3683D01*
G01X145415Y4318D01*
G01X144780Y3683D01*
G01X143510Y3683D01*
G01X142875Y4318D01*
G01X142240Y3683D01*
G01X140970Y3683D01*
G01X140335Y4318D01*
G01X139700Y3683D01*
G01X138430Y3683D01*
G01X137795Y4318D01*
G01X137795Y5588D01*
G01X138430Y6223D01*
G01X139700Y6223D01*
G01X140335Y5588D01*
G01X140970Y6223D01*
G01X97663Y5842D02*
G01X98298Y6477D01*
G01X99568Y6477D01*
G01X100203Y5842D01*
G01X100838Y6477D01*
G01X102108Y6477D01*
G01X102743Y5842D01*
G01X103378Y6477D01*
G01X104648Y6477D01*
G01X105283Y5842D01*
G01X105918Y6477D01*
G01X107188Y6477D01*
G01X107823Y5842D01*
G01X108458Y6477D01*
G01X109728Y6477D01*
G01X110363Y5842D01*
G01X110363Y4572D01*
G01X109728Y3937D01*
G01X108458Y3937D01*
G01X107823Y4572D01*
G01X107188Y3937D01*
G01X105918Y3937D01*
G01X105283Y4572D01*
G01X104648Y3937D01*
G01X103378Y3937D01*
G01X102743Y4572D01*
G01X102108Y3937D01*
G01X100838Y3937D01*
G01X100203Y4572D01*
G01X99568Y3937D01*
G01X98298Y3937D01*
G01X97663Y4572D01*
G01X97663Y5842D01*
G01X36188Y83018D02*
G01X37989Y83018D01*
G01X37989Y84018D01*
G01X39988Y84018D01*
G01X39988Y83018D01*
G01X41789Y83018D01*
G01X41789Y83619D01*
G01X45588Y83619D01*
G01X32389Y83619D02*
G01X36188Y83619D01*
G01X36188Y83018D01*
G01X32389Y83018D01*
G01X46789Y82418D02*
G01X46789Y81818D01*
G01X46188Y81818D01*
G01X46188Y82418D01*
G01X46188Y81818D02*
G01X46188Y69819D01*
G01X46789Y69819D01*
G01X46789Y69219D01*
G01X45588Y68018D02*
G01X41789Y68018D01*
G01X41789Y68619D01*
G01X45588Y68619D01*
G01X41789Y68619D02*
G01X39988Y68619D01*
G01X39988Y67619D01*
G01X37989Y67619D01*
G01X37989Y68619D01*
G01X36188Y68619D01*
G01X36188Y68018D01*
G01X32389Y68018D01*
G01X31188Y69219D02*
G01X31188Y69819D01*
G01X31789Y69819D01*
G01X31789Y69219D01*
G01X31789Y69819D02*
G01X31789Y81818D01*
G01X31188Y81818D01*
G01X31188Y82418D01*
G01X37989Y83018D02*
G01X39988Y83018D01*
G01X41789Y83018D02*
G01X45588Y83018D01*
G01X46188Y69819D02*
G01X46188Y69219D01*
G01X39988Y68619D02*
G01X37989Y68619D01*
G01X36188Y68619D02*
G01X32389Y68619D01*
G01X31789Y81818D02*
G01X31789Y82418D01*
G01X39744Y62825D02*
G01X41545Y62825D01*
G01X41545Y63825D01*
G01X43544Y63825D01*
G01X43544Y62825D01*
G01X45345Y62825D01*
G01X45345Y63426D01*
G01X49144Y63426D01*
G01X35945Y63426D02*
G01X39744Y63426D01*
G01X39744Y62825D01*
G01X35945Y62825D01*
G01X50345Y62225D02*
G01X50345Y61625D01*
G01X49744Y61625D01*
G01X49744Y62225D01*
G01X49744Y61625D02*
G01X49744Y49626D01*
G01X50345Y49626D01*
G01X50345Y49026D01*
G01X49144Y47825D02*
G01X45345Y47825D01*
G01X45345Y48426D01*
G01X49144Y48426D01*
G01X45345Y48426D02*
G01X43544Y48426D01*
G01X43544Y47426D01*
G01X41545Y47426D01*
G01X41545Y48426D01*
G01X39744Y48426D01*
G01X39744Y47825D01*
G01X35945Y47825D01*
G01X34744Y49026D02*
G01X34744Y49626D01*
G01X35345Y49626D01*
G01X35345Y49026D01*
G01X35345Y49626D02*
G01X35345Y61625D01*
G01X34744Y61625D01*
G01X34744Y62225D01*
G01X41545Y62825D02*
G01X43544Y62825D01*
G01X45345Y62825D02*
G01X49144Y62825D01*
G01X49744Y49626D02*
G01X49744Y49026D01*
G01X43544Y48426D02*
G01X41545Y48426D01*
G01X39744Y48426D02*
G01X35945Y48426D01*
G01X35345Y61625D02*
G01X35345Y62225D01*
G01X13963Y41997D02*
G01X15764Y41997D01*
G01X15764Y42997D01*
G01X17763Y42997D01*
G01X17763Y41997D01*
G01X19564Y41997D01*
G01X19564Y42598D01*
G01X23363Y42598D01*
G01X10164Y42598D02*
G01X13963Y42598D01*
G01X13963Y41997D01*
G01X10164Y41997D01*
G01X24564Y41397D02*
G01X24564Y40797D01*
G01X23963Y40797D01*
G01X23963Y41397D01*
G01X23963Y40797D02*
G01X23963Y28798D01*
G01X24564Y28798D01*
G01X24564Y28198D01*
G01X23363Y26997D02*
G01X19564Y26997D01*
G01X19564Y27598D01*
G01X23363Y27598D01*
G01X19564Y27598D02*
G01X17763Y27598D01*
G01X17763Y26598D01*
G01X15764Y26598D01*
G01X15764Y27598D01*
G01X13963Y27598D01*
G01X13963Y26997D01*
G01X10164Y26997D01*
G01X8963Y28198D02*
G01X8963Y28798D01*
G01X9564Y28798D01*
G01X9564Y28198D01*
G01X9564Y28798D02*
G01X9564Y40797D01*
G01X8963Y40797D01*
G01X8963Y41397D01*
G01X15764Y41997D02*
G01X17763Y41997D01*
G01X19564Y41997D02*
G01X23363Y41997D01*
G01X23963Y28798D02*
G01X23963Y28198D01*
G01X17763Y27598D02*
G01X15764Y27598D01*
G01X13963Y27598D02*
G01X10164Y27598D01*
G01X9564Y40797D02*
G01X9564Y41397D01*
G01X58255Y41997D02*
G01X60055Y41997D01*
G01X60055Y42997D01*
G01X62055Y42997D01*
G01X62055Y41997D01*
G01X63855Y41997D01*
G01X63855Y42598D01*
G01X67655Y42598D01*
G01X54455Y42598D02*
G01X58255Y42598D01*
G01X58255Y41997D01*
G01X54455Y41997D01*
G01X68855Y41397D02*
G01X68855Y40797D01*
G01X68255Y40797D01*
G01X68255Y41397D01*
G01X68255Y40797D02*
G01X68255Y28798D01*
G01X68855Y28798D01*
G01X68855Y28198D01*
G01X67655Y26997D02*
G01X63855Y26997D01*
G01X63855Y27598D01*
G01X67655Y27598D01*
G01X63855Y27598D02*
G01X62055Y27598D01*
G01X62055Y26598D01*
G01X60055Y26598D01*
G01X60055Y27598D01*
G01X58255Y27598D01*
G01X58255Y26997D01*
G01X54455Y26997D01*
G01X53255Y28198D02*
G01X53255Y28798D01*
G01X53855Y28798D01*
G01X53855Y28198D01*
G01X53855Y28798D02*
G01X53855Y40797D01*
G01X53255Y40797D01*
G01X53255Y41397D01*
G01X60055Y41997D02*
G01X62055Y41997D01*
G01X63855Y41997D02*
G01X67655Y41997D01*
G01X68255Y28798D02*
G01X68255Y28198D01*
G01X62055Y27598D02*
G01X60055Y27598D01*
G01X58255Y27598D02*
G01X54455Y27598D01*
G01X53855Y40797D02*
G01X53855Y41397D01*
G01X60177Y62825D02*
G01X61977Y62825D01*
G01X61977Y63825D01*
G01X63977Y63825D01*
G01X63977Y62825D01*
G01X65777Y62825D01*
G01X65777Y63426D01*
G01X69577Y63426D01*
G01X56377Y63426D02*
G01X60177Y63426D01*
G01X60177Y62825D01*
G01X56377Y62825D01*
G01X70777Y62225D02*
G01X70777Y61625D01*
G01X70177Y61625D01*
G01X70177Y62225D01*
G01X70177Y61625D02*
G01X70177Y49626D01*
G01X70777Y49626D01*
G01X70777Y49026D01*
G01X69577Y47825D02*
G01X65777Y47825D01*
G01X65777Y48426D01*
G01X69577Y48426D01*
G01X65777Y48426D02*
G01X63977Y48426D01*
G01X63977Y47426D01*
G01X61977Y47426D01*
G01X61977Y48426D01*
G01X60177Y48426D01*
G01X60177Y47825D01*
G01X56377Y47825D01*
G01X55177Y49026D02*
G01X55177Y49626D01*
G01X55778Y49626D01*
G01X55778Y49026D01*
G01X55778Y49626D02*
G01X55778Y61625D01*
G01X55177Y61625D01*
G01X55177Y62225D01*
G01X61977Y62825D02*
G01X63977Y62825D01*
G01X65777Y62825D02*
G01X69577Y62825D01*
G01X70177Y49626D02*
G01X70177Y49026D01*
G01X63977Y48426D02*
G01X61977Y48426D01*
G01X60177Y48426D02*
G01X56377Y48426D01*
G01X55778Y61625D02*
G01X55778Y62225D01*
G01X56720Y83018D02*
G01X58520Y83018D01*
G01X58520Y84018D01*
G01X60520Y84018D01*
G01X60520Y83018D01*
G01X62320Y83018D01*
G01X62320Y83619D01*
G01X66120Y83619D01*
G01X52920Y83619D02*
G01X56720Y83619D01*
G01X56720Y83018D01*
G01X52920Y83018D01*
G01X67320Y82418D02*
G01X67320Y81818D01*
G01X66720Y81818D01*
G01X66720Y82418D01*
G01X66720Y81818D02*
G01X66720Y69819D01*
G01X67320Y69819D01*
G01X67320Y69219D01*
G01X66120Y68018D02*
G01X62320Y68018D01*
G01X62320Y68619D01*
G01X66120Y68619D01*
G01X62320Y68619D02*
G01X60520Y68619D01*
G01X60520Y67619D01*
G01X58520Y67619D01*
G01X58520Y68619D01*
G01X56720Y68619D01*
G01X56720Y68018D01*
G01X52920Y68018D01*
G01X51720Y69219D02*
G01X51720Y69819D01*
G01X52320Y69819D01*
G01X52320Y69219D01*
G01X52320Y69819D02*
G01X52320Y81818D01*
G01X51720Y81818D01*
G01X51720Y82418D01*
G01X58520Y83018D02*
G01X60520Y83018D01*
G01X62320Y83018D02*
G01X66120Y83018D01*
G01X66720Y69819D02*
G01X66720Y69219D01*
G01X60520Y68619D02*
G01X58520Y68619D01*
G01X56720Y68619D02*
G01X52920Y68619D01*
G01X52320Y81818D02*
G01X52320Y82418D01*
G01X78543Y41997D02*
G01X80343Y41997D01*
G01X80343Y42997D01*
G01X82343Y42997D01*
G01X82343Y41997D01*
G01X84143Y41997D01*
G01X84143Y42598D01*
G01X87943Y42598D01*
G01X74743Y42598D02*
G01X78543Y42598D01*
G01X78543Y41997D01*
G01X74743Y41997D01*
G01X89143Y41397D02*
G01X89143Y40797D01*
G01X88543Y40797D01*
G01X88543Y41397D01*
G01X88543Y40797D02*
G01X88543Y28798D01*
G01X89143Y28798D01*
G01X89143Y28198D01*
G01X87943Y26997D02*
G01X84143Y26997D01*
G01X84143Y27598D01*
G01X87943Y27598D01*
G01X84143Y27598D02*
G01X82343Y27598D01*
G01X82343Y26598D01*
G01X80343Y26598D01*
G01X80343Y27598D01*
G01X78543Y27598D01*
G01X78543Y26997D01*
G01X74743Y26997D01*
G01X73543Y28198D02*
G01X73543Y28798D01*
G01X74143Y28798D01*
G01X74143Y28198D01*
G01X74143Y28798D02*
G01X74143Y40797D01*
G01X73543Y40797D01*
G01X73543Y41397D01*
G01X80343Y41997D02*
G01X82343Y41997D01*
G01X84143Y41997D02*
G01X87943Y41997D01*
G01X88543Y28798D02*
G01X88543Y28198D01*
G01X82343Y27598D02*
G01X80343Y27598D01*
G01X78543Y27598D02*
G01X74743Y27598D01*
G01X74143Y40797D02*
G01X74143Y41397D01*
G01X80610Y62825D02*
G01X82410Y62825D01*
G01X82410Y63825D01*
G01X84410Y63825D01*
G01X84410Y62825D01*
G01X86210Y62825D01*
G01X86210Y63426D01*
G01X90010Y63426D01*
G01X76810Y63426D02*
G01X80610Y63426D01*
G01X80610Y62825D01*
G01X76810Y62825D01*
G01X91210Y62225D02*
G01X91210Y61625D01*
G01X90610Y61625D01*
G01X90610Y62225D01*
G01X90610Y61625D02*
G01X90610Y49626D01*
G01X91210Y49626D01*
G01X91210Y49026D01*
G01X90010Y47825D02*
G01X86210Y47825D01*
G01X86210Y48426D01*
G01X90010Y48426D01*
G01X86210Y48426D02*
G01X84410Y48426D01*
G01X84410Y47426D01*
G01X82410Y47426D01*
G01X82410Y48426D01*
G01X80610Y48426D01*
G01X80610Y47825D01*
G01X76810Y47825D01*
G01X75610Y49026D02*
G01X75610Y49626D01*
G01X76210Y49626D01*
G01X76210Y49026D01*
G01X76210Y49626D02*
G01X76210Y61625D01*
G01X75610Y61625D01*
G01X75610Y62225D01*
G01X82410Y62825D02*
G01X84410Y62825D01*
G01X86210Y62825D02*
G01X90010Y62825D01*
G01X90610Y49626D02*
G01X90610Y49026D01*
G01X84410Y48426D02*
G01X82410Y48426D01*
G01X80610Y48426D02*
G01X76810Y48426D01*
G01X76210Y61625D02*
G01X76210Y62225D01*
G01X77252Y83018D02*
G01X79052Y83018D01*
G01X79052Y84018D01*
G01X81052Y84018D01*
G01X81052Y83018D01*
G01X82852Y83018D01*
G01X82852Y83619D01*
G01X86652Y83619D01*
G01X73452Y83619D02*
G01X77252Y83619D01*
G01X77252Y83018D01*
G01X73452Y83018D01*
G01X87852Y82418D02*
G01X87852Y81818D01*
G01X87252Y81818D01*
G01X87252Y82418D01*
G01X87252Y81818D02*
G01X87252Y69819D01*
G01X87852Y69819D01*
G01X87852Y69219D01*
G01X86652Y68018D02*
G01X82852Y68018D01*
G01X82852Y68619D01*
G01X86652Y68619D01*
G01X82852Y68619D02*
G01X81052Y68619D01*
G01X81052Y67619D01*
G01X79052Y67619D01*
G01X79052Y68619D01*
G01X77252Y68619D01*
G01X77252Y68018D01*
G01X73452Y68018D01*
G01X72252Y69219D02*
G01X72252Y69819D01*
G01X72852Y69819D01*
G01X72852Y69219D01*
G01X72852Y69819D02*
G01X72852Y81818D01*
G01X72252Y81818D01*
G01X72252Y82418D01*
G01X79052Y83018D02*
G01X81052Y83018D01*
G01X82852Y83018D02*
G01X86652Y83018D01*
G01X87252Y69819D02*
G01X87252Y69219D01*
G01X81052Y68619D02*
G01X79052Y68619D01*
G01X77252Y68619D02*
G01X73452Y68619D01*
G01X72852Y81818D02*
G01X72852Y82418D01*
G01X98831Y41997D02*
G01X100631Y41997D01*
G01X100631Y42997D01*
G01X102631Y42997D01*
G01X102631Y41997D01*
G01X104431Y41997D01*
G01X104431Y42598D01*
G01X108231Y42598D01*
G01X95031Y42598D02*
G01X98831Y42598D01*
G01X98831Y41997D01*
G01X95031Y41997D01*
G01X109431Y41397D02*
G01X109431Y40797D01*
G01X108831Y40797D01*
G01X108831Y41397D01*
G01X108831Y40797D02*
G01X108831Y28798D01*
G01X109431Y28798D01*
G01X109431Y28198D01*
G01X108231Y26997D02*
G01X104431Y26997D01*
G01X104431Y27598D01*
G01X108231Y27598D01*
G01X104431Y27598D02*
G01X102631Y27598D01*
G01X102631Y26598D01*
G01X100631Y26598D01*
G01X100631Y27598D01*
G01X98831Y27598D01*
G01X98831Y26997D01*
G01X95031Y26997D01*
G01X93831Y28198D02*
G01X93831Y28798D01*
G01X94431Y28798D01*
G01X94431Y28198D01*
G01X94431Y28798D02*
G01X94431Y40797D01*
G01X93831Y40797D01*
G01X93831Y41397D01*
G01X100631Y41997D02*
G01X102631Y41997D01*
G01X104431Y41997D02*
G01X108231Y41997D01*
G01X108831Y28798D02*
G01X108831Y28198D01*
G01X102631Y27598D02*
G01X100631Y27598D01*
G01X98831Y27598D02*
G01X95031Y27598D01*
G01X94431Y40797D02*
G01X94431Y41397D01*
G01X101043Y62825D02*
G01X102843Y62825D01*
G01X102843Y63825D01*
G01X104843Y63825D01*
G01X104843Y62825D01*
G01X106643Y62825D01*
G01X106643Y63426D01*
G01X110443Y63426D01*
G01X97243Y63426D02*
G01X101043Y63426D01*
G01X101043Y62825D01*
G01X97243Y62825D01*
G01X111643Y62225D02*
G01X111643Y61625D01*
G01X111043Y61625D01*
G01X111043Y62225D01*
G01X111043Y61625D02*
G01X111043Y49626D01*
G01X111643Y49626D01*
G01X111643Y49026D01*
G01X110443Y47825D02*
G01X106643Y47825D01*
G01X106643Y48426D01*
G01X110443Y48426D01*
G01X106643Y48426D02*
G01X104843Y48426D01*
G01X104843Y47426D01*
G01X102843Y47426D01*
G01X102843Y48426D01*
G01X101043Y48426D01*
G01X101043Y47825D01*
G01X97243Y47825D01*
G01X96043Y49026D02*
G01X96043Y49626D01*
G01X96643Y49626D01*
G01X96643Y49026D01*
G01X96643Y49626D02*
G01X96643Y61625D01*
G01X96043Y61625D01*
G01X96043Y62225D01*
G01X102843Y62825D02*
G01X104843Y62825D01*
G01X106643Y62825D02*
G01X110443Y62825D01*
G01X111043Y49626D02*
G01X111043Y49026D01*
G01X104843Y48426D02*
G01X102843Y48426D01*
G01X101043Y48426D02*
G01X97243Y48426D01*
G01X96643Y61625D02*
G01X96643Y62225D01*
G01X97783Y83018D02*
G01X99584Y83018D01*
G01X99584Y84018D01*
G01X101583Y84018D01*
G01X101583Y83018D01*
G01X103384Y83018D01*
G01X103384Y83619D01*
G01X107183Y83619D01*
G01X93984Y83619D02*
G01X97783Y83619D01*
G01X97783Y83018D01*
G01X93984Y83018D01*
G01X108384Y82418D02*
G01X108384Y81818D01*
G01X107783Y81818D01*
G01X107783Y82418D01*
G01X107783Y81818D02*
G01X107783Y69819D01*
G01X108384Y69819D01*
G01X108384Y69219D01*
G01X107183Y68018D02*
G01X103384Y68018D01*
G01X103384Y68619D01*
G01X107183Y68619D01*
G01X103384Y68619D02*
G01X101583Y68619D01*
G01X101583Y67619D01*
G01X99584Y67619D01*
G01X99584Y68619D01*
G01X97783Y68619D01*
G01X97783Y68018D01*
G01X93984Y68018D01*
G01X92783Y69219D02*
G01X92783Y69819D01*
G01X93384Y69819D01*
G01X93384Y69219D01*
G01X93384Y69819D02*
G01X93384Y81818D01*
G01X92783Y81818D01*
G01X92783Y82418D01*
G01X99584Y83018D02*
G01X101583Y83018D01*
G01X103384Y83018D02*
G01X107183Y83018D01*
G01X107783Y69819D02*
G01X107783Y69219D01*
G01X101583Y68619D02*
G01X99584Y68619D01*
G01X97783Y68619D02*
G01X93984Y68619D01*
G01X93384Y81818D02*
G01X93384Y82418D01*
G01X119119Y41997D02*
G01X120920Y41997D01*
G01X120920Y42997D01*
G01X122919Y42997D01*
G01X122919Y41997D01*
G01X124720Y41997D01*
G01X124720Y42598D01*
G01X128519Y42598D01*
G01X115320Y42598D02*
G01X119119Y42598D01*
G01X119119Y41997D01*
G01X115320Y41997D01*
G01X129720Y41397D02*
G01X129720Y40797D01*
G01X129119Y40797D01*
G01X129119Y41397D01*
G01X129119Y40797D02*
G01X129119Y28798D01*
G01X129720Y28798D01*
G01X129720Y28198D01*
G01X128519Y26997D02*
G01X124720Y26997D01*
G01X124720Y27598D01*
G01X128519Y27598D01*
G01X124720Y27598D02*
G01X122919Y27598D01*
G01X122919Y26598D01*
G01X120920Y26598D01*
G01X120920Y27598D01*
G01X119119Y27598D01*
G01X119119Y26997D01*
G01X115320Y26997D01*
G01X114119Y28198D02*
G01X114119Y28798D01*
G01X114720Y28798D01*
G01X114720Y28198D01*
G01X114720Y28798D02*
G01X114720Y40797D01*
G01X114119Y40797D01*
G01X114119Y41397D01*
G01X120920Y41997D02*
G01X122919Y41997D01*
G01X124720Y41997D02*
G01X128519Y41997D01*
G01X129119Y28798D02*
G01X129119Y28198D01*
G01X122919Y27598D02*
G01X120920Y27598D01*
G01X119119Y27598D02*
G01X115320Y27598D01*
G01X114720Y40797D02*
G01X114720Y41397D01*
G01X121476Y62825D02*
G01X123276Y62825D01*
G01X123276Y63825D01*
G01X125276Y63825D01*
G01X125276Y62825D01*
G01X127076Y62825D01*
G01X127076Y63426D01*
G01X130876Y63426D01*
G01X117676Y63426D02*
G01X121476Y63426D01*
G01X121476Y62825D01*
G01X117676Y62825D01*
G01X132076Y62225D02*
G01X132076Y61625D01*
G01X131476Y61625D01*
G01X131476Y62225D01*
G01X131476Y61625D02*
G01X131476Y49626D01*
G01X132076Y49626D01*
G01X132076Y49026D01*
G01X130876Y47825D02*
G01X127076Y47825D01*
G01X127076Y48426D01*
G01X130876Y48426D01*
G01X127076Y48426D02*
G01X125276Y48426D01*
G01X125276Y47426D01*
G01X123276Y47426D01*
G01X123276Y48426D01*
G01X121476Y48426D01*
G01X121476Y47825D01*
G01X117676Y47825D01*
G01X116476Y49026D02*
G01X116476Y49626D01*
G01X117076Y49626D01*
G01X117076Y49026D01*
G01X117076Y49626D02*
G01X117076Y61625D01*
G01X116476Y61625D01*
G01X116476Y62225D01*
G01X123276Y62825D02*
G01X125276Y62825D01*
G01X127076Y62825D02*
G01X130876Y62825D01*
G01X131476Y49626D02*
G01X131476Y49026D01*
G01X125276Y48426D02*
G01X123276Y48426D01*
G01X121476Y48426D02*
G01X117676Y48426D01*
G01X117076Y61625D02*
G01X117076Y62225D01*
G01X118315Y83018D02*
G01X120115Y83018D01*
G01X120115Y84018D01*
G01X122115Y84018D01*
G01X122115Y83018D01*
G01X123915Y83018D01*
G01X123915Y83619D01*
G01X127715Y83619D01*
G01X114515Y83619D02*
G01X118315Y83619D01*
G01X118315Y83018D01*
G01X114515Y83018D01*
G01X128915Y82418D02*
G01X128915Y81818D01*
G01X128315Y81818D01*
G01X128315Y82418D01*
G01X128315Y81818D02*
G01X128315Y69819D01*
G01X128915Y69819D01*
G01X128915Y69219D01*
G01X127715Y68018D02*
G01X123915Y68018D01*
G01X123915Y68619D01*
G01X127715Y68619D01*
G01X123915Y68619D02*
G01X122115Y68619D01*
G01X122115Y67619D01*
G01X120115Y67619D01*
G01X120115Y68619D01*
G01X118315Y68619D01*
G01X118315Y68018D01*
G01X114515Y68018D01*
G01X113315Y69219D02*
G01X113315Y69819D01*
G01X113915Y69819D01*
G01X113915Y69219D01*
G01X113915Y69819D02*
G01X113915Y81818D01*
G01X113315Y81818D01*
G01X113315Y82418D01*
G01X120115Y83018D02*
G01X122115Y83018D01*
G01X123915Y83018D02*
G01X127715Y83018D01*
G01X128315Y69819D02*
G01X128315Y69219D01*
G01X122115Y68619D02*
G01X120115Y68619D01*
G01X118315Y68619D02*
G01X114515Y68619D01*
G01X113915Y81818D02*
G01X113915Y82418D01*
G01X139408Y41997D02*
G01X141208Y41997D01*
G01X141208Y42997D01*
G01X143208Y42997D01*
G01X143208Y41997D01*
G01X145008Y41997D01*
G01X145008Y42598D01*
G01X148808Y42598D01*
G01X135608Y42598D02*
G01X139408Y42598D01*
G01X139408Y41997D01*
G01X135608Y41997D01*
G01X150008Y41397D02*
G01X150008Y40797D01*
G01X149408Y40797D01*
G01X149408Y41397D01*
G01X149408Y40797D02*
G01X149408Y28798D01*
G01X150008Y28798D01*
G01X150008Y28198D01*
G01X148808Y26997D02*
G01X145008Y26997D01*
G01X145008Y27598D01*
G01X148808Y27598D01*
G01X145008Y27598D02*
G01X143208Y27598D01*
G01X143208Y26598D01*
G01X141208Y26598D01*
G01X141208Y27598D01*
G01X139408Y27598D01*
G01X139408Y26997D01*
G01X135608Y26997D01*
G01X134408Y28198D02*
G01X134408Y28798D01*
G01X135008Y28798D01*
G01X135008Y28198D01*
G01X135008Y28798D02*
G01X135008Y40797D01*
G01X134408Y40797D01*
G01X134408Y41397D01*
G01X141208Y41997D02*
G01X143208Y41997D01*
G01X145008Y41997D02*
G01X148808Y41997D01*
G01X149408Y28798D02*
G01X149408Y28198D01*
G01X143208Y27598D02*
G01X141208Y27598D01*
G01X139408Y27598D02*
G01X135608Y27598D01*
G01X135008Y40797D02*
G01X135008Y41397D01*
G01X141909Y62825D02*
G01X143709Y62825D01*
G01X143709Y63825D01*
G01X145709Y63825D01*
G01X145709Y62825D01*
G01X147509Y62825D01*
G01X147509Y63426D01*
G01X151309Y63426D01*
G01X138109Y63426D02*
G01X141909Y63426D01*
G01X141909Y62825D01*
G01X138109Y62825D01*
G01X152509Y62225D02*
G01X152509Y61625D01*
G01X151909Y61625D01*
G01X151909Y62225D01*
G01X151909Y61625D02*
G01X151909Y49626D01*
G01X152509Y49626D01*
G01X152509Y49026D01*
G01X151309Y47825D02*
G01X147509Y47825D01*
G01X147509Y48426D01*
G01X151309Y48426D01*
G01X147509Y48426D02*
G01X145709Y48426D01*
G01X145709Y47426D01*
G01X143709Y47426D01*
G01X143709Y48426D01*
G01X141909Y48426D01*
G01X141909Y47825D01*
G01X138109Y47825D01*
G01X136909Y49026D02*
G01X136909Y49626D01*
G01X137509Y49626D01*
G01X137509Y49026D01*
G01X137509Y49626D02*
G01X137509Y61625D01*
G01X136909Y61625D01*
G01X136909Y62225D01*
G01X143709Y62825D02*
G01X145709Y62825D01*
G01X147509Y62825D02*
G01X151309Y62825D01*
G01X151909Y49626D02*
G01X151909Y49026D01*
G01X145709Y48426D02*
G01X143709Y48426D01*
G01X141909Y48426D02*
G01X138109Y48426D01*
G01X137509Y61625D02*
G01X137509Y62225D01*
G01X138847Y83018D02*
G01X140647Y83018D01*
G01X140647Y84018D01*
G01X142647Y84018D01*
G01X142647Y83018D01*
G01X144447Y83018D01*
G01X144447Y83619D01*
G01X148247Y83619D01*
G01X135047Y83619D02*
G01X138847Y83619D01*
G01X138847Y83018D01*
G01X135047Y83018D01*
G01X149447Y82418D02*
G01X149447Y81818D01*
G01X148847Y81818D01*
G01X148847Y82418D01*
G01X148847Y81818D02*
G01X148847Y69819D01*
G01X149447Y69819D01*
G01X149447Y69219D01*
G01X148247Y68018D02*
G01X144447Y68018D01*
G01X144447Y68619D01*
G01X148247Y68619D01*
G01X144447Y68619D02*
G01X142647Y68619D01*
G01X142647Y67619D01*
G01X140647Y67619D01*
G01X140647Y68619D01*
G01X138847Y68619D01*
G01X138847Y68018D01*
G01X135047Y68018D01*
G01X133847Y69219D02*
G01X133847Y69819D01*
G01X134447Y69819D01*
G01X134447Y69219D01*
G01X134447Y69819D02*
G01X134447Y81818D01*
G01X133847Y81818D01*
G01X133847Y82418D01*
G01X140647Y83018D02*
G01X142647Y83018D01*
G01X144447Y83018D02*
G01X148247Y83018D01*
G01X148847Y69819D02*
G01X148847Y69219D01*
G01X142647Y68619D02*
G01X140647Y68619D01*
G01X138847Y68619D02*
G01X135047Y68619D01*
G01X134447Y81818D02*
G01X134447Y82418D01*
G01X159696Y41997D02*
G01X161496Y41997D01*
G01X161496Y42997D01*
G01X163496Y42997D01*
G01X163496Y41997D01*
G01X165296Y41997D01*
G01X165296Y42598D01*
G01X169096Y42598D01*
G01X155896Y42598D02*
G01X159696Y42598D01*
G01X159696Y41997D01*
G01X155896Y41997D01*
G01X170296Y41397D02*
G01X170296Y40797D01*
G01X169696Y40797D01*
G01X169696Y41397D01*
G01X169696Y40797D02*
G01X169696Y28798D01*
G01X170296Y28798D01*
G01X170296Y28198D01*
G01X169096Y26997D02*
G01X165296Y26997D01*
G01X165296Y27598D01*
G01X169096Y27598D01*
G01X165296Y27598D02*
G01X163496Y27598D01*
G01X163496Y26598D01*
G01X161496Y26598D01*
G01X161496Y27598D01*
G01X159696Y27598D01*
G01X159696Y26997D01*
G01X155896Y26997D01*
G01X154696Y28198D02*
G01X154696Y28798D01*
G01X155296Y28798D01*
G01X155296Y28198D01*
G01X155296Y28798D02*
G01X155296Y40797D01*
G01X154696Y40797D01*
G01X154696Y41397D01*
G01X161496Y41997D02*
G01X163496Y41997D01*
G01X165296Y41997D02*
G01X169096Y41997D01*
G01X169696Y28798D02*
G01X169696Y28198D01*
G01X163496Y27598D02*
G01X161496Y27598D01*
G01X159696Y27598D02*
G01X155896Y27598D01*
G01X155296Y40797D02*
G01X155296Y41397D01*
G01X162342Y62825D02*
G01X164142Y62825D01*
G01X164142Y63825D01*
G01X166142Y63825D01*
G01X166142Y62825D01*
G01X167942Y62825D01*
G01X167942Y63426D01*
G01X171742Y63426D01*
G01X158542Y63426D02*
G01X162342Y63426D01*
G01X162342Y62825D01*
G01X158542Y62825D01*
G01X172942Y62225D02*
G01X172942Y61625D01*
G01X172342Y61625D01*
G01X172342Y62225D01*
G01X172342Y61625D02*
G01X172342Y49626D01*
G01X172942Y49626D01*
G01X172942Y49026D01*
G01X171742Y47825D02*
G01X167942Y47825D01*
G01X167942Y48426D01*
G01X171742Y48426D01*
G01X167942Y48426D02*
G01X166142Y48426D01*
G01X166142Y47426D01*
G01X164142Y47426D01*
G01X164142Y48426D01*
G01X162342Y48426D01*
G01X162342Y47825D01*
G01X158542Y47825D01*
G01X157342Y49026D02*
G01X157342Y49626D01*
G01X157942Y49626D01*
G01X157942Y49026D01*
G01X157942Y49626D02*
G01X157942Y61625D01*
G01X157342Y61625D01*
G01X157342Y62225D01*
G01X164142Y62825D02*
G01X166142Y62825D01*
G01X167942Y62825D02*
G01X171742Y62825D01*
G01X172342Y49626D02*
G01X172342Y49026D01*
G01X166142Y48426D02*
G01X164142Y48426D01*
G01X162342Y48426D02*
G01X158542Y48426D01*
G01X157942Y61625D02*
G01X157942Y62225D01*
G01X159251Y83018D02*
G01X161052Y83018D01*
G01X161052Y84018D01*
G01X163051Y84018D01*
G01X163051Y83018D01*
G01X164852Y83018D01*
G01X164852Y83619D01*
G01X168651Y83619D01*
G01X155452Y83619D02*
G01X159251Y83619D01*
G01X159251Y83018D01*
G01X155452Y83018D01*
G01X169852Y82418D02*
G01X169852Y81818D01*
G01X169251Y81818D01*
G01X169251Y82418D01*
G01X169251Y81818D02*
G01X169251Y69819D01*
G01X169852Y69819D01*
G01X169852Y69219D01*
G01X168651Y68018D02*
G01X164852Y68018D01*
G01X164852Y68619D01*
G01X168651Y68619D01*
G01X164852Y68619D02*
G01X163051Y68619D01*
G01X163051Y67619D01*
G01X161052Y67619D01*
G01X161052Y68619D01*
G01X159251Y68619D01*
G01X159251Y68018D01*
G01X155452Y68018D01*
G01X154251Y69219D02*
G01X154251Y69819D01*
G01X154852Y69819D01*
G01X154852Y69219D01*
G01X154852Y69819D02*
G01X154852Y81818D01*
G01X154251Y81818D01*
G01X154251Y82418D01*
G01X161052Y83018D02*
G01X163051Y83018D01*
G01X164852Y83018D02*
G01X168651Y83018D01*
G01X169251Y69819D02*
G01X169251Y69219D01*
G01X163051Y68619D02*
G01X161052Y68619D01*
G01X159251Y68619D02*
G01X155452Y68619D01*
G01X154852Y81818D02*
G01X154852Y82418D01*
G01X179984Y41997D02*
G01X181784Y41997D01*
G01X181784Y42997D01*
G01X183784Y42997D01*
G01X183784Y41997D01*
G01X185584Y41997D01*
G01X185584Y42598D01*
G01X189384Y42598D01*
G01X176184Y42598D02*
G01X179984Y42598D01*
G01X179984Y41997D01*
G01X176184Y41997D01*
G01X190584Y41397D02*
G01X190584Y40797D01*
G01X189984Y40797D01*
G01X189984Y41397D01*
G01X189984Y40797D02*
G01X189984Y28798D01*
G01X190584Y28798D01*
G01X190584Y28198D01*
G01X189384Y26997D02*
G01X185584Y26997D01*
G01X185584Y27598D01*
G01X189384Y27598D01*
G01X185584Y27598D02*
G01X183784Y27598D01*
G01X183784Y26598D01*
G01X181784Y26598D01*
G01X181784Y27598D01*
G01X179984Y27598D01*
G01X179984Y26997D01*
G01X176184Y26997D01*
G01X174984Y28198D02*
G01X174984Y28798D01*
G01X175584Y28798D01*
G01X175584Y28198D01*
G01X175584Y28798D02*
G01X175584Y40797D01*
G01X174984Y40797D01*
G01X174984Y41397D01*
G01X181784Y41997D02*
G01X183784Y41997D01*
G01X185584Y41997D02*
G01X189384Y41997D01*
G01X189984Y28798D02*
G01X189984Y28198D01*
G01X183784Y27598D02*
G01X181784Y27598D01*
G01X179984Y27598D02*
G01X176184Y27598D01*
G01X175584Y40797D02*
G01X175584Y41397D01*
G01X182775Y62825D02*
G01X184575Y62825D01*
G01X184575Y63825D01*
G01X186575Y63825D01*
G01X186575Y62825D01*
G01X188375Y62825D01*
G01X188375Y63426D01*
G01X192175Y63426D01*
G01X178975Y63426D02*
G01X182775Y63426D01*
G01X182775Y62825D01*
G01X178975Y62825D01*
G01X193375Y62225D02*
G01X193375Y61625D01*
G01X192775Y61625D01*
G01X192775Y62225D01*
G01X192775Y61625D02*
G01X192775Y49626D01*
G01X193375Y49626D01*
G01X193375Y49026D01*
G01X192175Y47825D02*
G01X188375Y47825D01*
G01X188375Y48426D01*
G01X192175Y48426D01*
G01X188375Y48426D02*
G01X186575Y48426D01*
G01X186575Y47426D01*
G01X184575Y47426D01*
G01X184575Y48426D01*
G01X182775Y48426D01*
G01X182775Y47825D01*
G01X178975Y47825D01*
G01X177775Y49026D02*
G01X177775Y49626D01*
G01X178375Y49626D01*
G01X178375Y49026D01*
G01X178375Y49626D02*
G01X178375Y61625D01*
G01X177775Y61625D01*
G01X177775Y62225D01*
G01X184575Y62825D02*
G01X186575Y62825D01*
G01X188375Y62825D02*
G01X192175Y62825D01*
G01X192775Y49626D02*
G01X192775Y49026D01*
G01X186575Y48426D02*
G01X184575Y48426D01*
G01X182775Y48426D02*
G01X178975Y48426D01*
G01X178375Y61625D02*
G01X178375Y62225D01*
G01X179825Y83018D02*
G01X181626Y83018D01*
G01X181626Y84018D01*
G01X183625Y84018D01*
G01X183625Y83018D01*
G01X185426Y83018D01*
G01X185426Y83619D01*
G01X189225Y83619D01*
G01X176026Y83619D02*
G01X179825Y83619D01*
G01X179825Y83018D01*
G01X176026Y83018D01*
G01X190426Y82418D02*
G01X190426Y81818D01*
G01X189825Y81818D01*
G01X189825Y82418D01*
G01X189825Y81818D02*
G01X189825Y69819D01*
G01X190426Y69819D01*
G01X190426Y69219D01*
G01X189225Y68018D02*
G01X185426Y68018D01*
G01X185426Y68619D01*
G01X189225Y68619D01*
G01X185426Y68619D02*
G01X183625Y68619D01*
G01X183625Y67619D01*
G01X181626Y67619D01*
G01X181626Y68619D01*
G01X179825Y68619D01*
G01X179825Y68018D01*
G01X176026Y68018D01*
G01X174825Y69219D02*
G01X174825Y69819D01*
G01X175426Y69819D01*
G01X175426Y69219D01*
G01X175426Y69819D02*
G01X175426Y81818D01*
G01X174825Y81818D01*
G01X174825Y82418D01*
G01X181626Y83018D02*
G01X183625Y83018D01*
G01X185426Y83018D02*
G01X189225Y83018D01*
G01X189825Y69819D02*
G01X189825Y69219D01*
G01X183625Y68619D02*
G01X181626Y68619D01*
G01X179825Y68619D02*
G01X176026Y68619D01*
G01X175426Y81818D02*
G01X175426Y82418D01*
G01X226307Y41997D02*
G01X228108Y41997D01*
G01X228108Y42997D01*
G01X230107Y42997D01*
G01X230107Y41997D01*
G01X231908Y41997D01*
G01X231908Y42598D01*
G01X235707Y42598D01*
G01X222508Y42598D02*
G01X226307Y42598D01*
G01X226307Y41997D01*
G01X222508Y41997D01*
G01X236908Y41397D02*
G01X236908Y40797D01*
G01X236307Y40797D01*
G01X236307Y41397D01*
G01X236307Y40797D02*
G01X236307Y28798D01*
G01X236908Y28798D01*
G01X236908Y28198D01*
G01X235707Y26997D02*
G01X231908Y26997D01*
G01X231908Y27598D01*
G01X235707Y27598D01*
G01X231908Y27598D02*
G01X230107Y27598D01*
G01X230107Y26598D01*
G01X228108Y26598D01*
G01X228108Y27598D01*
G01X226307Y27598D01*
G01X226307Y26997D01*
G01X222508Y26997D01*
G01X221307Y28198D02*
G01X221307Y28798D01*
G01X221908Y28798D01*
G01X221908Y28198D01*
G01X221908Y28798D02*
G01X221908Y40797D01*
G01X221307Y40797D01*
G01X221307Y41397D01*
G01X228108Y41997D02*
G01X230107Y41997D01*
G01X231908Y41997D02*
G01X235707Y41997D01*
G01X236307Y28798D02*
G01X236307Y28198D01*
G01X230107Y27598D02*
G01X228108Y27598D01*
G01X226307Y27598D02*
G01X222508Y27598D01*
G01X221908Y40797D02*
G01X221908Y41397D01*
G01X203208Y62825D02*
G01X205008Y62825D01*
G01X205008Y63825D01*
G01X207008Y63825D01*
G01X207008Y62825D01*
G01X208808Y62825D01*
G01X208808Y63426D01*
G01X212608Y63426D01*
G01X199408Y63426D02*
G01X203208Y63426D01*
G01X203208Y62825D01*
G01X199408Y62825D01*
G01X213808Y62225D02*
G01X213808Y61625D01*
G01X213208Y61625D01*
G01X213208Y62225D01*
G01X213208Y61625D02*
G01X213208Y49626D01*
G01X213808Y49626D01*
G01X213808Y49026D01*
G01X212608Y47825D02*
G01X208808Y47825D01*
G01X208808Y48426D01*
G01X212608Y48426D01*
G01X208808Y48426D02*
G01X207008Y48426D01*
G01X207008Y47426D01*
G01X205008Y47426D01*
G01X205008Y48426D01*
G01X203208Y48426D01*
G01X203208Y47825D01*
G01X199408Y47825D01*
G01X198208Y49026D02*
G01X198208Y49626D01*
G01X198808Y49626D01*
G01X198808Y49026D01*
G01X198808Y49626D02*
G01X198808Y61625D01*
G01X198208Y61625D01*
G01X198208Y62225D01*
G01X205008Y62825D02*
G01X207008Y62825D01*
G01X208808Y62825D02*
G01X212608Y62825D01*
G01X213208Y49626D02*
G01X213208Y49026D01*
G01X207008Y48426D02*
G01X205008Y48426D01*
G01X203208Y48426D02*
G01X199408Y48426D01*
G01X198808Y61625D02*
G01X198808Y62225D01*
G01X200442Y83018D02*
G01X202242Y83018D01*
G01X202242Y84018D01*
G01X204242Y84018D01*
G01X204242Y83018D01*
G01X206042Y83018D01*
G01X206042Y83619D01*
G01X209842Y83619D01*
G01X196642Y83619D02*
G01X200442Y83619D01*
G01X200442Y83018D01*
G01X196642Y83018D01*
G01X211042Y82418D02*
G01X211042Y81818D01*
G01X210442Y81818D01*
G01X210442Y82418D01*
G01X210442Y81818D02*
G01X210442Y69819D01*
G01X211042Y69819D01*
G01X211042Y69219D01*
G01X209842Y68018D02*
G01X206042Y68018D01*
G01X206042Y68619D01*
G01X209842Y68619D01*
G01X206042Y68619D02*
G01X204242Y68619D01*
G01X204242Y67619D01*
G01X202242Y67619D01*
G01X202242Y68619D01*
G01X200442Y68619D01*
G01X200442Y68018D01*
G01X196642Y68018D01*
G01X195442Y69219D02*
G01X195442Y69819D01*
G01X196042Y69819D01*
G01X196042Y69219D01*
G01X196042Y69819D02*
G01X196042Y81818D01*
G01X195442Y81818D01*
G01X195442Y82418D01*
G01X202242Y83018D02*
G01X204242Y83018D01*
G01X206042Y83018D02*
G01X209842Y83018D01*
G01X210442Y69819D02*
G01X210442Y69219D01*
G01X204242Y68619D02*
G01X202242Y68619D01*
G01X200442Y68619D02*
G01X196642Y68619D01*
G01X196042Y81818D02*
G01X196042Y82418D01*
G01X119373Y21931D02*
G01X121174Y21931D01*
G01X121174Y22931D01*
G01X123173Y22931D01*
G01X123173Y21931D01*
G01X124974Y21931D01*
G01X124974Y22532D01*
G01X128773Y22532D01*
G01X115574Y22532D02*
G01X119373Y22532D01*
G01X119373Y21931D01*
G01X115574Y21931D01*
G01X129974Y21331D02*
G01X129974Y20731D01*
G01X129373Y20731D01*
G01X129373Y21331D01*
G01X129373Y20731D02*
G01X129373Y8732D01*
G01X129974Y8732D01*
G01X129974Y8132D01*
G01X128773Y6931D02*
G01X124974Y6931D01*
G01X124974Y7532D01*
G01X128773Y7532D01*
G01X124974Y7532D02*
G01X123173Y7532D01*
G01X123173Y6532D01*
G01X121174Y6532D01*
G01X121174Y7532D01*
G01X119373Y7532D01*
G01X119373Y6931D01*
G01X115574Y6931D01*
G01X114373Y8132D02*
G01X114373Y8732D01*
G01X114974Y8732D01*
G01X114974Y8132D01*
G01X114974Y8732D02*
G01X114974Y20731D01*
G01X114373Y20731D01*
G01X114373Y21331D01*
G01X121174Y21931D02*
G01X123173Y21931D01*
G01X124974Y21931D02*
G01X128773Y21931D01*
G01X129373Y8732D02*
G01X129373Y8132D01*
G01X123173Y7532D02*
G01X121174Y7532D01*
G01X119373Y7532D02*
G01X115574Y7532D01*
G01X114974Y20731D02*
G01X114974Y21331D01*
G01X232149Y62825D02*
G01X233950Y62825D01*
G01X233950Y63825D01*
G01X235949Y63825D01*
G01X235949Y62825D01*
G01X237750Y62825D01*
G01X237750Y63426D01*
G01X241549Y63426D01*
G01X228350Y63426D02*
G01X232149Y63426D01*
G01X232149Y62825D01*
G01X228350Y62825D01*
G01X242750Y62225D02*
G01X242750Y61625D01*
G01X242149Y61625D01*
G01X242149Y62225D01*
G01X242149Y61625D02*
G01X242149Y49626D01*
G01X242750Y49626D01*
G01X242750Y49026D01*
G01X241549Y47825D02*
G01X237750Y47825D01*
G01X237750Y48426D01*
G01X241549Y48426D01*
G01X237750Y48426D02*
G01X235949Y48426D01*
G01X235949Y47426D01*
G01X233950Y47426D01*
G01X233950Y48426D01*
G01X232149Y48426D01*
G01X232149Y47825D01*
G01X228350Y47825D01*
G01X227149Y49026D02*
G01X227149Y49626D01*
G01X227750Y49626D01*
G01X227750Y49026D01*
G01X227750Y49626D02*
G01X227750Y61625D01*
G01X227149Y61625D01*
G01X227149Y62225D01*
G01X233950Y62825D02*
G01X235949Y62825D01*
G01X237750Y62825D02*
G01X241549Y62825D01*
G01X242149Y49626D02*
G01X242149Y49026D01*
G01X235949Y48426D02*
G01X233950Y48426D01*
G01X232149Y48426D02*
G01X228350Y48426D01*
G01X227750Y61625D02*
G01X227750Y62225D01*
G01X220973Y83018D02*
G01X222774Y83018D01*
G01X222774Y84018D01*
G01X224773Y84018D01*
G01X224773Y83018D01*
G01X226574Y83018D01*
G01X226574Y83619D01*
G01X230373Y83619D01*
G01X217174Y83619D02*
G01X220973Y83619D01*
G01X220973Y83018D01*
G01X217174Y83018D01*
G01X231574Y82418D02*
G01X231574Y81818D01*
G01X230973Y81818D01*
G01X230973Y82418D01*
G01X230973Y81818D02*
G01X230973Y69819D01*
G01X231574Y69819D01*
G01X231574Y69219D01*
G01X230373Y68018D02*
G01X226574Y68018D01*
G01X226574Y68619D01*
G01X230373Y68619D01*
G01X226574Y68619D02*
G01X224773Y68619D01*
G01X224773Y67619D01*
G01X222774Y67619D01*
G01X222774Y68619D01*
G01X220973Y68619D01*
G01X220973Y68018D01*
G01X217174Y68018D01*
G01X215973Y69219D02*
G01X215973Y69819D01*
G01X216574Y69819D01*
G01X216574Y69219D01*
G01X216574Y69819D02*
G01X216574Y81818D01*
G01X215973Y81818D01*
G01X215973Y82418D01*
G01X222774Y83018D02*
G01X224773Y83018D01*
G01X226574Y83018D02*
G01X230373Y83018D01*
G01X230973Y69819D02*
G01X230973Y69219D01*
G01X224773Y68619D02*
G01X222774Y68619D01*
G01X220973Y68619D02*
G01X217174Y68619D01*
G01X216574Y81818D02*
G01X216574Y82418D01*
G54D12*
G01X24384Y3556D02*
G01X24384Y6070D01*
G01X29464Y6070D01*
G01X29464Y3556D01*
G01X24384Y3556D01*
G54D10*
G01X9010Y103338D02*
G01X10811Y103338D01*
G01X10811Y104338D01*
G01X12810Y104338D01*
G01X12810Y103338D01*
G01X14611Y103338D01*
G01X14611Y103939D01*
G01X18410Y103939D01*
G01X5211Y103939D02*
G01X9010Y103939D01*
G01X9010Y103338D01*
G01X5211Y103338D01*
G01X19611Y102738D02*
G01X19611Y102138D01*
G01X19010Y102138D01*
G01X19010Y102738D01*
G01X19010Y102138D02*
G01X19010Y90139D01*
G01X19611Y90139D01*
G01X19611Y89539D01*
G01X18410Y88338D02*
G01X14611Y88338D01*
G01X14611Y88939D01*
G01X18410Y88939D01*
G01X14611Y88939D02*
G01X12810Y88939D01*
G01X12810Y87939D01*
G01X10811Y87939D01*
G01X10811Y88939D01*
G01X9010Y88939D01*
G01X9010Y88338D01*
G01X5211Y88338D01*
G01X4010Y89539D02*
G01X4010Y90139D01*
G01X4611Y90139D01*
G01X4611Y89539D01*
G01X4611Y90139D02*
G01X4611Y102138D01*
G01X4010Y102138D01*
G01X4010Y102738D01*
G01X10811Y103338D02*
G01X12810Y103338D01*
G01X14611Y103338D02*
G01X18410Y103338D01*
G01X19010Y90139D02*
G01X19010Y89539D01*
G01X12810Y88939D02*
G01X10811Y88939D01*
G01X9010Y88939D02*
G01X5211Y88939D01*
G01X4611Y102138D02*
G01X4611Y102738D01*
G01X11804Y83018D02*
G01X13605Y83018D01*
G01X13605Y84018D01*
G01X15604Y84018D01*
G01X15604Y83018D01*
G01X17405Y83018D01*
G01X17405Y83619D01*
G01X21204Y83619D01*
G01X8005Y83619D02*
G01X11804Y83619D01*
G01X11804Y83018D01*
G01X8005Y83018D01*
G01X22405Y82418D02*
G01X22405Y81818D01*
G01X21804Y81818D01*
G01X21804Y82418D01*
G01X21804Y81818D02*
G01X21804Y69819D01*
G01X22405Y69819D01*
G01X22405Y69219D01*
G01X21204Y68018D02*
G01X17405Y68018D01*
G01X17405Y68619D01*
G01X21204Y68619D01*
G01X17405Y68619D02*
G01X15604Y68619D01*
G01X15604Y67619D01*
G01X13605Y67619D01*
G01X13605Y68619D01*
G01X11804Y68619D01*
G01X11804Y68018D01*
G01X8005Y68018D01*
G01X6804Y69219D02*
G01X6804Y69819D01*
G01X7405Y69819D01*
G01X7405Y69219D01*
G01X7405Y69819D02*
G01X7405Y81818D01*
G01X6804Y81818D01*
G01X6804Y82418D01*
G01X13605Y83018D02*
G01X15604Y83018D01*
G01X17405Y83018D02*
G01X21204Y83018D01*
G01X21804Y69819D02*
G01X21804Y69219D01*
G01X15604Y68619D02*
G01X13605Y68619D01*
G01X11804Y68619D02*
G01X8005Y68619D01*
G01X7405Y81818D02*
G01X7405Y82418D01*
G01X13963Y62825D02*
G01X15764Y62825D01*
G01X15764Y63825D01*
G01X17763Y63825D01*
G01X17763Y62825D01*
G01X19564Y62825D01*
G01X19564Y63426D01*
G01X23363Y63426D01*
G01X10164Y63426D02*
G01X13963Y63426D01*
G01X13963Y62825D01*
G01X10164Y62825D01*
G01X24564Y62225D02*
G01X24564Y61625D01*
G01X23963Y61625D01*
G01X23963Y62225D01*
G01X23963Y61625D02*
G01X23963Y49626D01*
G01X24564Y49626D01*
G01X24564Y49026D01*
G01X23363Y47825D02*
G01X19564Y47825D01*
G01X19564Y48426D01*
G01X23363Y48426D01*
G01X19564Y48426D02*
G01X17763Y48426D01*
G01X17763Y47426D01*
G01X15764Y47426D01*
G01X15764Y48426D01*
G01X13963Y48426D01*
G01X13963Y47825D01*
G01X10164Y47825D01*
G01X8963Y49026D02*
G01X8963Y49626D01*
G01X9564Y49626D01*
G01X9564Y49026D01*
G01X9564Y49626D02*
G01X9564Y61625D01*
G01X8963Y61625D01*
G01X8963Y62225D01*
G01X15764Y62825D02*
G01X17763Y62825D01*
G01X19564Y62825D02*
G01X23363Y62825D01*
G01X23963Y49626D02*
G01X23963Y49026D01*
G01X17763Y48426D02*
G01X15764Y48426D01*
G01X13963Y48426D02*
G01X10164Y48426D01*
G01X9564Y61625D02*
G01X9564Y62225D01*
G01X37966Y41997D02*
G01X39767Y41997D01*
G01X39767Y42997D01*
G01X41766Y42997D01*
G01X41766Y41997D01*
G01X43567Y41997D01*
G01X43567Y42598D01*
G01X47366Y42598D01*
G01X34167Y42598D02*
G01X37966Y42598D01*
G01X37966Y41997D01*
G01X34167Y41997D01*
G01X48567Y41397D02*
G01X48567Y40797D01*
G01X47966Y40797D01*
G01X47966Y41397D01*
G01X47966Y40797D02*
G01X47966Y28798D01*
G01X48567Y28798D01*
G01X48567Y28198D01*
G01X47366Y26997D02*
G01X43567Y26997D01*
G01X43567Y27598D01*
G01X47366Y27598D01*
G01X43567Y27598D02*
G01X41766Y27598D01*
G01X41766Y26598D01*
G01X39767Y26598D01*
G01X39767Y27598D01*
G01X37966Y27598D01*
G01X37966Y26997D01*
G01X34167Y26997D01*
G01X32966Y28198D02*
G01X32966Y28798D01*
G01X33567Y28798D01*
G01X33567Y28198D01*
G01X33567Y28798D02*
G01X33567Y40797D01*
G01X32966Y40797D01*
G01X32966Y41397D01*
G01X39767Y41997D02*
G01X41766Y41997D01*
G01X43567Y41997D02*
G01X47366Y41997D01*
G01X47966Y28798D02*
G01X47966Y28198D01*
G01X41766Y27598D02*
G01X39767Y27598D01*
G01X37966Y27598D02*
G01X34167Y27598D01*
G01X33567Y40797D02*
G01X33567Y41397D01*
G01X35807Y21931D02*
G01X37608Y21931D01*
G01X37608Y22931D01*
G01X39607Y22931D01*
G01X39607Y21931D01*
G01X41408Y21931D01*
G01X41408Y22532D01*
G01X45207Y22532D01*
G01X32008Y22532D02*
G01X35807Y22532D01*
G01X35807Y21931D01*
G01X32008Y21931D01*
G01X46408Y21331D02*
G01X46408Y20731D01*
G01X45807Y20731D01*
G01X45807Y21331D01*
G01X45807Y20731D02*
G01X45807Y8732D01*
G01X46408Y8732D01*
G01X46408Y8132D01*
G01X45207Y6931D02*
G01X41408Y6931D01*
G01X41408Y7532D01*
G01X45207Y7532D01*
G01X41408Y7532D02*
G01X39607Y7532D01*
G01X39607Y6532D01*
G01X37608Y6532D01*
G01X37608Y7532D01*
G01X35807Y7532D01*
G01X35807Y6931D01*
G01X32008Y6931D01*
G01X30807Y8132D02*
G01X30807Y8732D01*
G01X31408Y8732D01*
G01X31408Y8132D01*
G01X31408Y8732D02*
G01X31408Y20731D01*
G01X30807Y20731D01*
G01X30807Y21331D01*
G01X37608Y21931D02*
G01X39607Y21931D01*
G01X41408Y21931D02*
G01X45207Y21931D01*
G01X45807Y8732D02*
G01X45807Y8132D01*
G01X39607Y7532D02*
G01X37608Y7532D01*
G01X35807Y7532D02*
G01X32008Y7532D01*
G01X31408Y20731D02*
G01X31408Y21331D01*
G01X12439Y21931D02*
G01X14240Y21931D01*
G01X14240Y22931D01*
G01X16239Y22931D01*
G01X16239Y21931D01*
G01X18040Y21931D01*
G01X18040Y22532D01*
G01X21839Y22532D01*
G01X8640Y22532D02*
G01X12439Y22532D01*
G01X12439Y21931D01*
G01X8640Y21931D01*
G01X23040Y21331D02*
G01X23040Y20731D01*
G01X22439Y20731D01*
G01X22439Y21331D01*
G01X22439Y20731D02*
G01X22439Y8732D01*
G01X23040Y8732D01*
G01X23040Y8132D01*
G01X21839Y6931D02*
G01X18040Y6931D01*
G01X18040Y7532D01*
G01X21839Y7532D01*
G01X18040Y7532D02*
G01X16239Y7532D01*
G01X16239Y6532D01*
G01X14240Y6532D01*
G01X14240Y7532D01*
G01X12439Y7532D01*
G01X12439Y6931D01*
G01X8640Y6931D01*
G01X7439Y8132D02*
G01X7439Y8732D01*
G01X8040Y8732D01*
G01X8040Y8132D01*
G01X8040Y8732D02*
G01X8040Y20731D01*
G01X7439Y20731D01*
G01X7439Y21331D01*
G01X14240Y21931D02*
G01X16239Y21931D01*
G01X18040Y21931D02*
G01X21839Y21931D01*
G01X22439Y8732D02*
G01X22439Y8132D01*
G01X16239Y7532D02*
G01X14240Y7532D01*
G01X12439Y7532D02*
G01X8640Y7532D01*
G01X8040Y20731D02*
G01X8040Y21331D01*
G01X236086Y21931D02*
G01X237887Y21931D01*
G01X237887Y22931D01*
G01X239886Y22931D01*
G01X239886Y21931D01*
G01X241687Y21931D01*
G01X241687Y22532D01*
G01X245486Y22532D01*
G01X232287Y22532D02*
G01X236086Y22532D01*
G01X236086Y21931D01*
G01X232287Y21931D01*
G01X246687Y21331D02*
G01X246687Y20731D01*
G01X246086Y20731D01*
G01X246086Y21331D01*
G01X246086Y20731D02*
G01X246086Y8732D01*
G01X246687Y8732D01*
G01X246687Y8132D01*
G01X245486Y6931D02*
G01X241687Y6931D01*
G01X241687Y7532D01*
G01X245486Y7532D01*
G01X241687Y7532D02*
G01X239886Y7532D01*
G01X239886Y6532D01*
G01X237887Y6532D01*
G01X237887Y7532D01*
G01X236086Y7532D01*
G01X236086Y6931D01*
G01X232287Y6931D01*
G01X231086Y8132D02*
G01X231086Y8732D01*
G01X231687Y8732D01*
G01X231687Y8132D01*
G01X231687Y8732D02*
G01X231687Y20731D01*
G01X231086Y20731D01*
G01X231086Y21331D01*
G01X237887Y21931D02*
G01X239886Y21931D01*
G01X241687Y21931D02*
G01X245486Y21931D01*
G01X246086Y8732D02*
G01X246086Y8132D01*
G01X239886Y7532D02*
G01X237887Y7532D01*
G01X236086Y7532D02*
G01X232287Y7532D01*
G01X231687Y20731D02*
G01X231687Y21331D01*
G01X214623Y21931D02*
G01X216424Y21931D01*
G01X216424Y22931D01*
G01X218423Y22931D01*
G01X218423Y21931D01*
G01X220224Y21931D01*
G01X220224Y22532D01*
G01X224023Y22532D01*
G01X210824Y22532D02*
G01X214623Y22532D01*
G01X214623Y21931D01*
G01X210824Y21931D01*
G01X225224Y21331D02*
G01X225224Y20731D01*
G01X224623Y20731D01*
G01X224623Y21331D01*
G01X224623Y20731D02*
G01X224623Y8732D01*
G01X225224Y8732D01*
G01X225224Y8132D01*
G01X224023Y6931D02*
G01X220224Y6931D01*
G01X220224Y7532D01*
G01X224023Y7532D01*
G01X220224Y7532D02*
G01X218423Y7532D01*
G01X218423Y6532D01*
G01X216424Y6532D01*
G01X216424Y7532D01*
G01X214623Y7532D01*
G01X214623Y6931D01*
G01X210824Y6931D01*
G01X209623Y8132D02*
G01X209623Y8732D01*
G01X210224Y8732D01*
G01X210224Y8132D01*
G01X210224Y8732D02*
G01X210224Y20731D01*
G01X209623Y20731D01*
G01X209623Y21331D01*
G01X216424Y21931D02*
G01X218423Y21931D01*
G01X220224Y21931D02*
G01X224023Y21931D01*
G01X224623Y8732D02*
G01X224623Y8132D01*
G01X218423Y7532D02*
G01X216424Y7532D01*
G01X214623Y7532D02*
G01X210824Y7532D01*
G01X210224Y20731D02*
G01X210224Y21331D01*
G01X200272Y41997D02*
G01X202073Y41997D01*
G01X202073Y42997D01*
G01X204072Y42997D01*
G01X204072Y41997D01*
G01X205873Y41997D01*
G01X205873Y42598D01*
G01X209672Y42598D01*
G01X196473Y42598D02*
G01X200272Y42598D01*
G01X200272Y41997D01*
G01X196473Y41997D01*
G01X210873Y41397D02*
G01X210873Y40797D01*
G01X210272Y40797D01*
G01X210272Y41397D01*
G01X210272Y40797D02*
G01X210272Y28798D01*
G01X210873Y28798D01*
G01X210873Y28198D01*
G01X209672Y26997D02*
G01X205873Y26997D01*
G01X205873Y27598D01*
G01X209672Y27598D01*
G01X205873Y27598D02*
G01X204072Y27598D01*
G01X204072Y26598D01*
G01X202073Y26598D01*
G01X202073Y27598D01*
G01X200272Y27598D01*
G01X200272Y26997D01*
G01X196473Y26997D01*
G01X195272Y28198D02*
G01X195272Y28798D01*
G01X195873Y28798D01*
G01X195873Y28198D01*
G01X195873Y28798D02*
G01X195873Y40797D01*
G01X195272Y40797D01*
G01X195272Y41397D01*
G01X202073Y41997D02*
G01X204072Y41997D01*
G01X205873Y41997D02*
G01X209672Y41997D01*
G01X210272Y28798D02*
G01X210272Y28198D01*
G01X204072Y27598D02*
G01X202073Y27598D01*
G01X200272Y27598D02*
G01X196473Y27598D01*
G01X195873Y40797D02*
G01X195873Y41397D01*
G01X214242Y103338D02*
G01X216043Y103338D01*
G01X216043Y104338D01*
G01X218042Y104338D01*
G01X218042Y103338D01*
G01X219843Y103338D01*
G01X219843Y103939D01*
G01X223642Y103939D01*
G01X210443Y103939D02*
G01X214242Y103939D01*
G01X214242Y103338D01*
G01X210443Y103338D01*
G01X224843Y102738D02*
G01X224843Y102138D01*
G01X224242Y102138D01*
G01X224242Y102738D01*
G01X224242Y102138D02*
G01X224242Y90139D01*
G01X224843Y90139D01*
G01X224843Y89539D01*
G01X223642Y88338D02*
G01X219843Y88338D01*
G01X219843Y88939D01*
G01X223642Y88939D01*
G01X219843Y88939D02*
G01X218042Y88939D01*
G01X218042Y87939D01*
G01X216043Y87939D01*
G01X216043Y88939D01*
G01X214242Y88939D01*
G01X214242Y88338D01*
G01X210443Y88338D01*
G01X209242Y89539D02*
G01X209242Y90139D01*
G01X209843Y90139D01*
G01X209843Y89539D01*
G01X209843Y90139D02*
G01X209843Y102138D01*
G01X209242Y102138D01*
G01X209242Y102738D01*
G01X216043Y103338D02*
G01X218042Y103338D01*
G01X219843Y103338D02*
G01X223642Y103338D01*
G01X224242Y90139D02*
G01X224242Y89539D01*
G01X218042Y88939D02*
G01X216043Y88939D01*
G01X214242Y88939D02*
G01X210443Y88939D01*
G01X209843Y102138D02*
G01X209843Y102738D01*
G01X236340Y103338D02*
G01X238141Y103338D01*
G01X238141Y104338D01*
G01X240140Y104338D01*
G01X240140Y103338D01*
G01X241941Y103338D01*
G01X241941Y103939D01*
G01X245740Y103939D01*
G01X232541Y103939D02*
G01X236340Y103939D01*
G01X236340Y103338D01*
G01X232541Y103338D01*
G01X246941Y102738D02*
G01X246941Y102138D01*
G01X246340Y102138D01*
G01X246340Y102738D01*
G01X246340Y102138D02*
G01X246340Y90139D01*
G01X246941Y90139D01*
G01X246941Y89539D01*
G01X245740Y88338D02*
G01X241941Y88338D01*
G01X241941Y88939D01*
G01X245740Y88939D01*
G01X241941Y88939D02*
G01X240140Y88939D01*
G01X240140Y87939D01*
G01X238141Y87939D01*
G01X238141Y88939D01*
G01X236340Y88939D01*
G01X236340Y88338D01*
G01X232541Y88338D01*
G01X231340Y89539D02*
G01X231340Y90139D01*
G01X231941Y90139D01*
G01X231941Y89539D01*
G01X231941Y90139D02*
G01X231941Y102138D01*
G01X231340Y102138D01*
G01X231340Y102738D01*
G01X238141Y103338D02*
G01X240140Y103338D01*
G01X241941Y103338D02*
G01X245740Y103338D01*
G01X246340Y90139D02*
G01X246340Y89539D01*
G01X240140Y88939D02*
G01X238141Y88939D01*
G01X236340Y88939D02*
G01X232541Y88939D01*
G01X231941Y102138D02*
G01X231941Y102738D01*
G01X203248Y113360D02*
G01X203248Y109397D01*
G01X99590Y113868D02*
G01X99590Y109905D01*
G01X78889Y113360D02*
G01X78889Y109397D01*
G01X244701Y113360D02*
G01X244701Y109397D01*
G01X223974Y113360D02*
G01X223974Y109397D01*
G01X120342Y113360D02*
G01X120342Y109397D01*
G01X182521Y113360D02*
G01X182521Y109397D01*
G01X161795Y113360D02*
G01X161795Y109397D01*
G01X141069Y113360D02*
G01X141069Y109397D01*
G01X58163Y113360D02*
G01X58163Y109397D01*
G01X37437Y113360D02*
G01X37437Y109397D01*
G01X110525Y115527D02*
G01X114925Y115527D01*
G01X110525Y113326D02*
G01X114925Y113326D01*
G01X110525Y115527D02*
G01X110525Y113326D01*
G01X114925Y115527D02*
G01X114925Y113326D01*
G01X111464Y115527D02*
G01X111464Y113326D01*
G01X28076Y115527D02*
G01X32476Y115527D01*
G01X28076Y113326D02*
G01X32476Y113326D01*
G01X28076Y115527D02*
G01X28076Y113326D01*
G01X32476Y115527D02*
G01X32476Y113326D01*
G01X29016Y115527D02*
G01X29016Y113326D01*
G01X234197Y115527D02*
G01X238597Y115527D01*
G01X234197Y113326D02*
G01X238597Y113326D01*
G01X234197Y115527D02*
G01X234197Y113326D01*
G01X238597Y115527D02*
G01X238597Y113326D01*
G01X235137Y115527D02*
G01X235137Y113326D01*
G01X213585Y115527D02*
G01X217985Y115527D01*
G01X213585Y113326D02*
G01X217985Y113326D01*
G01X213585Y115527D02*
G01X213585Y113326D01*
G01X217985Y115527D02*
G01X217985Y113326D01*
G01X214525Y115527D02*
G01X214525Y113326D01*
G01X69301Y115527D02*
G01X73701Y115527D01*
G01X69301Y113326D02*
G01X73701Y113326D01*
G01X69301Y115527D02*
G01X69301Y113326D01*
G01X73701Y115527D02*
G01X73701Y113326D01*
G01X70240Y115527D02*
G01X70240Y113326D01*
G01X48688Y115527D02*
G01X53088Y115527D01*
G01X48688Y113326D02*
G01X53088Y113326D01*
G01X48688Y115527D02*
G01X48688Y113326D01*
G01X53088Y115527D02*
G01X53088Y113326D01*
G01X49628Y115527D02*
G01X49628Y113326D01*
G01X131137Y115527D02*
G01X135537Y115527D01*
G01X131137Y113326D02*
G01X135537Y113326D01*
G01X131137Y115527D02*
G01X131137Y113326D01*
G01X135537Y115527D02*
G01X135537Y113326D01*
G01X132076Y115527D02*
G01X132076Y113326D01*
G01X151749Y115527D02*
G01X156149Y115527D01*
G01X151749Y113326D02*
G01X156149Y113326D01*
G01X151749Y115527D02*
G01X151749Y113326D01*
G01X156149Y115527D02*
G01X156149Y113326D01*
G01X152688Y115527D02*
G01X152688Y113326D01*
G01X172361Y115527D02*
G01X176761Y115527D01*
G01X172361Y113326D02*
G01X176761Y113326D01*
G01X172361Y115527D02*
G01X172361Y113326D01*
G01X176761Y115527D02*
G01X176761Y113326D01*
G01X173300Y115527D02*
G01X173300Y113326D01*
G01X192973Y115527D02*
G01X197373Y115527D01*
G01X192973Y113326D02*
G01X197373Y113326D01*
G01X192973Y115527D02*
G01X192973Y113326D01*
G01X197373Y115527D02*
G01X197373Y113326D01*
G01X193912Y115527D02*
G01X193912Y113326D01*
G01X9865Y114003D02*
G01X14265Y114003D01*
G01X9865Y111802D02*
G01X14265Y111802D01*
G01X9865Y114003D02*
G01X9865Y111802D01*
G01X14265Y114003D02*
G01X14265Y111802D01*
G01X10804Y114003D02*
G01X10804Y111802D01*
G01X21803Y110066D02*
G01X26203Y110066D01*
G01X21803Y107865D02*
G01X26203Y107865D01*
G01X21803Y110066D02*
G01X21803Y107865D01*
G01X26203Y110066D02*
G01X26203Y107865D01*
G01X22742Y110066D02*
G01X22742Y107865D01*
G54D21*
G01X32334Y106989D02*
G01X32438Y107043D01*
G01X32593Y107198D01*
G01X32593Y106108D01*
G01X52908Y106939D02*
G01X52908Y106989D01*
G01X52961Y107094D01*
G01X53012Y107147D01*
G01X53116Y107198D01*
G01X53324Y107198D01*
G01X53428Y107147D01*
G01X53479Y107094D01*
G01X53533Y106989D01*
G01X53533Y106885D01*
G01X53479Y106781D01*
G01X53378Y106626D01*
G01X52857Y106108D01*
G01X53583Y106108D01*
G01X73484Y107198D02*
G01X74056Y107198D01*
G01X73743Y106781D01*
G01X73901Y106781D01*
G01X74002Y106730D01*
G01X74056Y106680D01*
G01X74107Y106522D01*
G01X74107Y106418D01*
G01X74056Y106263D01*
G01X73952Y106159D01*
G01X73797Y106108D01*
G01X73639Y106108D01*
G01X73484Y106159D01*
G01X73431Y106210D01*
G01X73380Y106314D01*
G01X94424Y107198D02*
G01X93903Y106471D01*
G01X94683Y106471D01*
G01X94424Y107198D02*
G01X94424Y106108D01*
G01X115049Y107198D02*
G01X114531Y107198D01*
G01X114477Y106730D01*
G01X114531Y106781D01*
G01X114686Y106834D01*
G01X114843Y106834D01*
G01X114998Y106781D01*
G01X115102Y106680D01*
G01X115153Y106522D01*
G01X115153Y106418D01*
G01X115102Y106263D01*
G01X114998Y106159D01*
G01X114843Y106108D01*
G01X114686Y106108D01*
G01X114531Y106159D01*
G01X114477Y106210D01*
G01X114426Y106314D01*
G01X135572Y107043D02*
G01X135521Y107147D01*
G01X135366Y107198D01*
G01X135262Y107198D01*
G01X135105Y107147D01*
G01X135000Y106989D01*
G01X134950Y106730D01*
G01X134950Y106471D01*
G01X135000Y106263D01*
G01X135105Y106159D01*
G01X135262Y106108D01*
G01X135313Y106108D01*
G01X135470Y106159D01*
G01X135572Y106263D01*
G01X135625Y106418D01*
G01X135625Y106471D01*
G01X135572Y106626D01*
G01X135470Y106730D01*
G01X135313Y106781D01*
G01X135262Y106781D01*
G01X135105Y106730D01*
G01X135000Y106626D01*
G01X134950Y106471D01*
G01X156199Y107198D02*
G01X155681Y106108D01*
G01X155473Y107198D02*
G01X156199Y107198D01*
G01X176255Y107198D02*
G01X176100Y107147D01*
G01X176047Y107043D01*
G01X176047Y106939D01*
G01X176100Y106834D01*
G01X176204Y106781D01*
G01X176413Y106730D01*
G01X176568Y106680D01*
G01X176672Y106575D01*
G01X176723Y106471D01*
G01X176723Y106314D01*
G01X176672Y106210D01*
G01X176618Y106159D01*
G01X176463Y106108D01*
G01X176255Y106108D01*
G01X176100Y106159D01*
G01X176047Y106210D01*
G01X175996Y106314D01*
G01X175996Y106471D01*
G01X176047Y106575D01*
G01X176151Y106680D01*
G01X176309Y106730D01*
G01X176517Y106781D01*
G01X176618Y106834D01*
G01X176672Y106939D01*
G01X176672Y107043D01*
G01X176618Y107147D01*
G01X176463Y107198D01*
G01X176255Y107198D01*
G01X197195Y106834D02*
G01X197142Y106680D01*
G01X197040Y106575D01*
G01X196883Y106522D01*
G01X196832Y106522D01*
G01X196674Y106575D01*
G01X196570Y106680D01*
G01X196519Y106834D01*
G01X196519Y106885D01*
G01X196570Y107043D01*
G01X196674Y107147D01*
G01X196832Y107198D01*
G01X196883Y107198D01*
G01X197040Y107147D01*
G01X197142Y107043D01*
G01X197195Y106834D01*
G01X197195Y106575D01*
G01X197142Y106314D01*
G01X197040Y106159D01*
G01X196883Y106108D01*
G01X196778Y106108D01*
G01X196623Y106159D01*
G01X196570Y106263D01*
G01X148475Y7630D02*
G01X148475Y6799D01*
G01X148422Y6642D01*
G01X148371Y6591D01*
G01X148267Y6540D01*
G01X148163Y6540D01*
G01X148059Y6591D01*
G01X148005Y6642D01*
G01X147955Y6799D01*
G01X147955Y6903D01*
G01X148818Y7630D02*
G01X148818Y6540D01*
G01X148818Y7630D02*
G01X149285Y7630D01*
G01X149440Y7579D01*
G01X149491Y7526D01*
G01X149545Y7421D01*
G01X149545Y7266D01*
G01X149491Y7162D01*
G01X149440Y7112D01*
G01X149285Y7058D01*
G01X148818Y7058D01*
G01X149938Y7371D02*
G01X149938Y7421D01*
G01X149992Y7526D01*
G01X150042Y7579D01*
G01X150147Y7630D01*
G01X150355Y7630D01*
G01X150459Y7579D01*
G01X150510Y7526D01*
G01X150563Y7421D01*
G01X150563Y7317D01*
G01X150510Y7213D01*
G01X150406Y7058D01*
G01X149887Y6540D01*
G01X150614Y6540D01*
G01X104533Y7884D02*
G01X104533Y7053D01*
G01X104480Y6896D01*
G01X104429Y6845D01*
G01X104325Y6794D01*
G01X104221Y6794D01*
G01X104117Y6845D01*
G01X104063Y6896D01*
G01X104013Y7053D01*
G01X104013Y7157D01*
G01X104876Y7884D02*
G01X104876Y6794D01*
G01X104876Y7884D02*
G01X105343Y7884D01*
G01X105498Y7833D01*
G01X105549Y7780D01*
G01X105603Y7675D01*
G01X105603Y7520D01*
G01X105549Y7416D01*
G01X105498Y7366D01*
G01X105343Y7312D01*
G01X104876Y7312D01*
G01X105945Y7675D02*
G01X106050Y7729D01*
G01X106205Y7884D01*
G01X106205Y6794D01*
G01X39301Y86878D02*
G01X39197Y86827D01*
G01X39093Y86723D01*
G01X39039Y86619D01*
G01X38989Y86461D01*
G01X38989Y86202D01*
G01X39039Y86047D01*
G01X39093Y85943D01*
G01X39197Y85839D01*
G01X39301Y85788D01*
G01X39509Y85788D01*
G01X39611Y85839D01*
G01X39715Y85943D01*
G01X39768Y86047D01*
G01X39819Y86202D01*
G01X39819Y86461D01*
G01X39768Y86619D01*
G01X39715Y86723D01*
G01X39611Y86827D01*
G01X39509Y86878D01*
G01X39301Y86878D01*
G01X39456Y85994D02*
G01X39768Y85684D01*
G01X42961Y66685D02*
G01X42545Y65595D01*
G01X42961Y66685D02*
G01X43375Y65595D01*
G01X42699Y65958D02*
G01X43220Y65958D01*
G01X17543Y45598D02*
G01X17490Y45702D01*
G01X17386Y45806D01*
G01X17284Y45857D01*
G01X17076Y45857D01*
G01X16972Y45806D01*
G01X16868Y45702D01*
G01X16814Y45598D01*
G01X16764Y45440D01*
G01X16764Y45181D01*
G01X16814Y45026D01*
G01X16868Y44922D01*
G01X16972Y44818D01*
G01X17076Y44767D01*
G01X17284Y44767D01*
G01X17386Y44818D01*
G01X17490Y44922D01*
G01X17543Y45026D01*
G01X18613Y45702D02*
G01X18508Y45806D01*
G01X18354Y45857D01*
G01X18145Y45857D01*
G01X17990Y45806D01*
G01X17886Y45702D01*
G01X17886Y45598D01*
G01X17937Y45493D01*
G01X17990Y45440D01*
G01X18094Y45389D01*
G01X18404Y45285D01*
G01X18508Y45234D01*
G01X18562Y45181D01*
G01X18613Y45077D01*
G01X18613Y44922D01*
G01X18508Y44818D01*
G01X18354Y44767D01*
G01X18145Y44767D01*
G01X17990Y44818D01*
G01X17886Y44922D01*
G01X61781Y45857D02*
G01X61055Y44767D01*
G01X61055Y45857D02*
G01X61781Y45857D01*
G01X61055Y44767D02*
G01X61781Y44767D01*
G01X63704Y66530D02*
G01X63600Y66634D01*
G01X63445Y66685D01*
G01X63236Y66685D01*
G01X63082Y66634D01*
G01X62977Y66530D01*
G01X62977Y66426D01*
G01X63028Y66321D01*
G01X63082Y66268D01*
G01X63186Y66217D01*
G01X63498Y66113D01*
G01X63600Y66062D01*
G01X63653Y66009D01*
G01X63704Y65905D01*
G01X63704Y65750D01*
G01X63600Y65646D01*
G01X63445Y65595D01*
G01X63236Y65595D01*
G01X63082Y65646D01*
G01X62977Y65750D01*
G01X59520Y86878D02*
G01X59779Y85788D01*
G01X60041Y86878D02*
G01X59779Y85788D01*
G01X60041Y86878D02*
G01X60300Y85788D01*
G01X60559Y86878D02*
G01X60300Y85788D01*
G01X81343Y45857D02*
G01X82069Y44767D01*
G01X82069Y45857D02*
G01X81343Y44767D01*
G01X83410Y66685D02*
G01X83410Y65595D01*
G01X83410Y66685D02*
G01X83773Y66685D01*
G01X83931Y66634D01*
G01X84033Y66530D01*
G01X84086Y66426D01*
G01X84137Y66268D01*
G01X84137Y66009D01*
G01X84086Y65854D01*
G01X84033Y65750D01*
G01X83931Y65646D01*
G01X83773Y65595D01*
G01X83410Y65595D01*
G01X80052Y86878D02*
G01X80052Y85788D01*
G01X80052Y86878D02*
G01X80727Y86878D01*
G01X80052Y86360D02*
G01X80468Y86360D01*
G01X80052Y85788D02*
G01X80727Y85788D01*
G01X102411Y45598D02*
G01X102358Y45702D01*
G01X102254Y45806D01*
G01X102152Y45857D01*
G01X101944Y45857D01*
G01X101840Y45806D01*
G01X101735Y45702D01*
G01X101682Y45598D01*
G01X101631Y45440D01*
G01X101631Y45181D01*
G01X101682Y45026D01*
G01X101735Y44922D01*
G01X101840Y44818D01*
G01X101944Y44767D01*
G01X102152Y44767D01*
G01X102254Y44818D01*
G01X102358Y44922D01*
G01X102411Y45026D01*
G01X103843Y66685D02*
G01X103843Y65595D01*
G01X103843Y66685D02*
G01X104519Y66685D01*
G01X103843Y66167D02*
G01X104260Y66167D01*
G01X100584Y86878D02*
G01X100584Y85788D01*
G01X100584Y86878D02*
G01X101051Y86878D01*
G01X101206Y86827D01*
G01X101259Y86774D01*
G01X101310Y86669D01*
G01X101310Y86565D01*
G01X101259Y86461D01*
G01X101206Y86410D01*
G01X101051Y86360D01*
G01X100584Y86360D01*
G01X100947Y86360D02*
G01X101310Y85788D01*
G01X121920Y45857D02*
G01X122336Y44767D01*
G01X122750Y45857D02*
G01X122336Y44767D01*
G01X125056Y66426D02*
G01X125003Y66530D01*
G01X124898Y66634D01*
G01X124797Y66685D01*
G01X124588Y66685D01*
G01X124484Y66634D01*
G01X124380Y66530D01*
G01X124327Y66426D01*
G01X124276Y66268D01*
G01X124276Y66009D01*
G01X124327Y65854D01*
G01X124380Y65750D01*
G01X124484Y65646D01*
G01X124588Y65595D01*
G01X124797Y65595D01*
G01X124898Y65646D01*
G01X125003Y65750D01*
G01X125056Y65854D01*
G01X125056Y66009D01*
G01X124797Y66009D02*
G01X125056Y66009D01*
G01X121478Y86878D02*
G01X121478Y85788D01*
G01X121115Y86878D02*
G01X121842Y86878D01*
G01X142208Y45857D02*
G01X142208Y44767D01*
G01X142208Y45857D02*
G01X142675Y45857D01*
G01X142830Y45806D01*
G01X142883Y45753D01*
G01X142934Y45648D01*
G01X142934Y45544D01*
G01X142883Y45440D01*
G01X142830Y45389D01*
G01X142675Y45339D01*
G01X142208Y45339D02*
G01X142675Y45339D01*
G01X142830Y45285D01*
G01X142883Y45234D01*
G01X142934Y45130D01*
G01X142934Y44973D01*
G01X142883Y44869D01*
G01X142830Y44818D01*
G01X142675Y44767D01*
G01X142208Y44767D01*
G01X144709Y66685D02*
G01X144709Y65595D01*
G01X145435Y66685D02*
G01X145435Y65595D01*
G01X144709Y66167D02*
G01X145435Y66167D01*
G01X141647Y86878D02*
G01X142063Y86360D01*
G01X142063Y85788D01*
G01X142477Y86878D02*
G01X142063Y86360D01*
G01X162496Y45857D02*
G01X162496Y44767D01*
G01X162496Y45857D02*
G01X163222Y44767D01*
G01X163222Y45857D02*
G01X163222Y44767D01*
G01X165662Y66685D02*
G01X165662Y65854D01*
G01X165609Y65697D01*
G01X165558Y65646D01*
G01X165454Y65595D01*
G01X165350Y65595D01*
G01X165246Y65646D01*
G01X165193Y65697D01*
G01X165142Y65854D01*
G01X165142Y65958D01*
G01X162052Y86878D02*
G01X162052Y86098D01*
G01X162102Y85943D01*
G01X162206Y85839D01*
G01X162364Y85788D01*
G01X162468Y85788D01*
G01X162623Y85839D01*
G01X162727Y85943D01*
G01X162778Y86098D01*
G01X162778Y86878D01*
G01X182784Y45857D02*
G01X182784Y44767D01*
G01X182784Y45857D02*
G01X183201Y44767D01*
G01X183615Y45857D02*
G01X183201Y44767D01*
G01X183615Y45857D02*
G01X183615Y44767D01*
G01X185575Y66685D02*
G01X185575Y65595D01*
G01X186301Y66685D02*
G01X185575Y65958D01*
G01X185834Y66217D02*
G01X186301Y65595D01*
G01X182626Y86878D02*
G01X182626Y85788D01*
G01X229834Y45702D02*
G01X229730Y45806D01*
G01X229575Y45857D01*
G01X229367Y45857D01*
G01X229212Y45806D01*
G01X229108Y45702D01*
G01X229108Y45598D01*
G01X229158Y45493D01*
G01X229212Y45440D01*
G01X229316Y45389D01*
G01X229628Y45285D01*
G01X229730Y45234D01*
G01X229783Y45181D01*
G01X229834Y45077D01*
G01X229834Y44922D01*
G01X229730Y44818D01*
G01X229575Y44767D01*
G01X229367Y44767D01*
G01X229212Y44818D01*
G01X229108Y44922D01*
G01X230906Y45702D02*
G01X230802Y45806D01*
G01X230644Y45857D01*
G01X230438Y45857D01*
G01X230281Y45806D01*
G01X230177Y45702D01*
G01X230177Y45598D01*
G01X230230Y45493D01*
G01X230281Y45440D01*
G01X230385Y45389D01*
G01X230698Y45285D01*
G01X230802Y45234D01*
G01X230852Y45181D01*
G01X230906Y45077D01*
G01X230906Y44922D01*
G01X230802Y44818D01*
G01X230644Y44767D01*
G01X230438Y44767D01*
G01X230281Y44818D01*
G01X230177Y44922D01*
G01X206008Y66685D02*
G01X206008Y65595D01*
G01X206008Y65595D02*
G01X206630Y65595D01*
G01X203554Y86878D02*
G01X203450Y86827D01*
G01X203346Y86723D01*
G01X203293Y86619D01*
G01X203242Y86461D01*
G01X203242Y86202D01*
G01X203293Y86047D01*
G01X203346Y85943D01*
G01X203450Y85839D01*
G01X203554Y85788D01*
G01X203762Y85788D01*
G01X203864Y85839D01*
G01X203968Y85943D01*
G01X204022Y86047D01*
G01X204072Y86202D01*
G01X204072Y86461D01*
G01X204022Y86619D01*
G01X203968Y86723D01*
G01X203864Y86827D01*
G01X203762Y86878D01*
G01X203554Y86878D01*
G01X122900Y25636D02*
G01X122796Y25740D01*
G01X122641Y25791D01*
G01X122433Y25791D01*
G01X122278Y25740D01*
G01X122174Y25636D01*
G01X122174Y25532D01*
G01X122224Y25427D01*
G01X122278Y25374D01*
G01X122382Y25323D01*
G01X122694Y25219D01*
G01X122796Y25168D01*
G01X122849Y25115D01*
G01X122900Y25011D01*
G01X122900Y24856D01*
G01X122796Y24752D01*
G01X122641Y24701D01*
G01X122433Y24701D01*
G01X122278Y24752D01*
G01X122174Y24856D01*
G01X123243Y25791D02*
G01X123243Y24701D01*
G01X123243Y25791D02*
G01X123710Y25791D01*
G01X123868Y25740D01*
G01X123918Y25687D01*
G01X123972Y25582D01*
G01X123972Y25427D01*
G01X123918Y25323D01*
G01X123868Y25273D01*
G01X123710Y25219D01*
G01X123243Y25219D01*
G01X234950Y66685D02*
G01X234950Y65595D01*
G01X234950Y66685D02*
G01X235625Y66685D01*
G01X234950Y66167D02*
G01X235366Y66167D01*
G01X234950Y65595D02*
G01X235625Y65595D01*
G01X235968Y66685D02*
G01X235968Y65595D01*
G01X235968Y66685D02*
G01X236694Y65595D01*
G01X236694Y66685D02*
G01X236694Y65595D01*
G01X223774Y86878D02*
G01X223774Y85788D01*
G01X223774Y86878D02*
G01X224241Y86878D01*
G01X224396Y86827D01*
G01X224449Y86774D01*
G01X224500Y86669D01*
G01X224500Y86514D01*
G01X224449Y86410D01*
G01X224396Y86360D01*
G01X224241Y86306D01*
G01X223774Y86306D01*
G01X26924Y2148D02*
G01X26924Y3238D01*
G01X26197Y2148D02*
G01X26197Y3238D01*
G01X26924Y2667D02*
G01X26197Y2667D01*
G01X25854Y2357D02*
G01X25750Y2303D01*
G01X25593Y2148D01*
G01X25593Y3238D01*
G01X11811Y107198D02*
G01X11811Y106108D01*
G01X11811Y107198D02*
G01X12486Y107198D01*
G01X11811Y106680D02*
G01X12227Y106680D01*
G01X11811Y106108D02*
G01X12486Y106108D01*
G01X13555Y107043D02*
G01X13451Y107147D01*
G01X13296Y107198D01*
G01X13088Y107198D01*
G01X12933Y107147D01*
G01X12829Y107043D01*
G01X12829Y106939D01*
G01X12880Y106834D01*
G01X12933Y106781D01*
G01X13037Y106730D01*
G01X13347Y106626D01*
G01X13451Y106575D01*
G01X13505Y106522D01*
G01X13555Y106418D01*
G01X13555Y106263D01*
G01X13451Y106159D01*
G01X13296Y106108D01*
G01X13088Y106108D01*
G01X12933Y106159D01*
G01X12829Y106263D01*
G01X14678Y106939D02*
G01X14627Y107043D01*
G01X14523Y107147D01*
G01X14419Y107198D01*
G01X14211Y107198D01*
G01X14107Y107147D01*
G01X14003Y107043D01*
G01X13952Y106939D01*
G01X13898Y106781D01*
G01X13898Y106522D01*
G01X13952Y106367D01*
G01X14003Y106263D01*
G01X14107Y106159D01*
G01X14211Y106108D01*
G01X14419Y106108D01*
G01X14523Y106159D01*
G01X14627Y106263D01*
G01X14678Y106367D01*
G01X14968Y86878D02*
G01X14968Y85788D01*
G01X14605Y86878D02*
G01X15331Y86878D01*
G01X16090Y86878D02*
G01X15674Y85788D01*
G01X16090Y86878D02*
G01X16507Y85788D01*
G01X15831Y86151D02*
G01X16349Y86151D01*
G01X16850Y86878D02*
G01X16850Y85788D01*
G01X16850Y86878D02*
G01X17317Y86878D01*
G01X17472Y86827D01*
G01X17526Y86774D01*
G01X17576Y86669D01*
G01X17576Y86565D01*
G01X17526Y86461D01*
G01X17472Y86410D01*
G01X17317Y86360D01*
G01X16850Y86360D02*
G01X17317Y86360D01*
G01X17472Y86306D01*
G01X17526Y86255D01*
G01X17576Y86151D01*
G01X17576Y85994D01*
G01X17526Y85890D01*
G01X17472Y85839D01*
G01X17317Y85788D01*
G01X16850Y85788D01*
G01X17543Y66426D02*
G01X17490Y66530D01*
G01X17386Y66634D01*
G01X17284Y66685D01*
G01X17076Y66685D01*
G01X16972Y66634D01*
G01X16868Y66530D01*
G01X16814Y66426D01*
G01X16764Y66268D01*
G01X16764Y66009D01*
G01X16814Y65854D01*
G01X16868Y65750D01*
G01X16972Y65646D01*
G01X17076Y65595D01*
G01X17284Y65595D01*
G01X17386Y65646D01*
G01X17490Y65750D01*
G01X17543Y65854D01*
G01X17886Y66685D02*
G01X17886Y65595D01*
G01X17886Y65595D02*
G01X18508Y65595D01*
G01X19164Y66685D02*
G01X19060Y66634D01*
G01X18956Y66530D01*
G01X18905Y66426D01*
G01X18851Y66268D01*
G01X18851Y66009D01*
G01X18905Y65854D01*
G01X18956Y65750D01*
G01X19060Y65646D01*
G01X19164Y65595D01*
G01X19372Y65595D01*
G01X19476Y65646D01*
G01X19580Y65750D01*
G01X19631Y65854D01*
G01X19685Y66009D01*
G01X19685Y66268D01*
G01X19631Y66426D01*
G01X19580Y66530D01*
G01X19476Y66634D01*
G01X19372Y66685D01*
G01X19164Y66685D01*
G01X20805Y66426D02*
G01X20754Y66530D01*
G01X20650Y66634D01*
G01X20546Y66685D01*
G01X20337Y66685D01*
G01X20233Y66634D01*
G01X20129Y66530D01*
G01X20078Y66426D01*
G01X20027Y66268D01*
G01X20027Y66009D01*
G01X20078Y65854D01*
G01X20129Y65750D01*
G01X20233Y65646D01*
G01X20337Y65595D01*
G01X20546Y65595D01*
G01X20650Y65646D01*
G01X20754Y65750D01*
G01X20805Y65854D01*
G01X21148Y66685D02*
G01X21148Y65595D01*
G01X21877Y66685D02*
G01X21148Y65958D01*
G01X21409Y66217D02*
G01X21877Y65595D01*
G01X40767Y45857D02*
G01X40767Y45077D01*
G01X40817Y44922D01*
G01X40921Y44818D01*
G01X41079Y44767D01*
G01X41183Y44767D01*
G01X41338Y44818D01*
G01X41442Y44922D01*
G01X41493Y45077D01*
G01X41493Y45857D01*
G01X41836Y45857D02*
G01X41836Y44767D01*
G01X41836Y45857D02*
G01X42303Y45857D01*
G01X42461Y45806D01*
G01X42511Y45753D01*
G01X42565Y45648D01*
G01X42565Y45493D01*
G01X42511Y45389D01*
G01X42461Y45339D01*
G01X42303Y45285D01*
G01X41836Y45285D01*
G01X38608Y25791D02*
G01X38608Y24701D01*
G01X38608Y25791D02*
G01X38971Y25791D01*
G01X39128Y25740D01*
G01X39230Y25636D01*
G01X39283Y25532D01*
G01X39334Y25374D01*
G01X39334Y25115D01*
G01X39283Y24960D01*
G01X39230Y24856D01*
G01X39128Y24752D01*
G01X38971Y24701D01*
G01X38608Y24701D01*
G01X39989Y25791D02*
G01X39885Y25740D01*
G01X39781Y25636D01*
G01X39730Y25532D01*
G01X39677Y25374D01*
G01X39677Y25115D01*
G01X39730Y24960D01*
G01X39781Y24856D01*
G01X39885Y24752D01*
G01X39989Y24701D01*
G01X40198Y24701D01*
G01X40302Y24752D01*
G01X40406Y24856D01*
G01X40457Y24960D01*
G01X40510Y25115D01*
G01X40510Y25374D01*
G01X40457Y25532D01*
G01X40406Y25636D01*
G01X40302Y25740D01*
G01X40198Y25791D01*
G01X39989Y25791D01*
G01X40853Y25791D02*
G01X41112Y24701D01*
G01X41371Y25791D02*
G01X41112Y24701D01*
G01X41371Y25791D02*
G01X41630Y24701D01*
G01X41892Y25791D02*
G01X41630Y24701D01*
G01X42235Y25791D02*
G01X42235Y24701D01*
G01X42235Y25791D02*
G01X42961Y24701D01*
G01X42961Y25791D02*
G01X42961Y24701D01*
G01X16019Y25532D02*
G01X15966Y25636D01*
G01X15862Y25740D01*
G01X15760Y25791D01*
G01X15552Y25791D01*
G01X15448Y25740D01*
G01X15344Y25636D01*
G01X15290Y25532D01*
G01X15240Y25374D01*
G01X15240Y25115D01*
G01X15290Y24960D01*
G01X15344Y24856D01*
G01X15448Y24752D01*
G01X15552Y24701D01*
G01X15760Y24701D01*
G01X15862Y24752D01*
G01X15966Y24856D01*
G01X16019Y24960D01*
G01X16725Y25791D02*
G01X16725Y24701D01*
G01X16362Y25791D02*
G01X17089Y25791D01*
G01X17432Y25791D02*
G01X17432Y24701D01*
G01X17432Y25791D02*
G01X17899Y25791D01*
G01X18056Y25740D01*
G01X18107Y25687D01*
G01X18161Y25582D01*
G01X18161Y25478D01*
G01X18107Y25374D01*
G01X18056Y25323D01*
G01X17899Y25273D01*
G01X17432Y25273D01*
G01X17795Y25273D02*
G01X18161Y24701D01*
G01X18503Y25791D02*
G01X18503Y24701D01*
G01X18503Y24701D02*
G01X19126Y24701D01*
G01X238887Y25791D02*
G01X238887Y24701D01*
G01X238887Y25791D02*
G01X239354Y25791D01*
G01X239509Y25740D01*
G01X239562Y25687D01*
G01X239613Y25582D01*
G01X239613Y25478D01*
G01X239562Y25374D01*
G01X239509Y25323D01*
G01X239354Y25273D01*
G01X238887Y25273D01*
G01X239250Y25273D02*
G01X239613Y24701D01*
G01X239956Y25791D02*
G01X239956Y24701D01*
G01X241079Y25532D02*
G01X241028Y25636D01*
G01X240924Y25740D01*
G01X240819Y25791D01*
G01X240611Y25791D01*
G01X240507Y25740D01*
G01X240403Y25636D01*
G01X240352Y25532D01*
G01X240299Y25374D01*
G01X240299Y25115D01*
G01X240352Y24960D01*
G01X240403Y24856D01*
G01X240507Y24752D01*
G01X240611Y24701D01*
G01X240819Y24701D01*
G01X240924Y24752D01*
G01X241028Y24856D01*
G01X241079Y24960D01*
G01X241079Y25115D01*
G01X240819Y25115D02*
G01X241079Y25115D01*
G01X241421Y25791D02*
G01X241421Y24701D01*
G01X242150Y25791D02*
G01X242150Y24701D01*
G01X241421Y25273D02*
G01X242150Y25273D01*
G01X242857Y25791D02*
G01X242857Y24701D01*
G01X242493Y25791D02*
G01X243220Y25791D01*
G01X217424Y25791D02*
G01X217424Y24701D01*
G01X217424Y24701D02*
G01X218046Y24701D01*
G01X218389Y25791D02*
G01X218389Y24701D01*
G01X218389Y25791D02*
G01X219064Y25791D01*
G01X218389Y25273D02*
G01X218805Y25273D01*
G01X218389Y24701D02*
G01X219064Y24701D01*
G01X219407Y25791D02*
G01X219407Y24701D01*
G01X219407Y25791D02*
G01X220083Y25791D01*
G01X219407Y25273D02*
G01X219824Y25273D01*
G01X220789Y25791D02*
G01X220789Y24701D01*
G01X220426Y25791D02*
G01X221155Y25791D01*
G01X203852Y45598D02*
G01X203799Y45702D01*
G01X203695Y45806D01*
G01X203593Y45857D01*
G01X203385Y45857D01*
G01X203281Y45806D01*
G01X203177Y45702D01*
G01X203123Y45598D01*
G01X203073Y45440D01*
G01X203073Y45181D01*
G01X203123Y45026D01*
G01X203177Y44922D01*
G01X203281Y44818D01*
G01X203385Y44767D01*
G01X203593Y44767D01*
G01X203695Y44818D01*
G01X203799Y44922D01*
G01X203852Y45026D01*
G01X203852Y45181D01*
G01X203593Y45181D02*
G01X203852Y45181D01*
G01X204195Y45857D02*
G01X204195Y44767D01*
G01X204195Y45857D02*
G01X204663Y45857D01*
G01X204817Y45806D01*
G01X204871Y45753D01*
G01X204922Y45648D01*
G01X204922Y45544D01*
G01X204871Y45440D01*
G01X204817Y45389D01*
G01X204663Y45339D01*
G01X204195Y45339D01*
G01X204558Y45339D02*
G01X204922Y44767D01*
G01X205265Y45857D02*
G01X205265Y44767D01*
G01X205265Y45857D02*
G01X205732Y45857D01*
G01X205889Y45806D01*
G01X205940Y45753D01*
G01X205994Y45648D01*
G01X205994Y45493D01*
G01X205940Y45389D01*
G01X205889Y45339D01*
G01X205732Y45285D01*
G01X205265Y45285D01*
G01X206336Y45857D02*
G01X206336Y44767D01*
G01X207063Y45857D02*
G01X207063Y44767D01*
G01X206336Y45339D02*
G01X207063Y45339D01*
G01X217355Y107198D02*
G01X217197Y107147D01*
G01X217093Y106989D01*
G01X217043Y106730D01*
G01X217043Y106575D01*
G01X217093Y106314D01*
G01X217197Y106159D01*
G01X217355Y106108D01*
G01X217459Y106108D01*
G01X217614Y106159D01*
G01X217718Y106314D01*
G01X217769Y106575D01*
G01X217769Y106730D01*
G01X217718Y106989D01*
G01X217614Y107147D01*
G01X217459Y107198D01*
G01X217355Y107198D01*
G01X239141Y107198D02*
G01X239141Y106108D01*
G01X239141Y107198D02*
G01X239608Y107198D01*
G01X239763Y107147D01*
G01X239816Y107094D01*
G01X239867Y106989D01*
G01X239867Y106885D01*
G01X239816Y106781D01*
G01X239763Y106730D01*
G01X239608Y106680D01*
G01X239141Y106680D02*
G01X239608Y106680D01*
G01X239763Y106626D01*
G01X239816Y106575D01*
G01X239867Y106471D01*
G01X239867Y106314D01*
G01X239816Y106210D01*
G01X239763Y106159D01*
G01X239608Y106108D01*
G01X239141Y106108D01*
G01X240210Y107198D02*
G01X240210Y106108D01*
G01X240939Y107198D02*
G01X240210Y106471D01*
G01X240471Y106730D02*
G01X240939Y106108D01*
G01X242008Y107043D02*
G01X241904Y107147D01*
G01X241749Y107198D01*
G01X241541Y107198D01*
G01X241386Y107147D01*
G01X241282Y107043D01*
G01X241282Y106939D01*
G01X241333Y106834D01*
G01X241386Y106781D01*
G01X241490Y106730D01*
G01X241800Y106626D01*
G01X241904Y106575D01*
G01X241957Y106522D01*
G01X242008Y106418D01*
G01X242008Y106263D01*
G01X241904Y106159D01*
G01X241749Y106108D01*
G01X241541Y106108D01*
G01X241386Y106159D01*
G01X241282Y106263D01*
G01X242351Y107198D02*
G01X242351Y106108D01*
G01X242351Y107198D02*
G01X242818Y107198D01*
G01X242976Y107147D01*
G01X243027Y107094D01*
G01X243078Y106989D01*
G01X243078Y106834D01*
G01X243027Y106730D01*
G01X242976Y106680D01*
G01X242818Y106626D01*
G01X242351Y106626D01*
G01X208950Y111193D02*
G01X208899Y111297D01*
G01X208795Y111401D01*
G01X208691Y111455D01*
G01X208533Y111505D01*
G01X208274Y111505D01*
G01X208119Y111455D01*
G01X208015Y111401D01*
G01X207911Y111297D01*
G01X207860Y111193D01*
G01X207860Y110985D01*
G01X207911Y110883D01*
G01X208015Y110779D01*
G01X208119Y110726D01*
G01X208274Y110675D01*
G01X208533Y110675D01*
G01X208691Y110726D01*
G01X208795Y110779D01*
G01X208899Y110883D01*
G01X208950Y110985D01*
G01X208950Y111193D01*
G01X208066Y111038D02*
G01X207756Y110726D01*
G01X207495Y110332D02*
G01X207495Y109397D01*
G01X208950Y109054D02*
G01X207860Y109054D01*
G01X208950Y109054D02*
G01X208950Y108584D01*
G01X208899Y108430D01*
G01X208846Y108379D01*
G01X208742Y108325D01*
G01X208638Y108325D01*
G01X208533Y108379D01*
G01X208483Y108430D01*
G01X208432Y108584D01*
G01X208432Y109054D01*
G01X208432Y108689D02*
G01X207860Y108325D01*
G01X105293Y111701D02*
G01X105242Y111805D01*
G01X105138Y111909D01*
G01X105034Y111963D01*
G01X104876Y112014D01*
G01X104617Y112014D01*
G01X104462Y111963D01*
G01X104358Y111909D01*
G01X104254Y111805D01*
G01X104203Y111701D01*
G01X104203Y111493D01*
G01X104254Y111391D01*
G01X104358Y111287D01*
G01X104462Y111234D01*
G01X104617Y111183D01*
G01X104876Y111183D01*
G01X105034Y111234D01*
G01X105138Y111287D01*
G01X105242Y111391D01*
G01X105293Y111493D01*
G01X105293Y111701D01*
G01X104409Y111546D02*
G01X104099Y111234D01*
G01X103837Y110840D02*
G01X103837Y109905D01*
G01X105138Y108833D02*
G01X105242Y108938D01*
G01X105293Y109093D01*
G01X105293Y109301D01*
G01X105242Y109458D01*
G01X105138Y109562D01*
G01X105034Y109562D01*
G01X104929Y109509D01*
G01X104876Y109458D01*
G01X104825Y109354D01*
G01X104721Y109042D01*
G01X104670Y108938D01*
G01X104617Y108887D01*
G01X104513Y108833D01*
G01X104358Y108833D01*
G01X104254Y108938D01*
G01X104203Y109093D01*
G01X104203Y109301D01*
G01X104254Y109458D01*
G01X104358Y109562D01*
G01X105138Y107764D02*
G01X105242Y107868D01*
G01X105293Y108023D01*
G01X105293Y108231D01*
G01X105242Y108386D01*
G01X105138Y108491D01*
G01X105034Y108491D01*
G01X104929Y108440D01*
G01X104876Y108386D01*
G01X104825Y108282D01*
G01X104721Y107972D01*
G01X104670Y107868D01*
G01X104617Y107815D01*
G01X104513Y107764D01*
G01X104358Y107764D01*
G01X104254Y107868D01*
G01X104203Y108023D01*
G01X104203Y108231D01*
G01X104254Y108386D01*
G01X104358Y108491D01*
G01X84592Y111193D02*
G01X84541Y111297D01*
G01X84437Y111401D01*
G01X84333Y111455D01*
G01X84175Y111506D01*
G01X83916Y111506D01*
G01X83761Y111455D01*
G01X83657Y111401D01*
G01X83553Y111297D01*
G01X83502Y111193D01*
G01X83502Y110985D01*
G01X83553Y110883D01*
G01X83657Y110779D01*
G01X83761Y110726D01*
G01X83916Y110675D01*
G01X84175Y110675D01*
G01X84333Y110726D01*
G01X84437Y110779D01*
G01X84541Y110883D01*
G01X84592Y110985D01*
G01X84592Y111193D01*
G01X83708Y111038D02*
G01X83398Y110726D01*
G01X83136Y110332D02*
G01X83136Y109397D01*
G01X84333Y108275D02*
G01X84437Y108325D01*
G01X84541Y108430D01*
G01X84592Y108534D01*
G01X84592Y108742D01*
G01X84541Y108846D01*
G01X84437Y108950D01*
G01X84333Y109001D01*
G01X84175Y109054D01*
G01X83916Y109054D01*
G01X83761Y109001D01*
G01X83657Y108950D01*
G01X83553Y108846D01*
G01X83502Y108742D01*
G01X83502Y108534D01*
G01X83553Y108430D01*
G01X83657Y108325D01*
G01X83761Y108275D01*
G01X84437Y107203D02*
G01X84541Y107307D01*
G01X84592Y107464D01*
G01X84592Y107670D01*
G01X84541Y107828D01*
G01X84437Y107932D01*
G01X84333Y107932D01*
G01X84228Y107878D01*
G01X84175Y107828D01*
G01X84124Y107723D01*
G01X84020Y107411D01*
G01X83969Y107307D01*
G01X83916Y107256D01*
G01X83812Y107203D01*
G01X83657Y107203D01*
G01X83553Y107307D01*
G01X83502Y107464D01*
G01X83502Y107670D01*
G01X83553Y107828D01*
G01X83657Y107932D01*
G01X250403Y111193D02*
G01X250352Y111297D01*
G01X250248Y111401D01*
G01X250144Y111455D01*
G01X249986Y111505D01*
G01X249727Y111505D01*
G01X249572Y111455D01*
G01X249468Y111401D01*
G01X249364Y111297D01*
G01X249313Y111193D01*
G01X249313Y110985D01*
G01X249364Y110883D01*
G01X249468Y110779D01*
G01X249572Y110726D01*
G01X249727Y110675D01*
G01X249986Y110675D01*
G01X250144Y110726D01*
G01X250248Y110779D01*
G01X250352Y110883D01*
G01X250403Y110985D01*
G01X250403Y111193D01*
G01X249519Y111038D02*
G01X249209Y110726D01*
G01X248947Y110332D02*
G01X248947Y109397D01*
G01X250403Y109054D02*
G01X249313Y109054D01*
G01X250403Y109054D02*
G01X250403Y108584D01*
G01X250352Y108430D01*
G01X250299Y108379D01*
G01X250195Y108325D01*
G01X250090Y108325D01*
G01X249986Y108379D01*
G01X249936Y108430D01*
G01X249885Y108584D01*
G01X249885Y109054D02*
G01X249885Y108584D01*
G01X249831Y108430D01*
G01X249781Y108379D01*
G01X249676Y108325D01*
G01X249519Y108325D01*
G01X249415Y108379D01*
G01X249364Y108430D01*
G01X249313Y108584D01*
G01X249313Y109054D01*
G01X250403Y107982D02*
G01X249313Y107982D01*
G01X250403Y107256D02*
G01X249676Y107982D01*
G01X249936Y107723D02*
G01X249313Y107256D01*
G01X250248Y106184D02*
G01X250352Y106288D01*
G01X250403Y106446D01*
G01X250403Y106654D01*
G01X250352Y106809D01*
G01X250248Y106913D01*
G01X250144Y106913D01*
G01X250040Y106860D01*
G01X249986Y106809D01*
G01X249936Y106705D01*
G01X249831Y106392D01*
G01X249781Y106288D01*
G01X249727Y106237D01*
G01X249623Y106184D01*
G01X249468Y106184D01*
G01X249364Y106288D01*
G01X249313Y106446D01*
G01X249313Y106654D01*
G01X249364Y106809D01*
G01X249468Y106913D01*
G01X250403Y105841D02*
G01X249313Y105841D01*
G01X250403Y105841D02*
G01X250403Y105374D01*
G01X250352Y105219D01*
G01X250299Y105168D01*
G01X250195Y105115D01*
G01X250040Y105115D01*
G01X249936Y105168D01*
G01X249885Y105219D01*
G01X249831Y105374D01*
G01X249831Y105841D01*
G01X229676Y111193D02*
G01X229626Y111297D01*
G01X229521Y111401D01*
G01X229417Y111455D01*
G01X229260Y111505D01*
G01X229001Y111505D01*
G01X228846Y111455D01*
G01X228742Y111401D01*
G01X228638Y111297D01*
G01X228587Y111193D01*
G01X228587Y110985D01*
G01X228638Y110883D01*
G01X228742Y110779D01*
G01X228846Y110726D01*
G01X229001Y110675D01*
G01X229260Y110675D01*
G01X229417Y110726D01*
G01X229521Y110779D01*
G01X229626Y110883D01*
G01X229676Y110985D01*
G01X229676Y111193D01*
G01X228793Y111038D02*
G01X228483Y110726D01*
G01X228221Y110332D02*
G01X228221Y109397D01*
G01X229417Y108275D02*
G01X229521Y108325D01*
G01X229626Y108430D01*
G01X229676Y108534D01*
G01X229676Y108742D01*
G01X229626Y108846D01*
G01X229521Y108950D01*
G01X229417Y109001D01*
G01X229260Y109054D01*
G01X229001Y109054D01*
G01X228846Y109001D01*
G01X228742Y108950D01*
G01X228638Y108846D01*
G01X228587Y108742D01*
G01X228587Y108534D01*
G01X228638Y108430D01*
G01X228742Y108325D01*
G01X228846Y108275D01*
G01X229001Y108275D01*
G01X229001Y108534D02*
G01X229001Y108275D01*
G01X126045Y111193D02*
G01X125994Y111297D01*
G01X125890Y111401D01*
G01X125785Y111455D01*
G01X125628Y111506D01*
G01X125369Y111506D01*
G01X125214Y111455D01*
G01X125110Y111401D01*
G01X125006Y111297D01*
G01X124955Y111193D01*
G01X124955Y110985D01*
G01X125006Y110883D01*
G01X125110Y110779D01*
G01X125214Y110726D01*
G01X125369Y110675D01*
G01X125628Y110675D01*
G01X125785Y110726D01*
G01X125890Y110779D01*
G01X125994Y110883D01*
G01X126045Y110985D01*
G01X126045Y111193D01*
G01X125161Y111038D02*
G01X124851Y110726D01*
G01X124589Y110332D02*
G01X124589Y109397D01*
G01X126045Y108689D02*
G01X124955Y108689D01*
G01X126045Y109054D02*
G01X126045Y108325D01*
G01X126045Y107569D02*
G01X124955Y107983D01*
G01X126045Y107569D02*
G01X124955Y107152D01*
G01X125318Y107828D02*
G01X125318Y107307D01*
G01X126045Y106809D02*
G01X124955Y106809D01*
G01X126045Y106809D02*
G01X126045Y106342D01*
G01X125994Y106184D01*
G01X125940Y106133D01*
G01X125836Y106083D01*
G01X125732Y106083D01*
G01X125628Y106133D01*
G01X125577Y106184D01*
G01X125526Y106342D01*
G01X125526Y106809D02*
G01X125526Y106342D01*
G01X125473Y106184D01*
G01X125422Y106133D01*
G01X125318Y106083D01*
G01X125161Y106083D01*
G01X125057Y106133D01*
G01X125006Y106184D01*
G01X124955Y106342D01*
G01X124955Y106809D01*
G01X188224Y111193D02*
G01X188173Y111297D01*
G01X188069Y111401D01*
G01X187965Y111455D01*
G01X187807Y111505D01*
G01X187548Y111505D01*
G01X187393Y111455D01*
G01X187289Y111401D01*
G01X187185Y111297D01*
G01X187134Y111193D01*
G01X187134Y110985D01*
G01X187185Y110883D01*
G01X187289Y110779D01*
G01X187393Y110726D01*
G01X187548Y110675D01*
G01X187807Y110675D01*
G01X187965Y110726D01*
G01X188069Y110779D01*
G01X188173Y110883D01*
G01X188224Y110985D01*
G01X188224Y111193D01*
G01X187340Y111038D02*
G01X187030Y110726D01*
G01X186768Y110332D02*
G01X186768Y109397D01*
G01X188224Y109054D02*
G01X187444Y109054D01*
G01X187289Y109001D01*
G01X187185Y108897D01*
G01X187134Y108742D01*
G01X187134Y108638D01*
G01X187185Y108483D01*
G01X187289Y108379D01*
G01X187444Y108325D01*
G01X188224Y108325D01*
G01X167497Y111193D02*
G01X167446Y111297D01*
G01X167342Y111401D01*
G01X167238Y111455D01*
G01X167081Y111505D01*
G01X166822Y111505D01*
G01X166667Y111455D01*
G01X166562Y111401D01*
G01X166458Y111297D01*
G01X166408Y111193D01*
G01X166408Y110985D01*
G01X166458Y110883D01*
G01X166562Y110779D01*
G01X166667Y110726D01*
G01X166822Y110675D01*
G01X167081Y110675D01*
G01X167238Y110726D01*
G01X167342Y110779D01*
G01X167446Y110883D01*
G01X167497Y110985D01*
G01X167497Y111193D01*
G01X166613Y111038D02*
G01X166303Y110726D01*
G01X166042Y110332D02*
G01X166042Y109397D01*
G01X167497Y109054D02*
G01X166408Y109054D01*
G01X167497Y109054D02*
G01X167497Y108689D01*
G01X167446Y108534D01*
G01X167342Y108430D01*
G01X167238Y108379D01*
G01X167081Y108325D01*
G01X166822Y108325D01*
G01X166667Y108379D01*
G01X166562Y108430D01*
G01X166458Y108534D01*
G01X166408Y108689D01*
G01X166408Y109054D01*
G01X146771Y111193D02*
G01X146720Y111297D01*
G01X146616Y111401D01*
G01X146512Y111455D01*
G01X146354Y111505D01*
G01X146095Y111505D01*
G01X145940Y111455D01*
G01X145836Y111401D01*
G01X145732Y111297D01*
G01X145681Y111193D01*
G01X145681Y110985D01*
G01X145732Y110883D01*
G01X145836Y110779D01*
G01X145940Y110726D01*
G01X146095Y110675D01*
G01X146354Y110675D01*
G01X146512Y110726D01*
G01X146616Y110779D01*
G01X146720Y110883D01*
G01X146771Y110985D01*
G01X146771Y111193D01*
G01X145887Y111038D02*
G01X145577Y110726D01*
G01X145315Y110332D02*
G01X145315Y109397D01*
G01X146771Y109054D02*
G01X145681Y109054D01*
G01X145681Y109054D02*
G01X145681Y108430D01*
G01X63865Y111193D02*
G01X63815Y111297D01*
G01X63710Y111401D01*
G01X63606Y111455D01*
G01X63449Y111505D01*
G01X63190Y111505D01*
G01X63035Y111455D01*
G01X62931Y111401D01*
G01X62826Y111297D01*
G01X62776Y111193D01*
G01X62776Y110985D01*
G01X62826Y110883D01*
G01X62931Y110779D01*
G01X63035Y110726D01*
G01X63190Y110675D01*
G01X63449Y110675D01*
G01X63606Y110726D01*
G01X63710Y110779D01*
G01X63815Y110883D01*
G01X63865Y110985D01*
G01X63865Y111193D01*
G01X62981Y111038D02*
G01X62672Y110726D01*
G01X62410Y110332D02*
G01X62410Y109397D01*
G01X63606Y108275D02*
G01X63710Y108325D01*
G01X63815Y108430D01*
G01X63865Y108534D01*
G01X63865Y108742D01*
G01X63815Y108846D01*
G01X63710Y108950D01*
G01X63606Y109001D01*
G01X63449Y109054D01*
G01X63190Y109054D01*
G01X63035Y109001D01*
G01X62931Y108950D01*
G01X62826Y108846D01*
G01X62776Y108742D01*
G01X62776Y108534D01*
G01X62826Y108430D01*
G01X62931Y108325D01*
G01X63035Y108275D01*
G01X63865Y107932D02*
G01X62776Y107932D01*
G01X62776Y107932D02*
G01X62776Y107307D01*
G01X63865Y106654D02*
G01X63815Y106756D01*
G01X63710Y106860D01*
G01X63606Y106913D01*
G01X63449Y106964D01*
G01X63190Y106964D01*
G01X63035Y106913D01*
G01X62931Y106860D01*
G01X62826Y106756D01*
G01X62776Y106654D01*
G01X62776Y106446D01*
G01X62826Y106342D01*
G01X62931Y106237D01*
G01X63035Y106184D01*
G01X63190Y106133D01*
G01X63449Y106133D01*
G01X63606Y106184D01*
G01X63710Y106237D01*
G01X63815Y106342D01*
G01X63865Y106446D01*
G01X63865Y106654D01*
G01X63606Y105011D02*
G01X63710Y105064D01*
G01X63815Y105168D01*
G01X63865Y105270D01*
G01X63865Y105478D01*
G01X63815Y105582D01*
G01X63710Y105686D01*
G01X63606Y105740D01*
G01X63449Y105790D01*
G01X63190Y105790D01*
G01X63035Y105740D01*
G01X62931Y105686D01*
G01X62826Y105582D01*
G01X62776Y105478D01*
G01X62776Y105270D01*
G01X62826Y105168D01*
G01X62931Y105064D01*
G01X63035Y105011D01*
G01X63865Y104668D02*
G01X62776Y104668D01*
G01X63865Y103941D02*
G01X63139Y104668D01*
G01X63398Y104409D02*
G01X62776Y103941D01*
G01X43139Y111193D02*
G01X43088Y111297D01*
G01X42984Y111401D01*
G01X42880Y111455D01*
G01X42722Y111505D01*
G01X42463Y111505D01*
G01X42308Y111455D01*
G01X42204Y111401D01*
G01X42100Y111297D01*
G01X42049Y111193D01*
G01X42049Y110985D01*
G01X42100Y110883D01*
G01X42204Y110779D01*
G01X42308Y110726D01*
G01X42463Y110675D01*
G01X42722Y110675D01*
G01X42880Y110726D01*
G01X42984Y110779D01*
G01X43088Y110883D01*
G01X43139Y110985D01*
G01X43139Y111193D01*
G01X42255Y111038D02*
G01X41945Y110726D01*
G01X41683Y110332D02*
G01X41683Y109397D01*
G01X43139Y109054D02*
G01X42049Y109054D01*
G01X43139Y109054D02*
G01X43139Y108379D01*
G01X42621Y109054D02*
G01X42621Y108638D01*
G01X42049Y109054D02*
G01X42049Y108379D01*
G01X42984Y107307D02*
G01X43088Y107411D01*
G01X43139Y107568D01*
G01X43139Y107774D01*
G01X43088Y107932D01*
G01X42984Y108036D01*
G01X42880Y108036D01*
G01X42776Y107982D01*
G01X42722Y107932D01*
G01X42672Y107828D01*
G01X42567Y107515D01*
G01X42517Y107411D01*
G01X42463Y107360D01*
G01X42359Y107307D01*
G01X42204Y107307D01*
G01X42100Y107411D01*
G01X42049Y107568D01*
G01X42049Y107774D01*
G01X42100Y107932D01*
G01X42204Y108036D01*
G01X42880Y106184D02*
G01X42984Y106237D01*
G01X43088Y106342D01*
G01X43139Y106446D01*
G01X43139Y106654D01*
G01X43088Y106756D01*
G01X42984Y106860D01*
G01X42880Y106913D01*
G01X42722Y106964D01*
G01X42463Y106964D01*
G01X42308Y106913D01*
G01X42204Y106860D01*
G01X42100Y106756D01*
G01X42049Y106654D01*
G01X42049Y106446D01*
G01X42100Y106342D01*
G01X42204Y106237D01*
G01X42308Y106184D01*
G01X112725Y111749D02*
G01X112725Y112839D01*
G01X112725Y111749D02*
G01X112361Y111749D01*
G01X112204Y111800D01*
G01X112102Y111904D01*
G01X112049Y112008D01*
G01X111998Y112166D01*
G01X111998Y112425D01*
G01X112049Y112580D01*
G01X112102Y112684D01*
G01X112204Y112788D01*
G01X112361Y112839D01*
G01X112725Y112839D01*
G01X111655Y113205D02*
G01X110718Y113205D01*
G01X110012Y111749D02*
G01X110012Y112839D01*
G01X110375Y111749D02*
G01X109649Y111749D01*
G01X108889Y111749D02*
G01X109306Y112839D01*
G01X108889Y111749D02*
G01X108475Y112839D01*
G01X109151Y112476D02*
G01X108630Y112476D01*
G01X108132Y111749D02*
G01X108132Y112839D01*
G01X108132Y111749D02*
G01X107665Y111749D01*
G01X107508Y111800D01*
G01X107457Y111853D01*
G01X107403Y111958D01*
G01X107403Y112062D01*
G01X107457Y112166D01*
G01X107508Y112217D01*
G01X107665Y112268D01*
G01X108132Y112268D02*
G01X107665Y112268D01*
G01X107508Y112321D01*
G01X107457Y112372D01*
G01X107403Y112476D01*
G01X107403Y112633D01*
G01X107457Y112737D01*
G01X107508Y112788D01*
G01X107665Y112839D01*
G01X108132Y112839D01*
G01X30276Y111749D02*
G01X30276Y112839D01*
G01X30276Y111749D02*
G01X29913Y111749D01*
G01X29756Y111800D01*
G01X29654Y111904D01*
G01X29601Y112008D01*
G01X29550Y112166D01*
G01X29550Y112425D01*
G01X29601Y112580D01*
G01X29654Y112684D01*
G01X29756Y112788D01*
G01X29913Y112839D01*
G01X30276Y112839D01*
G01X29207Y113205D02*
G01X28270Y113205D01*
G01X27927Y111749D02*
G01X27927Y112839D01*
G01X27927Y111749D02*
G01X27254Y111749D01*
G01X27927Y112268D02*
G01X27513Y112268D01*
G01X27927Y112839D02*
G01X27254Y112839D01*
G01X26182Y111904D02*
G01X26286Y111800D01*
G01X26441Y111749D01*
G01X26649Y111749D01*
G01X26807Y111800D01*
G01X26911Y111904D01*
G01X26911Y112008D01*
G01X26857Y112113D01*
G01X26807Y112166D01*
G01X26703Y112217D01*
G01X26390Y112321D01*
G01X26286Y112372D01*
G01X26235Y112425D01*
G01X26182Y112529D01*
G01X26182Y112684D01*
G01X26286Y112788D01*
G01X26441Y112839D01*
G01X26649Y112839D01*
G01X26807Y112788D01*
G01X26911Y112684D01*
G01X25059Y112008D02*
G01X25112Y111904D01*
G01X25217Y111800D01*
G01X25321Y111749D01*
G01X25527Y111749D01*
G01X25631Y111800D01*
G01X25735Y111904D01*
G01X25788Y112008D01*
G01X25839Y112166D01*
G01X25839Y112425D01*
G01X25788Y112580D01*
G01X25735Y112684D01*
G01X25631Y112788D01*
G01X25527Y112839D01*
G01X25321Y112839D01*
G01X25217Y112788D01*
G01X25112Y112684D01*
G01X25059Y112580D01*
G01X236397Y111749D02*
G01X236397Y112839D01*
G01X236397Y111749D02*
G01X236034Y111749D01*
G01X235877Y111800D01*
G01X235775Y111904D01*
G01X235722Y112008D01*
G01X235671Y112166D01*
G01X235671Y112425D01*
G01X235722Y112580D01*
G01X235775Y112684D01*
G01X235877Y112788D01*
G01X236034Y112839D01*
G01X236397Y112839D01*
G01X235328Y113205D02*
G01X234391Y113205D01*
G01X234048Y111749D02*
G01X234048Y112839D01*
G01X234048Y111749D02*
G01X233580Y111749D01*
G01X233426Y111800D01*
G01X233375Y111853D01*
G01X233321Y111958D01*
G01X233321Y112062D01*
G01X233375Y112166D01*
G01X233426Y112217D01*
G01X233580Y112268D01*
G01X234048Y112268D02*
G01X233580Y112268D01*
G01X233426Y112321D01*
G01X233375Y112372D01*
G01X233321Y112476D01*
G01X233321Y112633D01*
G01X233375Y112737D01*
G01X233426Y112788D01*
G01X233580Y112839D01*
G01X234048Y112839D01*
G01X232978Y111749D02*
G01X232978Y112839D01*
G01X232252Y111749D02*
G01X232978Y112476D01*
G01X232719Y112217D02*
G01X232252Y112839D01*
G01X231180Y111904D02*
G01X231284Y111800D01*
G01X231442Y111749D01*
G01X231648Y111749D01*
G01X231805Y111800D01*
G01X231909Y111904D01*
G01X231909Y112008D01*
G01X231856Y112113D01*
G01X231805Y112166D01*
G01X231701Y112217D01*
G01X231388Y112321D01*
G01X231284Y112372D01*
G01X231233Y112425D01*
G01X231180Y112529D01*
G01X231180Y112684D01*
G01X231284Y112788D01*
G01X231442Y112839D01*
G01X231648Y112839D01*
G01X231805Y112788D01*
G01X231909Y112684D01*
G01X230837Y111749D02*
G01X230837Y112839D01*
G01X230837Y111749D02*
G01X230370Y111749D01*
G01X230215Y111800D01*
G01X230162Y111853D01*
G01X230111Y111958D01*
G01X230111Y112113D01*
G01X230162Y112217D01*
G01X230215Y112268D01*
G01X230370Y112321D01*
G01X230837Y112321D01*
G01X215785Y111749D02*
G01X215785Y112839D01*
G01X215785Y111749D02*
G01X215422Y111749D01*
G01X215265Y111800D01*
G01X215163Y111904D01*
G01X215110Y112008D01*
G01X215059Y112166D01*
G01X215059Y112425D01*
G01X215110Y112580D01*
G01X215163Y112684D01*
G01X215265Y112788D01*
G01X215422Y112839D01*
G01X215785Y112839D01*
G01X214716Y113205D02*
G01X213779Y113205D01*
G01X212658Y112008D02*
G01X212709Y111904D01*
G01X212813Y111800D01*
G01X212918Y111749D01*
G01X213126Y111749D01*
G01X213230Y111800D01*
G01X213334Y111904D01*
G01X213385Y112008D01*
G01X213436Y112166D01*
G01X213436Y112425D01*
G01X213385Y112580D01*
G01X213334Y112684D01*
G01X213230Y112788D01*
G01X213126Y112839D01*
G01X212918Y112839D01*
G01X212813Y112788D01*
G01X212709Y112684D01*
G01X212658Y112580D01*
G01X212658Y112425D01*
G01X212918Y112425D02*
G01X212658Y112425D01*
G01X71501Y111749D02*
G01X71501Y112839D01*
G01X71501Y111749D02*
G01X71137Y111749D01*
G01X70980Y111800D01*
G01X70878Y111904D01*
G01X70825Y112008D01*
G01X70774Y112166D01*
G01X70774Y112425D01*
G01X70825Y112580D01*
G01X70878Y112684D01*
G01X70980Y112788D01*
G01X71137Y112839D01*
G01X71501Y112839D01*
G01X70431Y113205D02*
G01X69494Y113205D01*
G01X68374Y112008D02*
G01X68425Y111904D01*
G01X68529Y111800D01*
G01X68633Y111749D01*
G01X68841Y111749D01*
G01X68945Y111800D01*
G01X69049Y111904D01*
G01X69100Y112008D01*
G01X69151Y112166D01*
G01X69151Y112425D01*
G01X69100Y112580D01*
G01X69049Y112684D01*
G01X68945Y112788D01*
G01X68841Y112839D01*
G01X68633Y112839D01*
G01X68529Y112788D01*
G01X68425Y112684D01*
G01X68374Y112580D01*
G01X67302Y111904D02*
G01X67406Y111800D01*
G01X67564Y111749D01*
G01X67769Y111749D01*
G01X67927Y111800D01*
G01X68031Y111904D01*
G01X68031Y112008D01*
G01X67978Y112113D01*
G01X67927Y112166D01*
G01X67823Y112217D01*
G01X67510Y112321D01*
G01X67406Y112372D01*
G01X67355Y112425D01*
G01X67302Y112529D01*
G01X67302Y112684D01*
G01X67406Y112788D01*
G01X67564Y112839D01*
G01X67769Y112839D01*
G01X67927Y112788D01*
G01X68031Y112684D01*
G01X50888Y111749D02*
G01X50888Y112839D01*
G01X50888Y111749D02*
G01X50525Y111749D01*
G01X50368Y111800D01*
G01X50266Y111904D01*
G01X50213Y112008D01*
G01X50162Y112166D01*
G01X50162Y112425D01*
G01X50213Y112580D01*
G01X50266Y112684D01*
G01X50368Y112788D01*
G01X50525Y112839D01*
G01X50888Y112839D01*
G01X49819Y113205D02*
G01X48882Y113205D01*
G01X47762Y112008D02*
G01X47812Y111904D01*
G01X47917Y111800D01*
G01X48021Y111749D01*
G01X48229Y111749D01*
G01X48333Y111800D01*
G01X48437Y111904D01*
G01X48488Y112008D01*
G01X48539Y112166D01*
G01X48539Y112425D01*
G01X48488Y112580D01*
G01X48437Y112684D01*
G01X48333Y112788D01*
G01X48229Y112839D01*
G01X48021Y112839D01*
G01X47917Y112788D01*
G01X47812Y112684D01*
G01X47762Y112580D01*
G01X47419Y111749D02*
G01X47419Y112839D01*
G01X47419Y112839D02*
G01X46794Y112839D01*
G01X46139Y111749D02*
G01X46243Y111800D01*
G01X46347Y111904D01*
G01X46400Y112008D01*
G01X46451Y112166D01*
G01X46451Y112425D01*
G01X46400Y112580D01*
G01X46347Y112684D01*
G01X46243Y112788D01*
G01X46139Y112839D01*
G01X45933Y112839D01*
G01X45829Y112788D01*
G01X45725Y112684D01*
G01X45671Y112580D01*
G01X45620Y112425D01*
G01X45620Y112166D01*
G01X45671Y112008D01*
G01X45725Y111904D01*
G01X45829Y111800D01*
G01X45933Y111749D01*
G01X46139Y111749D01*
G01X44498Y112008D02*
G01X44551Y111904D01*
G01X44653Y111800D01*
G01X44757Y111749D01*
G01X44965Y111749D01*
G01X45069Y111800D01*
G01X45173Y111904D01*
G01X45224Y112008D01*
G01X45278Y112166D01*
G01X45278Y112425D01*
G01X45224Y112580D01*
G01X45173Y112684D01*
G01X45069Y112788D01*
G01X44965Y112839D01*
G01X44757Y112839D01*
G01X44653Y112788D01*
G01X44551Y112684D01*
G01X44498Y112580D01*
G01X44155Y111749D02*
G01X44155Y112839D01*
G01X43428Y111749D02*
G01X44155Y112476D01*
G01X43896Y112217D02*
G01X43428Y112839D01*
G01X133337Y111749D02*
G01X133337Y112839D01*
G01X133337Y111749D02*
G01X132974Y111749D01*
G01X132816Y111800D01*
G01X132715Y111904D01*
G01X132661Y112008D01*
G01X132610Y112166D01*
G01X132610Y112425D01*
G01X132661Y112580D01*
G01X132715Y112684D01*
G01X132816Y112788D01*
G01X132974Y112839D01*
G01X133337Y112839D01*
G01X132267Y113205D02*
G01X131330Y113205D01*
G01X130987Y111749D02*
G01X130987Y112839D01*
G01X130987Y112839D02*
G01X130365Y112839D01*
G01X153949Y111749D02*
G01X153949Y112839D01*
G01X153949Y111749D02*
G01X153586Y111749D01*
G01X153428Y111800D01*
G01X153327Y111904D01*
G01X153273Y112008D01*
G01X153222Y112166D01*
G01X153222Y112425D01*
G01X153273Y112580D01*
G01X153327Y112684D01*
G01X153428Y112788D01*
G01X153586Y112839D01*
G01X153949Y112839D01*
G01X152880Y113205D02*
G01X151942Y113205D01*
G01X151599Y111749D02*
G01X151599Y112839D01*
G01X151599Y111749D02*
G01X151236Y111749D01*
G01X151081Y111800D01*
G01X150977Y111904D01*
G01X150926Y112008D01*
G01X150873Y112166D01*
G01X150873Y112425D01*
G01X150926Y112580D01*
G01X150977Y112684D01*
G01X151081Y112788D01*
G01X151236Y112839D01*
G01X151599Y112839D01*
G01X177609Y114945D02*
G01X177609Y113855D01*
G01X177609Y114945D02*
G01X177972Y114945D01*
G01X178130Y114894D01*
G01X178231Y114790D01*
G01X178285Y114686D01*
G01X178335Y114528D01*
G01X178335Y114269D01*
G01X178285Y114114D01*
G01X178231Y114010D01*
G01X178130Y113906D01*
G01X177972Y113855D01*
G01X177609Y113855D01*
G01X178678Y113489D02*
G01X179616Y113489D01*
G01X179959Y114945D02*
G01X179959Y114165D01*
G01X180009Y114010D01*
G01X180113Y113906D01*
G01X180268Y113855D01*
G01X180373Y113855D01*
G01X180530Y113906D01*
G01X180632Y114010D01*
G01X180685Y114165D01*
G01X180685Y114945D01*
G01X195173Y111749D02*
G01X195173Y112839D01*
G01X195173Y111749D02*
G01X194810Y111749D01*
G01X194652Y111800D01*
G01X194551Y111904D01*
G01X194497Y112008D01*
G01X194447Y112166D01*
G01X194447Y112425D01*
G01X194497Y112580D01*
G01X194551Y112684D01*
G01X194652Y112788D01*
G01X194810Y112839D01*
G01X195173Y112839D01*
G01X194104Y113205D02*
G01X193167Y113205D01*
G01X192824Y111749D02*
G01X192824Y112839D01*
G01X192824Y111749D02*
G01X192356Y111749D01*
G01X192201Y111800D01*
G01X192151Y111853D01*
G01X192097Y111958D01*
G01X192097Y112062D01*
G01X192151Y112166D01*
G01X192201Y112217D01*
G01X192356Y112268D01*
G01X192824Y112268D01*
G01X192460Y112268D02*
G01X192097Y112839D01*
G01X12065Y110225D02*
G01X12065Y111315D01*
G01X12065Y110225D02*
G01X11597Y110225D01*
G01X11442Y110276D01*
G01X11389Y110329D01*
G01X11338Y110434D01*
G01X11338Y110538D01*
G01X11389Y110642D01*
G01X11442Y110693D01*
G01X11597Y110744D01*
G01X12065Y110744D01*
G01X11701Y110744D02*
G01X11338Y111315D01*
G01X10995Y110434D02*
G01X10891Y110380D01*
G01X10734Y110225D01*
G01X10734Y111315D01*
G01X10391Y111681D02*
G01X9456Y111681D01*
G01X9062Y110484D02*
G01X9062Y110434D01*
G01X9009Y110329D01*
G01X8958Y110276D01*
G01X8854Y110225D01*
G01X8646Y110225D01*
G01X8542Y110276D01*
G01X8491Y110329D01*
G01X8437Y110434D01*
G01X8437Y110538D01*
G01X8491Y110642D01*
G01X8595Y110797D01*
G01X9113Y111315D01*
G01X8387Y111315D01*
G01X8044Y110225D02*
G01X8044Y111315D01*
G01X7315Y110225D02*
G01X8044Y110952D01*
G01X7785Y110693D02*
G01X7315Y111315D01*
G01X6245Y110225D02*
G01X6766Y111315D01*
G01X6972Y110225D02*
G01X6245Y110225D01*
G01X24003Y106288D02*
G01X24003Y107378D01*
G01X24003Y106288D02*
G01X23535Y106288D01*
G01X23380Y106339D01*
G01X23327Y106392D01*
G01X23276Y106497D01*
G01X23276Y106601D01*
G01X23327Y106705D01*
G01X23380Y106756D01*
G01X23535Y106807D01*
G01X24003Y106807D01*
G01X23639Y106807D02*
G01X23276Y107378D01*
G01X22880Y106547D02*
G01X22880Y106497D01*
G01X22829Y106392D01*
G01X22776Y106339D01*
G01X22672Y106288D01*
G01X22466Y106288D01*
G01X22362Y106339D01*
G01X22308Y106392D01*
G01X22258Y106497D01*
G01X22258Y106601D01*
G01X22308Y106705D01*
G01X22412Y106860D01*
G01X22933Y107378D01*
G01X22204Y107378D01*
G01X21861Y107744D02*
G01X20927Y107744D01*
G01X20584Y106497D02*
G01X20480Y106443D01*
G01X20325Y106288D01*
G01X20325Y107378D01*
G01X19982Y106288D02*
G01X19982Y107378D01*
G01X19253Y106288D02*
G01X19982Y107015D01*
G01X19723Y106756D02*
G01X19253Y107378D01*
G54D10*
G75*
G01X24534Y89539D02*
G03X25734Y88339I1200J0D01*
G01*
G75*
G01X38934Y88339D02*
G03X40134Y89539I0J1200D01*
G01*
G75*
G01X40134Y102739D02*
G03X38934Y103939I-1200J0D01*
G01*
G75*
G01X25734Y103939D02*
G03X24534Y102739I0J-1200D01*
G01*
G75*
G01X25734Y103339D02*
G03X25134Y102739I0J-600D01*
G01*
G75*
G01X39534Y102739D02*
G03X38934Y103339I-600J0D01*
G01*
G75*
G01X38934Y88939D02*
G03X39534Y89539I0J600D01*
G01*
G75*
G01X25134Y89539D02*
G03X25734Y88939I600J0D01*
G01*
G75*
G01X45057Y89539D02*
G03X46257Y88339I1200J0D01*
G01*
G75*
G01X59457Y88339D02*
G03X60657Y89539I1J1200D01*
G01*
G75*
G01X60657Y102739D02*
G03X59457Y103939I-1199J0D01*
G01*
G75*
G01X46257Y103939D02*
G03X45057Y102739I0J-1200D01*
G01*
G75*
G01X46257Y103339D02*
G03X45657Y102739I0J-600D01*
G01*
G75*
G01X60057Y102739D02*
G03X59457Y103339I-600J0D01*
G01*
G75*
G01X59457Y88939D02*
G03X60057Y89539I0J600D01*
G01*
G75*
G01X45657Y89539D02*
G03X46257Y88939I600J0D01*
G01*
G75*
G01X65580Y89539D02*
G03X66781Y88339I1200J0D01*
G01*
G75*
G01X79981Y88339D02*
G03X81181Y89539I0J1200D01*
G01*
G75*
G01X81181Y102739D02*
G03X79981Y103939I-1200J0D01*
G01*
G75*
G01X66781Y103939D02*
G03X65580Y102739I-1J-1200D01*
G01*
G75*
G01X66781Y103339D02*
G03X66181Y102739I0J-600D01*
G01*
G75*
G01X80580Y102739D02*
G03X79981Y103339I-599J0D01*
G01*
G75*
G01X79981Y88939D02*
G03X80580Y89539I0J600D01*
G01*
G75*
G01X66181Y89539D02*
G03X66781Y88939I600J0D01*
G01*
G75*
G01X86104Y89539D02*
G03X87304Y88339I1200J0D01*
G01*
G75*
G01X100504Y88339D02*
G03X101704Y89539I0J1200D01*
G01*
G75*
G01X101704Y102739D02*
G03X100504Y103939I-1200J0D01*
G01*
G75*
G01X87304Y103939D02*
G03X86104Y102739I0J-1200D01*
G01*
G75*
G01X87304Y103339D02*
G03X86704Y102739I0J-600D01*
G01*
G75*
G01X101104Y102739D02*
G03X100504Y103339I-600J0D01*
G01*
G75*
G01X100504Y88939D02*
G03X101104Y89539I0J600D01*
G01*
G75*
G01X86704Y89539D02*
G03X87304Y88939I600J0D01*
G01*
G75*
G01X106627Y89539D02*
G03X107827Y88339I1200J0D01*
G01*
G75*
G01X121027Y88339D02*
G03X122227Y89539I0J1200D01*
G01*
G75*
G01X122227Y102739D02*
G03X121027Y103939I-1200J0D01*
G01*
G75*
G01X107827Y103939D02*
G03X106627Y102739I0J-1200D01*
G01*
G75*
G01X107827Y103339D02*
G03X107227Y102739I0J-600D01*
G01*
G75*
G01X121627Y102739D02*
G03X121027Y103339I-600J0D01*
G01*
G75*
G01X121027Y88939D02*
G03X121627Y89539I0J600D01*
G01*
G75*
G01X107227Y89539D02*
G03X107827Y88939I600J0D01*
G01*
G75*
G01X127150Y89539D02*
G03X128350Y88339I1200J0D01*
G01*
G75*
G01X141550Y88339D02*
G03X142750Y89539I0J1200D01*
G01*
G75*
G01X142750Y102739D02*
G03X141550Y103939I-1200J0D01*
G01*
G75*
G01X128350Y103939D02*
G03X127150Y102739I0J-1200D01*
G01*
G75*
G01X128350Y103339D02*
G03X127750Y102739I0J-600D01*
G01*
G75*
G01X142150Y102739D02*
G03X141550Y103339I-600J0D01*
G01*
G75*
G01X141550Y88939D02*
G03X142150Y89539I0J600D01*
G01*
G75*
G01X127750Y89539D02*
G03X128350Y88939I600J0D01*
G01*
G75*
G01X147673Y89539D02*
G03X148873Y88339I1200J0D01*
G01*
G75*
G01X162073Y88339D02*
G03X163274Y89539I1J1200D01*
G01*
G75*
G01X163274Y102739D02*
G03X162073Y103939I-1200J0D01*
G01*
G75*
G01X148873Y103939D02*
G03X147673Y102739I0J-1200D01*
G01*
G75*
G01X148873Y103339D02*
G03X148274Y102739I0J-600D01*
G01*
G75*
G01X162673Y102739D02*
G03X162073Y103339I-600J0D01*
G01*
G75*
G01X162073Y88939D02*
G03X162673Y89539I0J600D01*
G01*
G75*
G01X148274Y89539D02*
G03X148873Y88939I599J0D01*
G01*
G75*
G01X168197Y89539D02*
G03X169397Y88339I1199J0D01*
G01*
G75*
G01X182597Y88339D02*
G03X183797Y89539I0J1200D01*
G01*
G75*
G01X183797Y102739D02*
G03X182597Y103939I-1200J0D01*
G01*
G75*
G01X169397Y103939D02*
G03X168197Y102739I-1J-1200D01*
G01*
G75*
G01X169397Y103339D02*
G03X168797Y102739I0J-600D01*
G01*
G75*
G01X183197Y102739D02*
G03X182597Y103339I-600J0D01*
G01*
G75*
G01X182597Y88939D02*
G03X183197Y89539I0J600D01*
G01*
G75*
G01X168797Y89539D02*
G03X169397Y88939I600J0D01*
G01*
G75*
G01X188720Y89539D02*
G03X189920Y88339I1200J0D01*
G01*
G75*
G01X203120Y88339D02*
G03X204320Y89539I0J1200D01*
G01*
G75*
G01X204320Y102739D02*
G03X203120Y103939I-1200J0D01*
G01*
G75*
G01X189920Y103939D02*
G03X188720Y102739I0J-1200D01*
G01*
G75*
G01X189920Y103339D02*
G03X189320Y102739I0J-600D01*
G01*
G75*
G01X203720Y102739D02*
G03X203120Y103339I-600J0D01*
G01*
G75*
G01X203120Y88939D02*
G03X203720Y89539I0J600D01*
G01*
G75*
G01X189320Y89539D02*
G03X189920Y88939I600J0D01*
G01*
G75*
G01X31189Y69219D02*
G03X32389Y68019I1200J0D01*
G01*
G75*
G01X45589Y68019D02*
G03X46789Y69219I0J1200D01*
G01*
G75*
G01X46789Y82419D02*
G03X45589Y83619I-1200J0D01*
G01*
G75*
G01X32389Y83619D02*
G03X31189Y82419I0J-1200D01*
G01*
G75*
G01X32389Y83019D02*
G03X31789Y82419I0J-600D01*
G01*
G75*
G01X46189Y82419D02*
G03X45589Y83019I-600J0D01*
G01*
G75*
G01X45589Y68619D02*
G03X46189Y69219I0J600D01*
G01*
G75*
G01X31789Y69219D02*
G03X32389Y68619I600J0D01*
G01*
G75*
G01X34745Y49026D02*
G03X35945Y47826I1200J0D01*
G01*
G75*
G01X49145Y47826D02*
G03X50345Y49026I0J1200D01*
G01*
G75*
G01X50345Y62226D02*
G03X49145Y63426I-1200J0D01*
G01*
G75*
G01X35945Y63426D02*
G03X34745Y62226I0J-1200D01*
G01*
G75*
G01X35945Y62826D02*
G03X35345Y62226I0J-600D01*
G01*
G75*
G01X49745Y62226D02*
G03X49145Y62826I-600J0D01*
G01*
G75*
G01X49145Y48426D02*
G03X49745Y49026I0J600D01*
G01*
G75*
G01X35345Y49026D02*
G03X35945Y48426I600J0D01*
G01*
G75*
G01X8964Y28198D02*
G03X10164Y26998I1200J0D01*
G01*
G75*
G01X23364Y26998D02*
G03X24564Y28198I0J1200D01*
G01*
G75*
G01X24564Y41398D02*
G03X23364Y42598I-1200J0D01*
G01*
G75*
G01X10164Y42598D02*
G03X8964Y41398I0J-1200D01*
G01*
G75*
G01X10164Y41998D02*
G03X9564Y41398I0J-600D01*
G01*
G75*
G01X23964Y41398D02*
G03X23364Y41998I-600J0D01*
G01*
G75*
G01X23364Y27598D02*
G03X23964Y28198I0J600D01*
G01*
G75*
G01X9564Y28198D02*
G03X10164Y27598I600J0D01*
G01*
G75*
G01X53255Y28198D02*
G03X54455Y26998I1200J0D01*
G01*
G75*
G01X67655Y26998D02*
G03X68855Y28198I0J1200D01*
G01*
G75*
G01X68855Y41398D02*
G03X67655Y42598I-1200J0D01*
G01*
G75*
G01X54455Y42598D02*
G03X53255Y41398I0J-1200D01*
G01*
G75*
G01X54455Y41998D02*
G03X53855Y41398I0J-600D01*
G01*
G75*
G01X68255Y41398D02*
G03X67655Y41998I-600J0D01*
G01*
G75*
G01X67655Y27598D02*
G03X68255Y28198I0J600D01*
G01*
G75*
G01X53855Y28198D02*
G03X54455Y27598I600J0D01*
G01*
G75*
G01X55178Y49026D02*
G03X56378Y47826I1200J0D01*
G01*
G75*
G01X69578Y47826D02*
G03X70778Y49026I0J1200D01*
G01*
G75*
G01X70778Y62226D02*
G03X69578Y63426I-1200J0D01*
G01*
G75*
G01X56378Y63426D02*
G03X55178Y62226I0J-1200D01*
G01*
G75*
G01X56378Y62826D02*
G03X55778Y62226I0J-600D01*
G01*
G75*
G01X70178Y62226D02*
G03X69578Y62826I-600J0D01*
G01*
G75*
G01X69578Y48426D02*
G03X70178Y49026I0J600D01*
G01*
G75*
G01X55778Y49026D02*
G03X56378Y48426I600J0D01*
G01*
G75*
G01X51721Y69219D02*
G03X52921Y68019I1199J0D01*
G01*
G75*
G01X66121Y68019D02*
G03X67321Y69219I0J1200D01*
G01*
G75*
G01X67321Y82419D02*
G03X66121Y83619I-1200J0D01*
G01*
G75*
G01X52921Y83619D02*
G03X51721Y82419I-1J-1200D01*
G01*
G75*
G01X52921Y83019D02*
G03X52321Y82419I0J-600D01*
G01*
G75*
G01X66720Y82419D02*
G03X66121Y83019I-599J0D01*
G01*
G75*
G01X66121Y68619D02*
G03X66720Y69219I0J600D01*
G01*
G75*
G01X52321Y69219D02*
G03X52921Y68619I600J0D01*
G01*
G75*
G01X73543Y28198D02*
G03X74744Y26998I1200J0D01*
G01*
G75*
G01X87943Y26998D02*
G03X89144Y28198I1J1200D01*
G01*
G75*
G01X89144Y41398D02*
G03X87943Y42598I-1200J0D01*
G01*
G75*
G01X74744Y42598D02*
G03X73543Y41398I-1J-1200D01*
G01*
G75*
G01X74744Y41998D02*
G03X74144Y41398I0J-600D01*
G01*
G75*
G01X88543Y41398D02*
G03X87943Y41998I-600J0D01*
G01*
G75*
G01X87943Y27598D02*
G03X88543Y28198I0J600D01*
G01*
G75*
G01X74144Y28198D02*
G03X74744Y27598I600J0D01*
G01*
G75*
G01X75611Y49026D02*
G03X76811Y47826I1200J0D01*
G01*
G75*
G01X90011Y47826D02*
G03X91211Y49026I0J1200D01*
G01*
G75*
G01X91211Y62226D02*
G03X90011Y63426I-1200J0D01*
G01*
G75*
G01X76811Y63426D02*
G03X75611Y62226I0J-1200D01*
G01*
G75*
G01X76811Y62826D02*
G03X76211Y62226I0J-600D01*
G01*
G75*
G01X90611Y62226D02*
G03X90011Y62826I-600J0D01*
G01*
G75*
G01X90011Y48426D02*
G03X90611Y49026I0J600D01*
G01*
G75*
G01X76211Y49026D02*
G03X76811Y48426I600J0D01*
G01*
G75*
G01X72252Y69219D02*
G03X73452Y68019I1200J0D01*
G01*
G75*
G01X86652Y68019D02*
G03X87852Y69219I0J1200D01*
G01*
G75*
G01X87852Y82419D02*
G03X86652Y83619I-1200J0D01*
G01*
G75*
G01X73452Y83619D02*
G03X72252Y82419I0J-1200D01*
G01*
G75*
G01X73452Y83019D02*
G03X72852Y82419I0J-600D01*
G01*
G75*
G01X87252Y82419D02*
G03X86652Y83019I-600J0D01*
G01*
G75*
G01X86652Y68619D02*
G03X87252Y69219I0J600D01*
G01*
G75*
G01X72852Y69219D02*
G03X73452Y68619I600J0D01*
G01*
G75*
G01X93832Y28198D02*
G03X95032Y26998I1200J0D01*
G01*
G75*
G01X108232Y26998D02*
G03X109432Y28198I0J1200D01*
G01*
G75*
G01X109432Y41398D02*
G03X108232Y42598I-1200J0D01*
G01*
G75*
G01X95032Y42598D02*
G03X93832Y41398I0J-1200D01*
G01*
G75*
G01X95032Y41998D02*
G03X94432Y41398I0J-600D01*
G01*
G75*
G01X108832Y41398D02*
G03X108232Y41998I-600J0D01*
G01*
G75*
G01X108232Y27598D02*
G03X108832Y28198I0J600D01*
G01*
G75*
G01X94432Y28198D02*
G03X95032Y27598I600J0D01*
G01*
G75*
G01X96044Y49026D02*
G03X97244Y47826I1199J0D01*
G01*
G75*
G01X110444Y47826D02*
G03X111644Y49026I0J1200D01*
G01*
G75*
G01X111644Y62226D02*
G03X110444Y63426I-1200J0D01*
G01*
G75*
G01X97244Y63426D02*
G03X96044Y62226I-1J-1200D01*
G01*
G75*
G01X97244Y62826D02*
G03X96644Y62226I0J-600D01*
G01*
G75*
G01X111044Y62226D02*
G03X110444Y62826I-600J0D01*
G01*
G75*
G01X110444Y48426D02*
G03X111044Y49026I0J600D01*
G01*
G75*
G01X96644Y49026D02*
G03X97244Y48426I600J0D01*
G01*
G75*
G01X92784Y69219D02*
G03X93984Y68019I1200J0D01*
G01*
G75*
G01X107184Y68019D02*
G03X108384Y69219I0J1200D01*
G01*
G75*
G01X108384Y82419D02*
G03X107184Y83619I-1200J0D01*
G01*
G75*
G01X93984Y83619D02*
G03X92784Y82419I0J-1200D01*
G01*
G75*
G01X93984Y83019D02*
G03X93384Y82419I0J-600D01*
G01*
G75*
G01X107784Y82419D02*
G03X107184Y83019I-600J0D01*
G01*
G75*
G01X107184Y68619D02*
G03X107784Y69219I0J600D01*
G01*
G75*
G01X93384Y69219D02*
G03X93984Y68619I600J0D01*
G01*
G75*
G01X114120Y28198D02*
G03X115320Y26998I1200J0D01*
G01*
G75*
G01X128520Y26998D02*
G03X129720Y28198I0J1200D01*
G01*
G75*
G01X129720Y41398D02*
G03X128520Y42598I-1200J0D01*
G01*
G75*
G01X115320Y42598D02*
G03X114120Y41398I0J-1200D01*
G01*
G75*
G01X115320Y41998D02*
G03X114720Y41398I0J-600D01*
G01*
G75*
G01X129120Y41398D02*
G03X128520Y41998I-600J0D01*
G01*
G75*
G01X128520Y27598D02*
G03X129120Y28198I0J600D01*
G01*
G75*
G01X114720Y28198D02*
G03X115320Y27598I600J0D01*
G01*
G75*
G01X116476Y49026D02*
G03X117677Y47826I1200J0D01*
G01*
G75*
G01X130876Y47826D02*
G03X132077Y49026I1J1200D01*
G01*
G75*
G01X132077Y62226D02*
G03X130876Y63426I-1200J0D01*
G01*
G75*
G01X117677Y63426D02*
G03X116476Y62226I-1J-1200D01*
G01*
G75*
G01X117677Y62826D02*
G03X117077Y62226I0J-600D01*
G01*
G75*
G01X131476Y62226D02*
G03X130876Y62826I-600J0D01*
G01*
G75*
G01X130876Y48426D02*
G03X131476Y49026I0J600D01*
G01*
G75*
G01X117077Y49026D02*
G03X117677Y48426I600J0D01*
G01*
G75*
G01X113316Y69219D02*
G03X114516Y68019I1199J0D01*
G01*
G75*
G01X127716Y68019D02*
G03X128916Y69219I0J1200D01*
G01*
G75*
G01X128916Y82419D02*
G03X127716Y83619I-1200J0D01*
G01*
G75*
G01X114516Y83619D02*
G03X113316Y82419I-1J-1200D01*
G01*
G75*
G01X114516Y83019D02*
G03X113916Y82419I0J-600D01*
G01*
G75*
G01X128315Y82419D02*
G03X127716Y83019I-599J0D01*
G01*
G75*
G01X127716Y68619D02*
G03X128315Y69219I0J600D01*
G01*
G75*
G01X113916Y69219D02*
G03X114516Y68619I600J0D01*
G01*
G75*
G01X134408Y28198D02*
G03X135608Y26998I1200J0D01*
G01*
G75*
G01X148808Y26998D02*
G03X150008Y28198I0J1200D01*
G01*
G75*
G01X150008Y41398D02*
G03X148808Y42598I-1200J0D01*
G01*
G75*
G01X135608Y42598D02*
G03X134408Y41398I0J-1200D01*
G01*
G75*
G01X135608Y41998D02*
G03X135008Y41398I0J-600D01*
G01*
G75*
G01X149408Y41398D02*
G03X148808Y41998I-600J0D01*
G01*
G75*
G01X148808Y27598D02*
G03X149408Y28198I0J600D01*
G01*
G75*
G01X135008Y28198D02*
G03X135608Y27598I600J0D01*
G01*
G75*
G01X136909Y49026D02*
G03X138110Y47826I1200J0D01*
G01*
G75*
G01X151309Y47826D02*
G03X152510Y49026I1J1200D01*
G01*
G75*
G01X152510Y62226D02*
G03X151309Y63426I-1200J0D01*
G01*
G75*
G01X138110Y63426D02*
G03X136909Y62226I-1J-1200D01*
G01*
G75*
G01X138110Y62826D02*
G03X137510Y62226I0J-600D01*
G01*
G75*
G01X151909Y62226D02*
G03X151309Y62826I-600J0D01*
G01*
G75*
G01X151309Y48426D02*
G03X151909Y49026I0J600D01*
G01*
G75*
G01X137510Y49026D02*
G03X138110Y48426I600J0D01*
G01*
G75*
G01X133847Y69219D02*
G03X135047Y68019I1200J0D01*
G01*
G75*
G01X148247Y68019D02*
G03X149447Y69219I0J1200D01*
G01*
G75*
G01X149447Y82419D02*
G03X148247Y83619I-1200J0D01*
G01*
G75*
G01X135047Y83619D02*
G03X133847Y82419I0J-1200D01*
G01*
G75*
G01X135047Y83019D02*
G03X134447Y82419I0J-600D01*
G01*
G75*
G01X148847Y82419D02*
G03X148247Y83019I-600J0D01*
G01*
G75*
G01X148247Y68619D02*
G03X148847Y69219I0J600D01*
G01*
G75*
G01X134447Y69219D02*
G03X135047Y68619I600J0D01*
G01*
G75*
G01X154696Y28198D02*
G03X155897Y26998I1200J0D01*
G01*
G75*
G01X169096Y26998D02*
G03X170297Y28198I1J1200D01*
G01*
G75*
G01X170297Y41398D02*
G03X169096Y42598I-1200J0D01*
G01*
G75*
G01X155897Y42598D02*
G03X154696Y41398I-1J-1200D01*
G01*
G75*
G01X155897Y41998D02*
G03X155297Y41398I0J-600D01*
G01*
G75*
G01X169696Y41398D02*
G03X169096Y41998I-600J0D01*
G01*
G75*
G01X169096Y27598D02*
G03X169696Y28198I0J600D01*
G01*
G75*
G01X155297Y28198D02*
G03X155897Y27598I600J0D01*
G01*
G75*
G01X157342Y49026D02*
G03X158542Y47826I1200J0D01*
G01*
G75*
G01X171742Y47826D02*
G03X172942Y49026I0J1200D01*
G01*
G75*
G01X172942Y62226D02*
G03X171742Y63426I-1200J0D01*
G01*
G75*
G01X158542Y63426D02*
G03X157342Y62226I0J-1200D01*
G01*
G75*
G01X158542Y62826D02*
G03X157942Y62226I0J-600D01*
G01*
G75*
G01X172342Y62226D02*
G03X171742Y62826I-600J0D01*
G01*
G75*
G01X171742Y48426D02*
G03X172342Y49026I0J600D01*
G01*
G75*
G01X157942Y49026D02*
G03X158542Y48426I600J0D01*
G01*
G75*
G01X154252Y69219D02*
G03X155452Y68019I1200J0D01*
G01*
G75*
G01X168652Y68019D02*
G03X169852Y69219I0J1200D01*
G01*
G75*
G01X169852Y82419D02*
G03X168652Y83619I-1200J0D01*
G01*
G75*
G01X155452Y83619D02*
G03X154252Y82419I0J-1200D01*
G01*
G75*
G01X155452Y83019D02*
G03X154852Y82419I0J-600D01*
G01*
G75*
G01X169252Y82419D02*
G03X168652Y83019I-600J0D01*
G01*
G75*
G01X168652Y68619D02*
G03X169252Y69219I0J600D01*
G01*
G75*
G01X154852Y69219D02*
G03X155452Y68619I600J0D01*
G01*
G75*
G01X174985Y28198D02*
G03X176185Y26998I1200J0D01*
G01*
G75*
G01X189385Y26998D02*
G03X190585Y28198I0J1200D01*
G01*
G75*
G01X190585Y41398D02*
G03X189385Y42598I-1200J0D01*
G01*
G75*
G01X176185Y42598D02*
G03X174985Y41398I0J-1200D01*
G01*
G75*
G01X176185Y41998D02*
G03X175585Y41398I0J-600D01*
G01*
G75*
G01X189985Y41398D02*
G03X189385Y41998I-600J0D01*
G01*
G75*
G01X189385Y27598D02*
G03X189985Y28198I0J600D01*
G01*
G75*
G01X175585Y28198D02*
G03X176185Y27598I600J0D01*
G01*
G75*
G01X177775Y49026D02*
G03X178975Y47826I1200J0D01*
G01*
G75*
G01X192175Y47826D02*
G03X193375Y49026I0J1200D01*
G01*
G75*
G01X193375Y62226D02*
G03X192175Y63426I-1200J0D01*
G01*
G75*
G01X178975Y63426D02*
G03X177775Y62226I0J-1200D01*
G01*
G75*
G01X178975Y62826D02*
G03X178375Y62226I0J-600D01*
G01*
G75*
G01X192775Y62226D02*
G03X192175Y62826I-600J0D01*
G01*
G75*
G01X192175Y48426D02*
G03X192775Y49026I0J600D01*
G01*
G75*
G01X178375Y49026D02*
G03X178975Y48426I600J0D01*
G01*
G75*
G01X174826Y69219D02*
G03X176026Y68019I1200J0D01*
G01*
G75*
G01X189226Y68019D02*
G03X190426Y69219I0J1200D01*
G01*
G75*
G01X190426Y82419D02*
G03X189226Y83619I-1200J0D01*
G01*
G75*
G01X176026Y83619D02*
G03X174826Y82419I0J-1200D01*
G01*
G75*
G01X176026Y83019D02*
G03X175426Y82419I0J-600D01*
G01*
G75*
G01X189826Y82419D02*
G03X189226Y83019I-600J0D01*
G01*
G75*
G01X189226Y68619D02*
G03X189826Y69219I0J600D01*
G01*
G75*
G01X175426Y69219D02*
G03X176026Y68619I600J0D01*
G01*
G75*
G01X221308Y28198D02*
G03X222508Y26998I1200J0D01*
G01*
G75*
G01X235708Y26998D02*
G03X236908Y28198I0J1200D01*
G01*
G75*
G01X236908Y41398D02*
G03X235708Y42598I-1200J0D01*
G01*
G75*
G01X222508Y42598D02*
G03X221308Y41398I0J-1200D01*
G01*
G75*
G01X222508Y41998D02*
G03X221908Y41398I0J-600D01*
G01*
G75*
G01X236308Y41398D02*
G03X235708Y41998I-600J0D01*
G01*
G75*
G01X235708Y27598D02*
G03X236308Y28198I0J600D01*
G01*
G75*
G01X221908Y28198D02*
G03X222508Y27598I600J0D01*
G01*
G75*
G01X198208Y49026D02*
G03X199408Y47826I1200J0D01*
G01*
G75*
G01X212608Y47826D02*
G03X213808Y49026I0J1200D01*
G01*
G75*
G01X213808Y62226D02*
G03X212608Y63426I-1200J0D01*
G01*
G75*
G01X199408Y63426D02*
G03X198208Y62226I0J-1200D01*
G01*
G75*
G01X199408Y62826D02*
G03X198808Y62226I0J-600D01*
G01*
G75*
G01X213208Y62226D02*
G03X212608Y62826I-600J0D01*
G01*
G75*
G01X212608Y48426D02*
G03X213208Y49026I0J600D01*
G01*
G75*
G01X198808Y49026D02*
G03X199408Y48426I600J0D01*
G01*
G75*
G01X195442Y69219D02*
G03X196642Y68019I1200J0D01*
G01*
G75*
G01X209842Y68019D02*
G03X211042Y69219I0J1200D01*
G01*
G75*
G01X211042Y82419D02*
G03X209842Y83619I-1200J0D01*
G01*
G75*
G01X196642Y83619D02*
G03X195442Y82419I0J-1200D01*
G01*
G75*
G01X196642Y83019D02*
G03X196042Y82419I0J-600D01*
G01*
G75*
G01X210442Y82419D02*
G03X209842Y83019I-600J0D01*
G01*
G75*
G01X209842Y68619D02*
G03X210442Y69219I0J600D01*
G01*
G75*
G01X196042Y69219D02*
G03X196642Y68619I600J0D01*
G01*
G75*
G01X114374Y8132D02*
G03X115574Y6932I1200J0D01*
G01*
G75*
G01X128774Y6932D02*
G03X129974Y8132I0J1200D01*
G01*
G75*
G01X129974Y21332D02*
G03X128774Y22532I-1200J0D01*
G01*
G75*
G01X115574Y22532D02*
G03X114374Y21332I0J-1200D01*
G01*
G75*
G01X115574Y21932D02*
G03X114974Y21332I0J-600D01*
G01*
G75*
G01X129374Y21332D02*
G03X128774Y21932I-600J0D01*
G01*
G75*
G01X128774Y7532D02*
G03X129374Y8132I0J600D01*
G01*
G75*
G01X114974Y8132D02*
G03X115574Y7532I600J0D01*
G01*
G75*
G01X227150Y49026D02*
G03X228350Y47826I1200J0D01*
G01*
G75*
G01X241550Y47826D02*
G03X242750Y49026I0J1200D01*
G01*
G75*
G01X242750Y62226D02*
G03X241550Y63426I-1200J0D01*
G01*
G75*
G01X228350Y63426D02*
G03X227150Y62226I0J-1200D01*
G01*
G75*
G01X228350Y62826D02*
G03X227750Y62226I0J-600D01*
G01*
G75*
G01X242150Y62226D02*
G03X241550Y62826I-600J0D01*
G01*
G75*
G01X241550Y48426D02*
G03X242150Y49026I0J600D01*
G01*
G75*
G01X227750Y49026D02*
G03X228350Y48426I600J0D01*
G01*
G75*
G01X215974Y69219D02*
G03X217174Y68019I1200J0D01*
G01*
G75*
G01X230374Y68019D02*
G03X231574Y69219I0J1200D01*
G01*
G75*
G01X231574Y82419D02*
G03X230374Y83619I-1200J0D01*
G01*
G75*
G01X217174Y83619D02*
G03X215974Y82419I0J-1200D01*
G01*
G75*
G01X217174Y83019D02*
G03X216574Y82419I0J-600D01*
G01*
G75*
G01X230974Y82419D02*
G03X230374Y83019I-600J0D01*
G01*
G75*
G01X230374Y68619D02*
G03X230974Y69219I0J600D01*
G01*
G75*
G01X216574Y69219D02*
G03X217174Y68619I600J0D01*
G01*
G75*
G01X4011Y89539D02*
G03X5211Y88339I1200J0D01*
G01*
G75*
G01X18411Y88339D02*
G03X19611Y89539I0J1200D01*
G01*
G75*
G01X19611Y102739D02*
G03X18411Y103939I-1200J0D01*
G01*
G75*
G01X5211Y103939D02*
G03X4011Y102739I0J-1200D01*
G01*
G75*
G01X5211Y103339D02*
G03X4611Y102739I0J-600D01*
G01*
G75*
G01X19011Y102739D02*
G03X18411Y103339I-600J0D01*
G01*
G75*
G01X18411Y88939D02*
G03X19011Y89539I0J600D01*
G01*
G75*
G01X4611Y89539D02*
G03X5211Y88939I600J0D01*
G01*
G75*
G01X6805Y69219D02*
G03X8005Y68019I1200J0D01*
G01*
G75*
G01X21205Y68019D02*
G03X22405Y69219I0J1200D01*
G01*
G75*
G01X22405Y82419D02*
G03X21205Y83619I-1200J0D01*
G01*
G75*
G01X8005Y83619D02*
G03X6805Y82419I0J-1200D01*
G01*
G75*
G01X8005Y83019D02*
G03X7405Y82419I0J-600D01*
G01*
G75*
G01X21805Y82419D02*
G03X21205Y83019I-600J0D01*
G01*
G75*
G01X21205Y68619D02*
G03X21805Y69219I0J600D01*
G01*
G75*
G01X7405Y69219D02*
G03X8005Y68619I600J0D01*
G01*
G75*
G01X8964Y49026D02*
G03X10164Y47826I1200J0D01*
G01*
G75*
G01X23364Y47826D02*
G03X24564Y49026I0J1200D01*
G01*
G75*
G01X24564Y62226D02*
G03X23364Y63426I-1200J0D01*
G01*
G75*
G01X10164Y63426D02*
G03X8964Y62226I0J-1200D01*
G01*
G75*
G01X10164Y62826D02*
G03X9564Y62226I0J-600D01*
G01*
G75*
G01X23964Y62226D02*
G03X23364Y62826I-600J0D01*
G01*
G75*
G01X23364Y48426D02*
G03X23964Y49026I0J600D01*
G01*
G75*
G01X9564Y49026D02*
G03X10164Y48426I600J0D01*
G01*
G75*
G01X32967Y28198D02*
G03X34167Y26998I1200J0D01*
G01*
G75*
G01X47367Y26998D02*
G03X48567Y28198I0J1200D01*
G01*
G75*
G01X48567Y41398D02*
G03X47367Y42598I-1200J0D01*
G01*
G75*
G01X34167Y42598D02*
G03X32967Y41398I0J-1200D01*
G01*
G75*
G01X34167Y41998D02*
G03X33567Y41398I0J-600D01*
G01*
G75*
G01X47967Y41398D02*
G03X47367Y41998I-600J0D01*
G01*
G75*
G01X47367Y27598D02*
G03X47967Y28198I0J600D01*
G01*
G75*
G01X33567Y28198D02*
G03X34167Y27598I600J0D01*
G01*
G75*
G01X30808Y8132D02*
G03X32008Y6932I1200J0D01*
G01*
G75*
G01X45208Y6932D02*
G03X46408Y8132I0J1200D01*
G01*
G75*
G01X46408Y21332D02*
G03X45208Y22532I-1200J0D01*
G01*
G75*
G01X32008Y22532D02*
G03X30808Y21332I0J-1200D01*
G01*
G75*
G01X32008Y21932D02*
G03X31408Y21332I0J-600D01*
G01*
G75*
G01X45808Y21332D02*
G03X45208Y21932I-600J0D01*
G01*
G75*
G01X45208Y7532D02*
G03X45808Y8132I0J600D01*
G01*
G75*
G01X31408Y8132D02*
G03X32008Y7532I600J0D01*
G01*
G75*
G01X7440Y8132D02*
G03X8640Y6932I1200J0D01*
G01*
G75*
G01X21840Y6932D02*
G03X23040Y8132I0J1200D01*
G01*
G75*
G01X23040Y21332D02*
G03X21840Y22532I-1200J0D01*
G01*
G75*
G01X8640Y22532D02*
G03X7440Y21332I0J-1200D01*
G01*
G75*
G01X8640Y21932D02*
G03X8040Y21332I0J-600D01*
G01*
G75*
G01X22440Y21332D02*
G03X21840Y21932I-600J0D01*
G01*
G75*
G01X21840Y7532D02*
G03X22440Y8132I0J600D01*
G01*
G75*
G01X8040Y8132D02*
G03X8640Y7532I600J0D01*
G01*
G75*
G01X231087Y8132D02*
G03X232287Y6932I1200J0D01*
G01*
G75*
G01X245487Y6932D02*
G03X246687Y8132I0J1200D01*
G01*
G75*
G01X246687Y21332D02*
G03X245487Y22532I-1200J0D01*
G01*
G75*
G01X232287Y22532D02*
G03X231087Y21332I0J-1200D01*
G01*
G75*
G01X232287Y21932D02*
G03X231687Y21332I0J-600D01*
G01*
G75*
G01X246087Y21332D02*
G03X245487Y21932I-600J0D01*
G01*
G75*
G01X245487Y7532D02*
G03X246087Y8132I0J600D01*
G01*
G75*
G01X231687Y8132D02*
G03X232287Y7532I600J0D01*
G01*
G75*
G01X209624Y8132D02*
G03X210824Y6932I1200J0D01*
G01*
G75*
G01X224024Y6932D02*
G03X225224Y8132I0J1200D01*
G01*
G75*
G01X225224Y21332D02*
G03X224024Y22532I-1200J0D01*
G01*
G75*
G01X210824Y22532D02*
G03X209624Y21332I0J-1200D01*
G01*
G75*
G01X210824Y21932D02*
G03X210224Y21332I0J-600D01*
G01*
G75*
G01X224624Y21332D02*
G03X224024Y21932I-600J0D01*
G01*
G75*
G01X224024Y7532D02*
G03X224624Y8132I0J600D01*
G01*
G75*
G01X210224Y8132D02*
G03X210824Y7532I600J0D01*
G01*
G75*
G01X195273Y28198D02*
G03X196473Y26998I1200J0D01*
G01*
G75*
G01X209673Y26998D02*
G03X210873Y28198I0J1200D01*
G01*
G75*
G01X210873Y41398D02*
G03X209673Y42598I-1200J0D01*
G01*
G75*
G01X196473Y42598D02*
G03X195273Y41398I0J-1200D01*
G01*
G75*
G01X196473Y41998D02*
G03X195873Y41398I0J-600D01*
G01*
G75*
G01X210273Y41398D02*
G03X209673Y41998I-600J0D01*
G01*
G75*
G01X209673Y27598D02*
G03X210273Y28198I0J600D01*
G01*
G75*
G01X195873Y28198D02*
G03X196473Y27598I600J0D01*
G01*
G75*
G01X209243Y89539D02*
G03X210443Y88339I1200J0D01*
G01*
G75*
G01X223643Y88339D02*
G03X224843Y89539I0J1200D01*
G01*
G75*
G01X224843Y102739D02*
G03X223643Y103939I-1200J0D01*
G01*
G75*
G01X210443Y103939D02*
G03X209243Y102739I0J-1200D01*
G01*
G75*
G01X210443Y103339D02*
G03X209843Y102739I0J-600D01*
G01*
G75*
G01X224243Y102739D02*
G03X223643Y103339I-600J0D01*
G01*
G75*
G01X223643Y88939D02*
G03X224243Y89539I0J600D01*
G01*
G75*
G01X209843Y89539D02*
G03X210443Y88939I600J0D01*
G01*
G75*
G01X231341Y89539D02*
G03X232541Y88339I1200J0D01*
G01*
G75*
G01X245741Y88339D02*
G03X246941Y89539I0J1200D01*
G01*
G75*
G01X246941Y102739D02*
G03X245741Y103939I-1200J0D01*
G01*
G75*
G01X232541Y103939D02*
G03X231341Y102739I0J-1200D01*
G01*
G75*
G01X232541Y103339D02*
G03X231941Y102739I0J-600D01*
G01*
G75*
G01X246341Y102739D02*
G03X245741Y103339I-600J0D01*
G01*
G75*
G01X245741Y88939D02*
G03X246341Y89539I0J600D01*
G01*
G75*
G01X231941Y89539D02*
G03X232541Y88939I600J0D01*
G01*
G75*
G01X203248Y109398D02*
G03X203248Y113360I1499J1981D01*
G01*
G75*
G01X99591Y109906D02*
G03X99591Y113868I1498J1981D01*
G01*
G75*
G01X78890Y109398D02*
G03X78890Y113360I1498J1981D01*
G01*
G75*
G01X244701Y109398D02*
G03X244701Y113360I1499J1981D01*
G01*
G75*
G01X223975Y109398D02*
G03X223975Y113360I1498J1981D01*
G01*
G75*
G01X120343Y109398D02*
G03X120343Y113360I1498J1981D01*
G01*
G75*
G01X182522Y109398D02*
G03X182522Y113360I1498J1981D01*
G01*
G75*
G01X161795Y109398D02*
G03X161795Y113360I1499J1981D01*
G01*
G75*
G01X141069Y109398D02*
G03X141069Y113360I1499J1981D01*
G01*
G75*
G01X58164Y109398D02*
G03X58164Y113360I1498J1981D01*
G01*
G75*
G01X37437Y109398D02*
G03X37437Y113360I1499J1981D01*
G01*
M00*
M02*
