;Layer: Drill PTH
;EasyEDA v6.4.5, 2020-09-13T21:27:01+03:00
;63316e0368094ceea4197b1f53c500b6,10
;Gerber Generator version 0.2
M48
METRIC,LZ,000.000
;Holesize 1 = 0.305 METRIC
T01C0.305
;Holesize 2 = 0.701 METRIC
T02C0.701
;Holesize 3 = 0.889 METRIC
T03C0.889
;Holesize 4 = 1.000 METRIC
T04C1.000
;Holesize 5 = 1.016 METRIC
T05C1.016
;Holesize 6 = 1.501 METRIC
T06C1.501
%
G05
G90
T01
X+036195Y+110363
X+034874Y+107170
X+124714Y+102723
X+110236Y+026035
X+106553Y+100711
X+113538Y+108585
X+122936Y+117983
X+159698Y+116078
X+158496Y+119380
X+052324Y+117983
X+048514Y+110363
X+080264Y+106680
X+205232Y+106680
X+160528Y+117856
X+153543Y+117729
X+219456Y+022860
X+222758Y+024765
X+177546Y+106426
X+177546Y+109093
X+045212Y+102997
X+043307Y+105156
X+117856Y+118237
X+171577Y+111125
X+171577Y+106680
X+086995Y+114427
X+142367Y+104902
X+147206Y+104902
X+208534Y+109474
T02
X+204749Y+112648
X+204749Y+111378
X+204749Y+110108
X+101092Y+113157
X+101092Y+111887
X+101092Y+110617
X+080391Y+112649
X+080391Y+111379
X+080391Y+110109
X+246202Y+112648
X+246202Y+111378
X+246202Y+110108
X+225475Y+112648
X+225475Y+111378
X+225475Y+110108
X+121843Y+112649
X+121843Y+111379
X+121843Y+110109
X+184023Y+112648
X+184023Y+111378
X+184023Y+110108
X+163296Y+112648
X+163296Y+111378
X+163296Y+110108
X+142570Y+112648
X+142570Y+111378
X+142570Y+110108
X+059664Y+112648
X+059664Y+111378
X+059664Y+110108
X+038938Y+112648
X+038938Y+111378
X+038938Y+110108
T03
X+028194Y+004826
X+025654Y+004826
T04
X+116725Y+114427
X+108725Y+114427
X+034276Y+114427
X+026276Y+114427
X+240397Y+114427
X+232397Y+114427
X+219785Y+114427
X+211785Y+114427
X+075500Y+114427
X+067501Y+114427
X+054888Y+114427
X+046888Y+114427
X+137337Y+114427
X+129337Y+114427
X+157949Y+114427
X+149949Y+114427
X+178561Y+114427
X+170561Y+114427
X+199173Y+114427
X+191173Y+114427
X+016064Y+112903
X+008065Y+112903
X+028002Y+108966
X+020003Y+108966
T05
X+139065Y+004953
X+141605Y+004953
X+144145Y+004953
X+146685Y+004953
X+149225Y+004953
X+151765Y+004953
X+154305Y+004953
X+156845Y+004953
X+098933Y+005207
X+101473Y+005207
X+104013Y+005207
X+106553Y+005207
X+109093Y+005207
T06
X+028524Y+098679G85X+028524Y+098679
X+034874Y+101219G85X+034874Y+101219
X+049047Y+098679G85X+049047Y+098679
X+055397Y+101219G85X+055397Y+101219
X+069570Y+098679G85X+069570Y+098679
X+075920Y+101219G85X+075920Y+101219
X+090093Y+098679G85X+090093Y+098679
X+096443Y+101219G85X+096443Y+101219
X+110616Y+098679G85X+110617Y+098679
X+116966Y+101219G85X+116967Y+101219
X+131139Y+098679G85X+131140Y+098679
X+137489Y+101219G85X+137490Y+101219
X+151663Y+098679G85X+151663Y+098679
X+158013Y+101219G85X+158013Y+101219
X+172186Y+098679G85X+172186Y+098679
X+178536Y+101219G85X+178536Y+101219
X+192709Y+098679G85X+192709Y+098679
X+199059Y+101219G85X+199059Y+101219
X+035178Y+078359G85X+035179Y+078359
X+041528Y+080899G85X+041529Y+080899
X+038734Y+058166G85X+038735Y+058166
X+045084Y+060706G85X+045085Y+060706
X+012953Y+037338G85X+012954Y+037338
X+019303Y+039878G85X+019304Y+039878
X+057245Y+037338G85X+057245Y+037338
X+063595Y+039878G85X+063595Y+039878
X+059167Y+058166G85X+059168Y+058166
X+065517Y+060706G85X+065518Y+060706
X+055710Y+078359G85X+055710Y+078359
X+062060Y+080899G85X+062060Y+080899
X+077533Y+037338G85X+077533Y+037338
X+083883Y+039878G85X+083883Y+039878
X+079600Y+058166G85X+079600Y+058166
X+085950Y+060706G85X+085950Y+060706
X+076242Y+078359G85X+076242Y+078359
X+082592Y+080899G85X+082592Y+080899
X+097821Y+037338G85X+097821Y+037338
X+104171Y+039878G85X+104171Y+039878
X+100033Y+058166G85X+100033Y+058166
X+106383Y+060706G85X+106383Y+060706
X+096773Y+078359G85X+096774Y+078359
X+103123Y+080899G85X+103124Y+080899
X+118109Y+037338G85X+118110Y+037338
X+124459Y+039878G85X+124460Y+039878
X+120466Y+058166G85X+120466Y+058166
X+126816Y+060706G85X+126816Y+060706
X+117305Y+078359G85X+117305Y+078359
X+123655Y+080899G85X+123655Y+080899
X+138398Y+037338G85X+138398Y+037338
X+144748Y+039878G85X+144748Y+039878
X+140899Y+058166G85X+140899Y+058166
X+147249Y+060706G85X+147249Y+060706
X+137837Y+078359G85X+137837Y+078359
X+144187Y+080899G85X+144187Y+080899
X+158686Y+037338G85X+158686Y+037338
X+165036Y+039878G85X+165036Y+039878
X+161332Y+058166G85X+161332Y+058166
X+167682Y+060706G85X+167682Y+060706
X+158241Y+078359G85X+158242Y+078359
X+164591Y+080899G85X+164592Y+080899
X+178974Y+037338G85X+178974Y+037338
X+185324Y+039878G85X+185324Y+039878
X+181765Y+058166G85X+181765Y+058166
X+188115Y+060706G85X+188115Y+060706
X+178815Y+078359G85X+178816Y+078359
X+185165Y+080899G85X+185166Y+080899
X+225297Y+037338G85X+225298Y+037338
X+231647Y+039878G85X+231648Y+039878
X+202197Y+058166G85X+202198Y+058166
X+208547Y+060706G85X+208548Y+060706
X+199432Y+078359G85X+199432Y+078359
X+205782Y+080899G85X+205782Y+080899
X+118363Y+017272G85X+118364Y+017272
X+124713Y+019812G85X+124714Y+019812
X+231139Y+058166G85X+231140Y+058166
X+237489Y+060706G85X+237490Y+060706
X+219963Y+078359G85X+219964Y+078359
X+226313Y+080899G85X+226314Y+080899
X+008000Y+098679G85X+008001Y+098679
X+014350Y+101219G85X+014351Y+101219
X+010794Y+078359G85X+010795Y+078359
X+017144Y+080899G85X+017145Y+080899
X+012953Y+058166G85X+012954Y+058166
X+019303Y+060706G85X+019304Y+060706
X+036956Y+037338G85X+036957Y+037338
X+043306Y+039878G85X+043307Y+039878
X+034797Y+017272G85X+034798Y+017272
X+041147Y+019812G85X+041148Y+019812
X+011429Y+017272G85X+011430Y+017272
X+017779Y+019812G85X+017780Y+019812
X+235076Y+017272G85X+235077Y+017272
X+241426Y+019812G85X+241427Y+019812
X+213613Y+017272G85X+213614Y+017272
X+219963Y+019812G85X+219964Y+019812
X+199262Y+037338G85X+199263Y+037338
X+205612Y+039878G85X+205613Y+039878
X+213232Y+098679G85X+213233Y+098679
X+219582Y+101219G85X+219583Y+101219
X+235330Y+098679G85X+235331Y+098679
X+241680Y+101219G85X+241681Y+101219
M30
