;Layer: Drill NPTH
;EasyEDA v6.4.5, 2020-09-13T21:27:01+03:00
;63316e0368094ceea4197b1f53c500b6,10
;Gerber Generator version 0.2
M48
METRIC,LZ,000.000
;Holesize 1 = 2.032 METRIC
T01C2.032
;Holesize 2 = 4.101 METRIC
T02C4.101
%
G05
G90
T01
X+133858Y+008255
X+105537Y+114554
X+145923Y+114554
X+125222Y+114554
X+002667Y+002413
X+251968Y+002413
X+251968Y+117729
X+002667Y+117729
X+061595Y+008255
X+182626Y+008255
T02
X+032334Y+096139
X+052857Y+096139
X+073380Y+096139
X+093903Y+096139
X+114426Y+096139
X+134950Y+096139
X+155473Y+096139
X+175996Y+096139
X+196519Y+096139
X+038989Y+075819
X+042545Y+055626
X+016764Y+034798
X+061055Y+034798
X+062977Y+055626
X+059520Y+075819
X+081343Y+034798
X+083410Y+055626
X+080052Y+075819
X+101631Y+034798
X+103843Y+055626
X+100584Y+075819
X+121920Y+034798
X+124276Y+055626
X+121115Y+075819
X+142208Y+034798
X+144709Y+055626
X+141647Y+075819
X+162496Y+034798
X+165142Y+055626
X+162051Y+075819
X+182784Y+034798
X+185575Y+055626
X+182626Y+075819
X+229108Y+034798
X+206008Y+055626
X+203242Y+075819
X+122174Y+014732
X+234949Y+055626
X+223774Y+075819
X+011811Y+096139
X+014605Y+075819
X+016764Y+055626
X+040767Y+034798
X+038608Y+014732
X+015240Y+014732
X+238887Y+014732
X+217424Y+014732
X+203073Y+034798
X+217043Y+096139
X+239141Y+096139
M30
