G04 Layer: TopLayer*
G04 EasyEDA v6.4.5, 2020-09-13T21:27:01+03:00*
G04 63316e0368094ceea4197b1f53c500b6,10*
G04 Gerber Generator version 0.2*
G04 Scale: 100 percent, Rotated: No, Reflected: No *
G04 Dimensions in millimeters *
G04 leading zeros omitted , absolute positions ,3 integer and 3 decimal *
%FSLAX33Y33*%
%MOMM*%
G90*
G71D02*

%ADD10C,0.254000*%
%ADD11C,0.499999*%
%ADD12C,0.203200*%
%ADD13C,0.609600*%
%ADD14C,2.540000*%
%ADD15C,1.879600*%
%ADD16R,1.574800X1.574800*%
%ADD17C,1.574800*%
%ADD18R,1.599997X0.899998*%
%ADD19C,1.799996*%
%ADD20C,0.899998*%

%LPD*%
G54D10*
G01X205232Y106680D02*
G01X205740Y106680D01*
G01X208534Y109474D01*
G01X108725Y114427D02*
G01X105550Y117602D01*
G01X91059Y117602D01*
G01X87884Y114427D01*
G01X86995Y114427D01*
G01X158013Y101219D02*
G01X163347Y106553D01*
G01X171577Y106680D01*
G01X184023Y112648D02*
G01X183895Y112776D01*
G01X181102Y112776D01*
G01X179451Y111125D01*
G01X171577Y111125D01*
G01X116725Y114427D02*
G01X117856Y115557D01*
G01X117856Y118237D01*
G54D11*
G01X28194Y4826D02*
G01X27178Y6350D01*
G01X9398Y6223D01*
G01X5969Y10160D01*
G01X5715Y99568D01*
G01X20002Y108966D01*
G54D10*
G01X237489Y60706D02*
G01X237871Y60324D01*
G01X237871Y32385D01*
G01X236728Y31242D01*
G01X220726Y31242D01*
G01X207899Y44069D01*
G01X196850Y44069D01*
G01X191008Y38227D01*
G01X191008Y23368D01*
G01X187452Y19812D01*
G01X124714Y19812D01*
G01X19304Y39878D02*
G01X19304Y37338D01*
G01X31750Y24892D01*
G01X50546Y24892D01*
G01X99060Y16891D01*
G01X98933Y5207D01*
G01X63595Y39878D02*
G01X69342Y28829D01*
G01X77724Y26162D01*
G01X101600Y17780D01*
G01X101473Y5207D01*
G01X83883Y39878D02*
G01X71628Y39878D01*
G01X71628Y29972D01*
G01X104140Y19050D01*
G01X104013Y5207D01*
G01X104173Y39878D02*
G01X92710Y39878D01*
G01X91186Y38354D01*
G01X91186Y24765D01*
G01X106680Y20066D01*
G01X106553Y5207D01*
G01X124460Y39878D02*
G01X113411Y39878D01*
G01X111633Y38100D01*
G01X111633Y23876D01*
G01X110490Y22733D01*
G01X109220Y20320D01*
G01X109093Y5207D01*
G01X98933Y5207D02*
G01X101092Y3048D01*
G01X111887Y3048D01*
G01X111887Y19812D01*
G01X124714Y19812D01*
G54D11*
G01X16065Y112903D02*
G01X3683Y100520D01*
G01X3683Y9072D01*
G01X7239Y4699D01*
G01X25654Y4826D01*
G54D10*
G01X38938Y112648D02*
G01X38811Y112776D01*
G01X36322Y112776D01*
G01X36195Y112649D01*
G01X36195Y110363D01*
G01X124714Y102723D02*
G01X124714Y85471D01*
G01X131826Y78359D01*
G01X137837Y78359D01*
G01X106553Y100711D02*
G01X108204Y99060D01*
G01X108204Y82804D01*
G01X112014Y78994D01*
G01X112014Y64135D01*
G01X113665Y62484D01*
G01X113665Y44831D01*
G01X110236Y41402D01*
G01X110236Y26035D01*
G01X122936Y117983D02*
G01X113538Y108585D01*
G01X113538Y108458D01*
G01X178562Y114427D02*
G01X177292Y115697D01*
G01X177292Y116078D01*
G01X159698Y116078D01*
G01X52324Y117983D02*
G01X52705Y118364D01*
G01X89154Y118364D01*
G01X90170Y119380D01*
G01X158496Y119380D01*
G01X43307Y39878D02*
G01X52578Y49149D01*
G01X52832Y49149D01*
G01X52705Y49276D01*
G01X52705Y64262D01*
G01X49530Y67437D01*
G01X49530Y70104D01*
G01X49403Y70231D01*
G01X49403Y85090D01*
G01X46609Y87884D01*
G01X43815Y87884D01*
G01X41910Y89789D01*
G01X41910Y107061D01*
G01X45212Y110363D01*
G01X48514Y110363D01*
G01X77533Y37338D02*
G01X78295Y38100D01*
G01X88900Y38100D01*
G01X93345Y42545D01*
G01X93345Y48387D01*
G01X93726Y48768D01*
G01X93726Y64897D01*
G01X90170Y68453D01*
G01X90170Y68834D01*
G01X89789Y69215D01*
G01X89789Y85344D01*
G01X83566Y91567D01*
G01X83566Y92710D01*
G01X82931Y93345D01*
G01X82931Y106299D01*
G01X82550Y106680D01*
G01X80264Y106680D01*
G01X160528Y117856D02*
G01X160401Y117729D01*
G01X153543Y117729D01*
G01X158013Y101219D02*
G01X154330Y104902D01*
G01X147066Y104902D01*
G01X103124Y80899D02*
G01X105283Y83058D01*
G01X105283Y103886D01*
G01X106299Y104902D01*
G01X142367Y104902D01*
G01X213614Y17272D02*
G01X219202Y22860D01*
G01X219456Y22860D01*
G01X142570Y111379D02*
G01X151638Y111379D01*
G01X157480Y117221D01*
G01X227584Y117221D01*
G01X228981Y115824D01*
G01X228981Y86487D01*
G01X240411Y75057D01*
G01X240411Y26924D01*
G01X238252Y24765D01*
G01X222758Y24765D01*
G01X178536Y101219D02*
G01X177546Y102209D01*
G01X177546Y106426D01*
G01X121843Y112649D02*
G01X125984Y112649D01*
G01X129921Y108712D01*
G01X130302Y109093D01*
G01X177546Y109093D01*
G01X101092Y113157D02*
G01X104013Y113157D01*
G01X109601Y107569D01*
G01X192532Y107569D01*
G01X198882Y101219D01*
G01X199059Y101219D01*
G01X225475Y112648D02*
G01X220344Y112648D01*
G01X208915Y101219D01*
G01X199059Y101219D01*
G01X240397Y114427D02*
G01X243445Y111378D01*
G01X246202Y111378D01*
G01X240397Y114427D02*
G01X235331Y109360D01*
G01X235331Y98679D01*
G01X138398Y37338D02*
G01X146685Y37338D01*
G01X150876Y41529D01*
G01X149987Y42418D01*
G01X149987Y85979D01*
G01X145415Y90551D01*
G01X145415Y106045D01*
G01X105664Y106045D01*
G01X101092Y110617D01*
G01X46888Y114427D02*
G01X49428Y111887D01*
G01X55245Y111887D01*
G01X57785Y114427D01*
G01X67501Y114427D01*
G01X67501Y114427D02*
G01X70549Y111379D01*
G01X80391Y111379D01*
G01X55397Y101219D02*
G01X64643Y110464D01*
G01X64643Y112648D01*
G01X59664Y112648D02*
G01X64643Y112648D01*
G01X68199Y109093D01*
G01X94869Y109093D01*
G01X98933Y113157D01*
G01X101092Y113157D01*
G01X38938Y112648D02*
G01X38938Y112979D01*
G01X42799Y116840D01*
G01X76200Y116840D01*
G01X80391Y112649D01*
G01X45212Y102997D02*
G01X52323Y110108D01*
G01X59664Y110108D01*
G01X43307Y105156D02*
G01X43307Y104902D01*
G01X45212Y102997D01*
G01X34874Y101219D02*
G01X34874Y107315D01*
G01X28002Y108966D02*
G01X41427Y108966D01*
G01X46888Y114427D01*
G01X41529Y80899D02*
G01X44958Y78740D01*
G01X45085Y60706D01*
G01X62060Y80899D02*
G01X62230Y63754D01*
G01X65517Y60706D01*
G01X82592Y80899D02*
G01X82804Y63246D01*
G01X85950Y60706D01*
G01X103124Y80899D02*
G01X102997Y63119D01*
G01X106382Y60706D01*
G01X147249Y60706D02*
G01X147193Y77724D01*
G01X144187Y80899D01*
G01X123655Y80899D02*
G01X123655Y68312D01*
G01X126816Y60706D01*
G01X226314Y80899D02*
G01X226314Y71881D01*
G01X237489Y60706D01*
G01X219583Y101219D02*
G01X219583Y87630D01*
G01X226314Y80899D01*
G01X208548Y60706D02*
G01X210820Y60706D01*
G01X231648Y39878D01*
G01X205782Y80899D02*
G01X205782Y63471D01*
G01X208548Y60706D01*
G01X199059Y101219D02*
G01X199059Y87621D01*
G01X205782Y80899D01*
G01X188115Y60706D02*
G01X188115Y42668D01*
G01X185324Y39878D01*
G01X185166Y80899D02*
G01X185166Y63655D01*
G01X188115Y60706D01*
G01X178536Y101219D02*
G01X178536Y87528D01*
G01X185166Y80899D01*
G01X167682Y60706D02*
G01X167682Y42523D01*
G01X165036Y39878D01*
G01X164591Y80899D02*
G01X164591Y63796D01*
G01X167682Y60706D01*
G01X158013Y101219D02*
G01X158013Y87477D01*
G01X164591Y80899D01*
G01X144187Y80899D02*
G01X144187Y94521D01*
G01X137490Y101219D01*
G01X144748Y39878D02*
G01X147249Y42379D01*
G01X147249Y60706D01*
G01X124460Y39878D02*
G01X144748Y39878D01*
G01X126816Y60706D02*
G01X126816Y42234D01*
G01X124460Y39878D01*
G01X116967Y101219D02*
G01X116967Y87587D01*
G01X123655Y80899D01*
G01X106383Y60706D02*
G01X106383Y42089D01*
G01X104171Y39878D01*
G01X96443Y101219D02*
G01X96443Y87579D01*
G01X103124Y80899D01*
G01X85950Y60706D02*
G01X85950Y41945D01*
G01X83883Y39878D01*
G01X75920Y101219D02*
G01X75920Y87570D01*
G01X82592Y80899D01*
G01X65517Y60706D02*
G01X65517Y41800D01*
G01X63595Y39878D01*
G01X55397Y101219D02*
G01X55397Y87562D01*
G01X62060Y80899D01*
G01X45085Y60706D02*
G01X44831Y60706D01*
G01X41275Y64262D01*
G01X29718Y64262D01*
G01X29718Y50292D01*
G01X19304Y39878D01*
G01X34874Y101219D02*
G01X34874Y87553D01*
G01X41529Y80899D01*
G54D12*
G01X51562Y16654D02*
G01X51562Y14716D01*
G01X51562Y16654D02*
G01X52392Y16654D01*
G01X52669Y16563D01*
G01X52763Y16471D01*
G01X52854Y16286D01*
G01X52854Y16101D01*
G01X52763Y15915D01*
G01X52669Y15824D01*
G01X52392Y15732D01*
G01X51562Y15732D02*
G01X52392Y15732D01*
G01X52669Y15638D01*
G01X52763Y15547D01*
G01X52854Y15361D01*
G01X52854Y15085D01*
G01X52763Y14899D01*
G01X52669Y14808D01*
G01X52392Y14716D01*
G01X51562Y14716D01*
G01X54203Y16654D02*
G01X53464Y14716D01*
G01X54203Y16654D02*
G01X54942Y14716D01*
G01X53741Y15361D02*
G01X54665Y15361D01*
G01X56845Y16377D02*
G01X56659Y16563D01*
G01X56382Y16654D01*
G01X56014Y16654D01*
G01X55737Y16563D01*
G01X55552Y16377D01*
G01X55552Y16192D01*
G01X55643Y16009D01*
G01X55737Y15915D01*
G01X55920Y15824D01*
G01X56476Y15638D01*
G01X56659Y15547D01*
G01X56753Y15455D01*
G01X56845Y15270D01*
G01X56845Y14993D01*
G01X56659Y14808D01*
G01X56382Y14716D01*
G01X56014Y14716D01*
G01X55737Y14808D01*
G01X55552Y14993D01*
G01X57454Y16654D02*
G01X57454Y14716D01*
G01X59448Y16192D02*
G01X59357Y16377D01*
G01X59171Y16563D01*
G01X58988Y16654D01*
G01X58618Y16654D01*
G01X58432Y16563D01*
G01X58249Y16377D01*
G01X58155Y16192D01*
G01X58064Y15915D01*
G01X58064Y15455D01*
G01X58155Y15176D01*
G01X58249Y14993D01*
G01X58432Y14808D01*
G01X58618Y14716D01*
G01X58988Y14716D01*
G01X59171Y14808D01*
G01X59357Y14993D01*
G01X59448Y15176D01*
G01X52946Y13144D02*
G01X52854Y13329D01*
G01X52669Y13515D01*
G01X52486Y13606D01*
G01X52115Y13606D01*
G01X51930Y13515D01*
G01X51747Y13329D01*
G01X51653Y13144D01*
G01X51562Y12867D01*
G01X51562Y12407D01*
G01X51653Y12128D01*
G01X51747Y11945D01*
G01X51930Y11760D01*
G01X52115Y11668D01*
G01X52486Y11668D01*
G01X52669Y11760D01*
G01X52854Y11945D01*
G01X52946Y12128D01*
G01X53555Y13606D02*
G01X53555Y11668D01*
G01X53555Y13606D02*
G01X54389Y13606D01*
G01X54665Y13515D01*
G01X54757Y13423D01*
G01X54851Y13238D01*
G01X54851Y12961D01*
G01X54757Y12776D01*
G01X54665Y12684D01*
G01X54389Y12590D01*
G01X53555Y12590D01*
G01X57122Y13977D02*
G01X55460Y11021D01*
G01X57731Y13606D02*
G01X57731Y11668D01*
G01X57731Y13606D02*
G01X58470Y11668D01*
G01X59209Y13606D02*
G01X58470Y11668D01*
G01X59209Y13606D02*
G01X59209Y11668D01*
G01X61333Y13144D02*
G01X61333Y13238D01*
G01X61427Y13423D01*
G01X61518Y13515D01*
G01X61704Y13606D01*
G01X62072Y13606D01*
G01X62257Y13515D01*
G01X62349Y13423D01*
G01X62443Y13238D01*
G01X62443Y13053D01*
G01X62349Y12867D01*
G01X62166Y12590D01*
G01X61241Y11668D01*
G01X62534Y11668D01*
G01X63235Y12128D02*
G01X63144Y12037D01*
G01X63235Y11945D01*
G01X63329Y12037D01*
G01X63235Y12128D01*
G01X64030Y13144D02*
G01X64030Y13238D01*
G01X64122Y13423D01*
G01X64216Y13515D01*
G01X64401Y13606D01*
G01X64770Y13606D01*
G01X64955Y13515D01*
G01X65046Y13423D01*
G01X65138Y13238D01*
G01X65138Y13053D01*
G01X65046Y12867D01*
G01X64861Y12590D01*
G01X63939Y11668D01*
G01X65232Y11668D01*
G01X68371Y13606D02*
G01X67449Y13606D01*
G01X67355Y12776D01*
G01X67449Y12867D01*
G01X67726Y12961D01*
G01X68003Y12961D01*
G01X68280Y12867D01*
G01X68465Y12684D01*
G01X68557Y12407D01*
G01X68557Y12222D01*
G01X68465Y11945D01*
G01X68280Y11760D01*
G01X68003Y11668D01*
G01X67726Y11668D01*
G01X67449Y11760D01*
G01X67355Y11851D01*
G01X67264Y12037D01*
G01X70274Y13329D02*
G01X70182Y13515D01*
G01X69905Y13606D01*
G01X69720Y13606D01*
G01X69443Y13515D01*
G01X69258Y13238D01*
G01X69166Y12776D01*
G01X69166Y12313D01*
G01X69258Y11945D01*
G01X69443Y11760D01*
G01X69720Y11668D01*
G01X69811Y11668D01*
G01X70091Y11760D01*
G01X70274Y11945D01*
G01X70368Y12222D01*
G01X70368Y12313D01*
G01X70274Y12590D01*
G01X70091Y12776D01*
G01X69811Y12867D01*
G01X69720Y12867D01*
G01X69443Y12776D01*
G01X69258Y12590D01*
G01X69166Y12313D01*
G01X70977Y13606D02*
G01X70977Y11668D01*
G01X72270Y13606D02*
G01X70977Y12313D01*
G01X71437Y12776D02*
G01X72270Y11668D01*
G01X75410Y12684D02*
G01X75224Y12867D01*
G01X75041Y12961D01*
G01X74764Y12961D01*
G01X74579Y12867D01*
G01X74394Y12684D01*
G01X74302Y12407D01*
G01X74302Y12222D01*
G01X74394Y11945D01*
G01X74579Y11760D01*
G01X74764Y11668D01*
G01X75041Y11668D01*
G01X75224Y11760D01*
G01X75410Y11945D01*
G01X76481Y12961D02*
G01X76296Y12867D01*
G01X76111Y12684D01*
G01X76019Y12407D01*
G01X76019Y12222D01*
G01X76111Y11945D01*
G01X76296Y11760D01*
G01X76481Y11668D01*
G01X76758Y11668D01*
G01X76944Y11760D01*
G01X77127Y11945D01*
G01X77221Y12222D01*
G01X77221Y12407D01*
G01X77127Y12684D01*
G01X76944Y12867D01*
G01X76758Y12961D01*
G01X76481Y12961D01*
G01X77830Y12961D02*
G01X77830Y11668D01*
G01X77830Y12590D02*
G01X78107Y12867D01*
G01X78292Y12961D01*
G01X78569Y12961D01*
G01X78752Y12867D01*
G01X78846Y12590D01*
G01X78846Y11668D01*
G01X78846Y12590D02*
G01X79123Y12867D01*
G01X79308Y12961D01*
G01X79585Y12961D01*
G01X79768Y12867D01*
G01X79862Y12590D01*
G01X79862Y11668D01*
G01X80472Y12961D02*
G01X80472Y11021D01*
G01X80472Y12684D02*
G01X80657Y12867D01*
G01X80840Y12961D01*
G01X81117Y12961D01*
G01X81302Y12867D01*
G01X81488Y12684D01*
G01X81579Y12407D01*
G01X81579Y12222D01*
G01X81488Y11945D01*
G01X81302Y11760D01*
G01X81117Y11668D01*
G01X80840Y11668D01*
G01X80657Y11760D01*
G01X80472Y11945D01*
G01X83299Y12961D02*
G01X83299Y11668D01*
G01X83299Y12684D02*
G01X83113Y12867D01*
G01X82928Y12961D01*
G01X82651Y12961D01*
G01X82466Y12867D01*
G01X82283Y12684D01*
G01X82189Y12407D01*
G01X82189Y12222D01*
G01X82283Y11945D01*
G01X82466Y11760D01*
G01X82651Y11668D01*
G01X82928Y11668D01*
G01X83113Y11760D01*
G01X83299Y11945D01*
G01X84185Y13606D02*
G01X84185Y12037D01*
G01X84277Y11760D01*
G01X84462Y11668D01*
G01X84645Y11668D01*
G01X83908Y12961D02*
G01X84554Y12961D01*
G01X85255Y13606D02*
G01X85349Y13515D01*
G01X85440Y13606D01*
G01X85349Y13700D01*
G01X85255Y13606D01*
G01X85349Y12961D02*
G01X85349Y11668D01*
G01X86050Y13606D02*
G01X86050Y11668D01*
G01X86050Y12684D02*
G01X86235Y12867D01*
G01X86420Y12961D01*
G01X86697Y12961D01*
G01X86880Y12867D01*
G01X87066Y12684D01*
G01X87160Y12407D01*
G01X87160Y12222D01*
G01X87066Y11945D01*
G01X86880Y11760D01*
G01X86697Y11668D01*
G01X86420Y11668D01*
G01X86235Y11760D01*
G01X86050Y11945D01*
G01X87769Y13606D02*
G01X87769Y11668D01*
G01X88379Y12407D02*
G01X89486Y12407D01*
G01X89486Y12590D01*
G01X89395Y12776D01*
G01X89301Y12867D01*
G01X89115Y12961D01*
G01X88839Y12961D01*
G01X88656Y12867D01*
G01X88470Y12684D01*
G01X88379Y12407D01*
G01X88379Y12222D01*
G01X88470Y11945D01*
G01X88656Y11760D01*
G01X88839Y11668D01*
G01X89115Y11668D01*
G01X89301Y11760D01*
G01X89486Y11945D01*
G01X149352Y15130D02*
G01X149352Y13192D01*
G01X150644Y15130D02*
G01X150644Y13192D01*
G01X149352Y14208D02*
G01X150644Y14208D01*
G01X152641Y14668D02*
G01X152547Y14853D01*
G01X152361Y15039D01*
G01X152179Y15130D01*
G01X151808Y15130D01*
G01X151625Y15039D01*
G01X151439Y14853D01*
G01X151345Y14668D01*
G01X151254Y14391D01*
G01X151254Y13931D01*
G01X151345Y13652D01*
G01X151439Y13469D01*
G01X151625Y13284D01*
G01X151808Y13192D01*
G01X152179Y13192D01*
G01X152361Y13284D01*
G01X152547Y13469D01*
G01X152641Y13652D01*
G01X154449Y14485D02*
G01X154358Y14208D01*
G01X154172Y14023D01*
G01X153896Y13931D01*
G01X153804Y13931D01*
G01X153527Y14023D01*
G01X153342Y14208D01*
G01X153250Y14485D01*
G01X153250Y14577D01*
G01X153342Y14853D01*
G01X153527Y15039D01*
G01X153804Y15130D01*
G01X153896Y15130D01*
G01X154172Y15039D01*
G01X154358Y14853D01*
G01X154449Y14485D01*
G01X154449Y14023D01*
G01X154358Y13561D01*
G01X154172Y13284D01*
G01X153896Y13192D01*
G01X153710Y13192D01*
G01X153433Y13284D01*
G01X153342Y13469D01*
G01X155059Y14762D02*
G01X155244Y14853D01*
G01X155521Y15130D01*
G01X155521Y13192D01*
G01X157794Y15501D02*
G01X156131Y12545D01*
G01X158496Y14668D02*
G01X158496Y14762D01*
G01X158587Y14947D01*
G01X158681Y15039D01*
G01X158864Y15130D01*
G01X159235Y15130D01*
G01X159420Y15039D01*
G01X159512Y14947D01*
G01X159603Y14762D01*
G01X159603Y14577D01*
G01X159512Y14391D01*
G01X159326Y14114D01*
G01X158404Y13192D01*
G01X159697Y13192D01*
G01X160860Y15130D02*
G01X160583Y15039D01*
G01X160398Y14762D01*
G01X160307Y14300D01*
G01X160307Y14023D01*
G01X160398Y13561D01*
G01X160583Y13284D01*
G01X160860Y13192D01*
G01X161046Y13192D01*
G01X161323Y13284D01*
G01X161505Y13561D01*
G01X161599Y14023D01*
G01X161599Y14300D01*
G01X161505Y14762D01*
G01X161323Y15039D01*
G01X161046Y15130D01*
G01X160860Y15130D01*
G01X162763Y15130D02*
G01X162486Y15039D01*
G01X162300Y14762D01*
G01X162209Y14300D01*
G01X162209Y14023D01*
G01X162300Y13561D01*
G01X162486Y13284D01*
G01X162763Y13192D01*
G01X162948Y13192D01*
G01X163225Y13284D01*
G01X163410Y13561D01*
G01X163502Y14023D01*
G01X163502Y14300D01*
G01X163410Y14762D01*
G01X163225Y15039D01*
G01X162948Y15130D01*
G01X162763Y15130D01*
G01X164665Y15130D02*
G01X164388Y15039D01*
G01X164203Y14762D01*
G01X164111Y14300D01*
G01X164111Y14023D01*
G01X164203Y13561D01*
G01X164388Y13284D01*
G01X164665Y13192D01*
G01X164851Y13192D01*
G01X165127Y13284D01*
G01X165313Y13561D01*
G01X165404Y14023D01*
G01X165404Y14300D01*
G01X165313Y14762D01*
G01X165127Y15039D01*
G01X164851Y15130D01*
G01X164665Y15130D01*
G01X167436Y14023D02*
G01X169100Y14023D01*
G01X171132Y15130D02*
G01X171132Y13192D01*
G01X171132Y15130D02*
G01X171777Y15130D01*
G01X172054Y15039D01*
G01X172239Y14853D01*
G01X172331Y14668D01*
G01X172425Y14391D01*
G01X172425Y13931D01*
G01X172331Y13652D01*
G01X172239Y13469D01*
G01X172054Y13284D01*
G01X171777Y13192D01*
G01X171132Y13192D01*
G01X173034Y15130D02*
G01X173126Y15039D01*
G01X173217Y15130D01*
G01X173126Y15224D01*
G01X173034Y15130D01*
G01X173126Y14485D02*
G01X173126Y13192D01*
G01X174937Y14485D02*
G01X174937Y13007D01*
G01X174843Y12730D01*
G01X174752Y12636D01*
G01X174566Y12545D01*
G01X174289Y12545D01*
G01X174104Y12636D01*
G01X174937Y14208D02*
G01X174752Y14391D01*
G01X174566Y14485D01*
G01X174289Y14485D01*
G01X174104Y14391D01*
G01X173921Y14208D01*
G01X173827Y13931D01*
G01X173827Y13746D01*
G01X173921Y13469D01*
G01X174104Y13284D01*
G01X174289Y13192D01*
G01X174566Y13192D01*
G01X174752Y13284D01*
G01X174937Y13469D01*
G01X175547Y15130D02*
G01X175638Y15039D01*
G01X175729Y15130D01*
G01X175638Y15224D01*
G01X175547Y15130D01*
G01X175638Y14485D02*
G01X175638Y13192D01*
G01X176618Y15130D02*
G01X176618Y13561D01*
G01X176710Y13284D01*
G01X176895Y13192D01*
G01X177078Y13192D01*
G01X176339Y14485D02*
G01X176987Y14485D01*
G01X178798Y14485D02*
G01X178798Y13192D01*
G01X178798Y14208D02*
G01X178612Y14391D01*
G01X178427Y14485D01*
G01X178150Y14485D01*
G01X177965Y14391D01*
G01X177782Y14208D01*
G01X177688Y13931D01*
G01X177688Y13746D01*
G01X177782Y13469D01*
G01X177965Y13284D01*
G01X178150Y13192D01*
G01X178427Y13192D01*
G01X178612Y13284D01*
G01X178798Y13469D01*
G01X179407Y15130D02*
G01X179407Y13192D01*
G01X181310Y14853D02*
G01X181124Y15039D01*
G01X180848Y15130D01*
G01X180479Y15130D01*
G01X180200Y15039D01*
G01X180017Y14853D01*
G01X180017Y14668D01*
G01X180108Y14485D01*
G01X180200Y14391D01*
G01X180385Y14300D01*
G01X180939Y14114D01*
G01X181124Y14023D01*
G01X181216Y13931D01*
G01X181310Y13746D01*
G01X181310Y13469D01*
G01X181124Y13284D01*
G01X180848Y13192D01*
G01X180479Y13192D01*
G01X180200Y13284D01*
G01X180017Y13469D01*
G01X183027Y14208D02*
G01X182841Y14391D01*
G01X182659Y14485D01*
G01X182382Y14485D01*
G01X182196Y14391D01*
G01X182011Y14208D01*
G01X181919Y13931D01*
G01X181919Y13746D01*
G01X182011Y13469D01*
G01X182196Y13284D01*
G01X182382Y13192D01*
G01X182659Y13192D01*
G01X182841Y13284D01*
G01X183027Y13469D01*
G01X183636Y14485D02*
G01X183636Y13192D01*
G01X183636Y13931D02*
G01X183730Y14208D01*
G01X183913Y14391D01*
G01X184099Y14485D01*
G01X184376Y14485D01*
G01X184985Y15130D02*
G01X185077Y15039D01*
G01X185171Y15130D01*
G01X185077Y15224D01*
G01X184985Y15130D01*
G01X185077Y14485D02*
G01X185077Y13192D01*
G01X185780Y15130D02*
G01X185780Y13192D01*
G01X185780Y14208D02*
G01X185966Y14391D01*
G01X186148Y14485D01*
G01X186425Y14485D01*
G01X186611Y14391D01*
G01X186796Y14208D01*
G01X186888Y13931D01*
G01X186888Y13746D01*
G01X186796Y13469D01*
G01X186611Y13284D01*
G01X186425Y13192D01*
G01X186148Y13192D01*
G01X185966Y13284D01*
G01X185780Y13469D01*
G01X187497Y13931D02*
G01X188607Y13931D01*
G01X188607Y14114D01*
G01X188513Y14300D01*
G01X188422Y14391D01*
G01X188236Y14485D01*
G01X187960Y14485D01*
G01X187774Y14391D01*
G01X187591Y14208D01*
G01X187497Y13931D01*
G01X187497Y13746D01*
G01X187591Y13469D01*
G01X187774Y13284D01*
G01X187960Y13192D01*
G01X188236Y13192D01*
G01X188422Y13284D01*
G01X188607Y13469D01*
G54D14*
G01X28524Y98679D03*
G01X34874Y101219D03*
G01X49047Y98679D03*
G01X55397Y101219D03*
G01X69570Y98679D03*
G01X75920Y101219D03*
G01X90093Y98679D03*
G01X96443Y101219D03*
G01X110617Y98679D03*
G01X116967Y101219D03*
G01X131140Y98679D03*
G01X137490Y101219D03*
G01X151663Y98679D03*
G01X158013Y101219D03*
G01X172186Y98679D03*
G01X178536Y101219D03*
G01X192709Y98679D03*
G01X199059Y101219D03*
G54D15*
G01X139065Y4953D03*
G01X141605Y4953D03*
G01X144145Y4953D03*
G01X146685Y4953D03*
G01X149225Y4953D03*
G01X151765Y4953D03*
G01X154305Y4953D03*
G01X156845Y4953D03*
G01X98933Y5207D03*
G01X101473Y5207D03*
G01X104013Y5207D03*
G01X106553Y5207D03*
G01X109093Y5207D03*
G54D14*
G01X35179Y78359D03*
G01X41529Y80899D03*
G01X38735Y58166D03*
G01X45085Y60706D03*
G01X12954Y37338D03*
G01X19304Y39878D03*
G01X57245Y37338D03*
G01X63595Y39878D03*
G01X59167Y58166D03*
G01X65517Y60706D03*
G01X55710Y78359D03*
G01X62060Y80899D03*
G01X77533Y37338D03*
G01X83883Y39878D03*
G01X79600Y58166D03*
G01X85950Y60706D03*
G01X76242Y78359D03*
G01X82592Y80899D03*
G01X97821Y37338D03*
G01X104171Y39878D03*
G01X100033Y58166D03*
G01X106383Y60706D03*
G01X96774Y78359D03*
G01X103124Y80899D03*
G01X118110Y37338D03*
G01X124460Y39878D03*
G01X120466Y58166D03*
G01X126816Y60706D03*
G01X117305Y78359D03*
G01X123655Y80899D03*
G01X138398Y37338D03*
G01X144748Y39878D03*
G01X140899Y58166D03*
G01X147249Y60706D03*
G01X137837Y78359D03*
G01X144187Y80899D03*
G01X158686Y37338D03*
G01X165036Y39878D03*
G01X161332Y58166D03*
G01X167682Y60706D03*
G01X158241Y78359D03*
G01X164591Y80899D03*
G01X178974Y37338D03*
G01X185324Y39878D03*
G01X181765Y58166D03*
G01X188115Y60706D03*
G01X178816Y78359D03*
G01X185166Y80899D03*
G01X225298Y37338D03*
G01X231648Y39878D03*
G01X202198Y58166D03*
G01X208548Y60706D03*
G01X199432Y78359D03*
G01X205782Y80899D03*
G01X118364Y17272D03*
G01X124714Y19812D03*
G01X231139Y58166D03*
G01X237489Y60706D03*
G01X219964Y78359D03*
G01X226314Y80899D03*
G54D16*
G01X28194Y4826D03*
G54D17*
G01X25654Y4826D03*
G54D14*
G01X8001Y98679D03*
G01X14351Y101219D03*
G01X10795Y78359D03*
G01X17145Y80899D03*
G01X12954Y58166D03*
G01X19304Y60706D03*
G01X36957Y37338D03*
G01X43307Y39878D03*
G01X34798Y17272D03*
G01X41148Y19812D03*
G01X11430Y17272D03*
G01X17780Y19812D03*
G01X235077Y17272D03*
G01X241427Y19812D03*
G01X213614Y17272D03*
G01X219964Y19812D03*
G01X199263Y37338D03*
G01X205613Y39878D03*
G01X213233Y98679D03*
G01X219583Y101219D03*
G01X235331Y98679D03*
G01X241681Y101219D03*
G54D18*
G01X204749Y112648D03*
G01X101092Y113157D03*
G01X80391Y112649D03*
G01X246202Y112648D03*
G01X225475Y112648D03*
G01X121843Y112649D03*
G01X184023Y112648D03*
G01X163296Y112648D03*
G01X142570Y112648D03*
G01X59664Y112648D03*
G01X38938Y112648D03*
G54D19*
G01X116725Y114427D03*
G01X108725Y114427D03*
G01X34276Y114427D03*
G01X26276Y114427D03*
G01X240397Y114427D03*
G01X232397Y114427D03*
G01X219785Y114427D03*
G01X211785Y114427D03*
G01X75500Y114427D03*
G01X67501Y114427D03*
G01X54888Y114427D03*
G01X46888Y114427D03*
G01X137337Y114427D03*
G01X129337Y114427D03*
G01X157949Y114427D03*
G01X149949Y114427D03*
G01X178561Y114427D03*
G01X170561Y114427D03*
G01X199173Y114427D03*
G01X191173Y114427D03*
G01X16064Y112903D03*
G01X8065Y112903D03*
G01X28002Y108966D03*
G01X20003Y108966D03*
G54D13*
G01X36195Y110363D03*
G01X34874Y107170D03*
G01X124714Y102723D03*
G01X110236Y26035D03*
G01X106553Y100711D03*
G01X113538Y108585D03*
G01X122936Y117983D03*
G01X159698Y116078D03*
G01X158496Y119380D03*
G01X52324Y117983D03*
G01X48514Y110363D03*
G01X80264Y106680D03*
G01X205232Y106680D03*
G01X160528Y117856D03*
G01X153543Y117729D03*
G01X219456Y22860D03*
G01X222758Y24765D03*
G01X177546Y106426D03*
G01X177546Y109093D03*
G01X45212Y102997D03*
G01X43307Y105156D03*
G01X117856Y118237D03*
G01X171577Y111125D03*
G01X171577Y106680D03*
G01X86995Y114427D03*
G01X142367Y104902D03*
G01X147206Y104902D03*
G01X208534Y109474D03*
G54D20*
G01X205099Y111378D02*
G01X204399Y111378D01*
G01X205099Y110108D02*
G01X204399Y110108D01*
G01X101441Y111887D02*
G01X100741Y111887D01*
G01X101441Y110617D02*
G01X100741Y110617D01*
G01X80740Y111379D02*
G01X80040Y111379D01*
G01X80740Y110109D02*
G01X80040Y110109D01*
G01X246552Y111378D02*
G01X245852Y111378D01*
G01X246552Y110108D02*
G01X245852Y110108D01*
G01X225825Y111378D02*
G01X225125Y111378D01*
G01X225825Y110108D02*
G01X225125Y110108D01*
G01X122193Y111379D02*
G01X121493Y111379D01*
G01X122193Y110109D02*
G01X121493Y110109D01*
G01X184372Y111378D02*
G01X183672Y111378D01*
G01X184372Y110108D02*
G01X183672Y110108D01*
G01X163646Y111378D02*
G01X162946Y111378D01*
G01X163646Y110108D02*
G01X162946Y110108D01*
G01X142920Y111378D02*
G01X142220Y111378D01*
G01X142920Y110108D02*
G01X142220Y110108D01*
G01X60014Y111378D02*
G01X59314Y111378D01*
G01X60014Y110108D02*
G01X59314Y110108D01*
G01X39288Y111378D02*
G01X38588Y111378D01*
G01X39288Y110108D02*
G01X38588Y110108D01*
M00*
M02*
